<svg id="_7bb21c2134b646b861f8710a188b0d61" data-name="7bb21c2134b646b861f8710a188b0d61" xmlns="http://www.w3.org/2000/svg" width="21.689" height="16.559" viewBox="0 0 21.689 16.559">
  <path id="Path_456" data-name="Path 456" d="M20.458,133.709a4.349,4.349,0,1,0-5.244.009A8.414,8.414,0,0,0,10,141.644a.815.815,0,0,0,1.629,0c0-3.747,2.789-6.8,6.215-6.8s6.215,3.048,6.215,6.8a.815.815,0,0,0,1.629,0A8.41,8.41,0,0,0,20.458,133.709Zm-2.627-6.178a2.718,2.718,0,1,1-2.718,2.718A2.722,2.722,0,0,1,17.831,127.531Z" transform="translate(-10 -125.9)" fill="#fff"/>
  <path id="Path_457" data-name="Path 457" d="M627.958,194.195a4.075,4.075,0,0,0-2.944-6.895.815.815,0,0,0,0,1.629,2.447,2.447,0,0,1,.711,4.788c-.022.007-.04.018-.06.024s-.04.015-.058.024a.745.745,0,0,0-.1.06l-.027.018a.813.813,0,0,0-.1.091l-.009.009a.806.806,0,0,0-.186.79.449.449,0,0,0,.029.058,1.268,1.268,0,0,0,.06.124.838.838,0,0,0,.071.1.884.884,0,0,0,.17.155.863.863,0,0,0,.179.093.463.463,0,0,0,.053.013.72.72,0,0,0,.093.024c3.294.531,4.828,2.508,4.828,6.222a.815.815,0,1,0,1.629,0C632.3,197.8,630.8,195.3,627.958,194.195Z" transform="translate(-610.605 -185.941)" fill="#fff"/>
</svg>
