<?xml version="1.0" encoding="UTF-8"?>
<svg width="512px" height="512px" viewBox="0 0 512 512" version="1.1" xmlns="http://www.w3.org/2000/svg" xmlns:xlink="http://www.w3.org/1999/xlink">
    <!-- Generator: Sketch 52.6 (67491) - http://www.bohemiancoding.com/sketch -->
    <title>architecture-and-city</title>
    <desc>Created with Sketch.</desc>
    <g id="Page-1" stroke="none" stroke-width="1" fill="none" fill-rule="evenodd">
        <g id="architecture-and-city" transform="translate(-1.000000, 0.000000)" fill="#77829A" fill-rule="nonzero">
            <path d="M466.709,165.734 L494.337,187.806 L513,164.444 L449.213,113.485 L449.213,0.788 L360.081,0.788 L360.081,42.279 L309.052,1.512 L105.106,164.444 L123.769,187.806 L150.893,166.137 L150.893,202.832 C142.335,207.78 134.275,213.904 126.961,221.218 C85.318,262.861 82.022,328.549 117.068,374 L102.211,388.856 L60.295,392.365 L13.311,439.348 C-3.105,455.766 -3.105,482.48 13.311,498.898 L13.312,498.898 C21.521,507.107 32.304,511.211 43.086,511.211 C53.87,511.211 64.652,507.107 72.861,498.898 L119.844,451.915 L123.354,410 L138.211,395.144 C158.982,411.16 183.979,419.17 208.977,419.17 C221.998,419.17 235.018,416.997 247.441,412.652 L513,412.652 L513,382.75 L466.709,382.75 L466.709,165.734 Z M389.982,30.688 L419.312,30.688 L419.312,89.597 L389.982,66.165 L389.982,30.688 Z M180.793,142.249 L309.053,39.783 L436.809,141.847 L436.809,382.75 L293.415,382.75 C336.198,337.353 335.394,265.618 290.994,221.217 C261.171,191.394 219.016,181.244 180.793,190.755 L180.793,142.249 Z M90.962,438.513 L51.72,477.756 C46.961,482.516 39.218,482.516 34.457,477.756 C29.697,472.996 29.697,465.251 34.456,460.491 L73.699,421.248 L92.54,419.671 L90.962,438.513 Z M148.103,364.109 C114.538,330.543 114.538,275.926 148.103,242.36 C164.888,225.576 186.929,217.186 208.978,217.186 C231.021,217.186 253.071,225.58 269.852,242.36 C303.417,275.926 303.417,330.543 269.852,364.109 C236.286,397.672 181.67,397.674 148.103,364.109 Z" id="Shape"></path>
            <path d="M310.016,169.792 C332.716,169.792 351.184,151.324 351.184,128.624 C351.184,105.924 332.716,87.456 310.016,87.456 C287.316,87.456 268.848,105.924 268.848,128.624 C268.848,151.324 287.316,169.792 310.016,169.792 Z M310.016,117.357 C316.229,117.357 321.283,122.412 321.283,128.624 C321.283,134.836 316.229,139.891 310.016,139.891 C303.803,139.891 298.749,134.836 298.749,128.624 C298.749,122.412 303.803,117.357 310.016,117.357 Z" id="Shape"></path>
        </g>
    </g>
</svg>