<svg xmlns="http://www.w3.org/2000/svg" width="27.846" height="24.406" viewBox="0 0 27.846 24.406">
  <g id="art" transform="translate(0 -26.576)">
    <g id="Group_377" data-name="Group 377" transform="translate(0 26.576)">
      <g id="Group_376" data-name="Group 376" transform="translate(0 0)">
        <path id="Path_438" data-name="Path 438" d="M176.829,159.668a2.84,2.84,0,1,0,2.84,2.84A2.841,2.841,0,0,0,176.829,159.668Zm0,4.328a1.488,1.488,0,1,1,0-2.976h0a1.488,1.488,0,1,1,0,2.976Z" transform="translate(-162.728 -151.054)" fill="#fff"/>
        <path id="Path_439" data-name="Path 439" d="M25.43,28.7,6.967,26.6a2.536,2.536,0,0,0-2,.575,2.57,2.57,0,0,0-.981,1.758l-.338,2.773H2.6A2.717,2.717,0,0,0,0,34.514v13.83a2.57,2.57,0,0,0,2.5,2.637H21.169a2.776,2.776,0,0,0,2.84-2.638V47.8a3.381,3.381,0,0,0,1.285-.541,2.807,2.807,0,0,0,.981-1.826l1.556-13.729A2.739,2.739,0,0,0,25.43,28.7ZM22.657,48.344a1.424,1.424,0,0,1-1.488,1.285H2.6a1.217,1.217,0,0,1-1.253-1.181q0-.052,0-.1v-2.5l5.241-3.855a1.623,1.623,0,0,1,2.1.1l3.686,3.246a3.179,3.179,0,0,0,2,.744A3.077,3.077,0,0,0,16,45.639l6.662-3.855v6.56Zm0-8.149-7.372,4.295a1.725,1.725,0,0,1-2-.169l-3.72-3.28A3.01,3.01,0,0,0,5.817,40.9L1.353,44.151V34.514A1.365,1.365,0,0,1,2.6,33.06H21.169a1.556,1.556,0,0,1,1.488,1.454v5.681Zm3.822-8.67v.013L24.889,45.267a1.15,1.15,0,0,1-.44.913c-.135.135-.44.2-.44.271V34.514a2.908,2.908,0,0,0-2.84-2.807H5.005l.3-2.638a1.556,1.556,0,0,1,.507-.879,1.555,1.555,0,0,1,1.014-.271l18.429,2.13A1.353,1.353,0,0,1,26.479,31.525Z" transform="translate(0 -26.576)" fill="#fff"/>
      </g>
    </g>
  </g>
</svg>
