<svg xmlns="http://www.w3.org/2000/svg" width="20.004" height="19.961" viewBox="0 0 20.004 19.961">
  <g id="bank" transform="translate(-2 -2.039)">
    <path id="Path_484" data-name="Path 484" d="M21.5,10.5A.5.5,0,0,0,22,10V8.5a.43.43,0,0,0,0-.05.3.3,0,0,0,0-.1.36.36,0,0,0,0-.09.35.35,0,0,0-.05-.08.46.46,0,0,1-.07-.07h0L16.44,4.74a5,5,0,0,0-8.88,0L2.23,8.08h0l-.08.07a.35.35,0,0,0-.05.08.36.36,0,0,0,0,.09.3.3,0,0,0,0,.1V10a.5.5,0,0,0,.5.5H3V18H2.5a.5.5,0,0,0-.5.5v3a.5.5,0,0,0,.5.5h19a.5.5,0,0,0,.5-.5v-3a.5.5,0,0,0-.5-.5H21V10.5ZM21,8.78V9.5H16.3A4.87,4.87,0,0,0,17,7a4.9,4.9,0,0,0-.08-.77ZM11,18V11.9a5.05,5.05,0,0,0,2,0V18ZM7,18a.43.43,0,0,0,0-.11V10.5H8.44A5,5,0,0,0,10,11.58V18Zm7-6.42a5,5,0,0,0,1.56-1.08H17v7.39A.43.43,0,0,0,17,18H14ZM12,3A4,4,0,1,1,8,7a4,4,0,0,1,4-4ZM7.7,9.5H3V8.78L7.08,6.23A4.78,4.78,0,0,0,7,7a4.87,4.87,0,0,0,.7,2.5ZM4,10.5H6v7.39A.43.43,0,0,0,6,18H4ZM21,21H3V19H21Zm-1-3H18a.43.43,0,0,0,0-.11V10.5h2Z" fill="#fff"/>
    <path id="Path_485" data-name="Path 485" d="M12,9a2,2,0,1,0-2-2A2,2,0,0,0,12,9Zm0-3a1,1,0,1,1-1,1A1,1,0,0,1,12,6Z" fill="#fff"/>
  </g>
</svg>
