<svg id="bathtube-with-shower" xmlns="http://www.w3.org/2000/svg" width="15.557" height="15.469" viewBox="0 0 15.557 15.469">
  <path id="Path_14" data-name="Path 14" d="M15.19,9.251h-.514V3.923a2.932,2.932,0,0,0-.671-2.092,2.156,2.156,0,0,0-1.627-.624A2.284,2.284,0,0,0,10.1,3.382,1.887,1.887,0,0,0,8.625,4.626a.712.712,0,0,0,.071.648.7.7,0,0,0,.609.27h2.419a.6.6,0,0,0,.512-.241.765.765,0,0,0,.065-.672A1.884,1.884,0,0,0,10.84,3.386a1.549,1.549,0,0,1,1.539-1.445c1.052,0,1.564.648,1.564,1.982V9.251H.367a.367.367,0,0,0,0,.734h.44v2.649a2.349,2.349,0,0,0,1.911,2.3,1.2,1.2,0,1,0,2.17.043H10.63A1.2,1.2,0,1,0,12.8,14.93a2.342,2.342,0,0,0,1.878-2.3V9.985h.514a.367.367,0,1,0,0-.734Zm-3.6-4.44H9.338a1.185,1.185,0,0,1,1.124-.726A1.2,1.2,0,0,1,11.587,4.811ZM3.793,15.942a.469.469,0,1,1,.47-.469A.47.47,0,0,1,3.793,15.942Zm7.932,0a.469.469,0,1,1,.47-.469A.47.47,0,0,1,11.725,15.942Zm2.218-5.884v2.576a1.6,1.6,0,0,1-1.6,1.607H3.167a1.618,1.618,0,0,1-1.626-1.607V9.985h12.4Z" transform="translate(0 -1.207)" fill="#333"/>
  <path id="Path_15" data-name="Path 15" d="M274.349,131.777a.349.349,0,0,0,.349-.349v-.147a.349.349,0,1,0-.7,0v.147A.349.349,0,0,0,274.349,131.777Z" transform="translate(-263.946 -126.173)" fill="#333"/>
  <path id="Path_16" data-name="Path 16" d="M274,159.428a.349.349,0,1,0,.7,0v-.147a.349.349,0,1,0-.7,0Z" transform="translate(-263.946 -153.146)" fill="#333"/>
  <path id="Path_17" data-name="Path 17" d="M274,188.465a.349.349,0,0,0,.7,0v-.183a.349.349,0,1,0-.7,0Z" transform="translate(-263.946 -181.082)" fill="#333"/>
  <path id="Path_18" data-name="Path 18" d="M246.974,133.886a.348.348,0,0,0,.446-.209l.044-.121a.349.349,0,0,0-.656-.237l-.044.121A.349.349,0,0,0,246.974,133.886Z" transform="translate(-237.691 -128.25)" fill="#333"/>
  <path id="Path_19" data-name="Path 19" d="M237.228,159.762l-.044.121a.349.349,0,1,0,.655.238l.044-.121a.349.349,0,1,0-.655-.238Z" transform="translate(-228.461 -153.723)" fill="#333"/>
  <path id="Path_20" data-name="Path 20" d="M227.412,187.873a.348.348,0,0,0,.446-.209l.044-.121a.349.349,0,1,0-.655-.238l-.044.121A.349.349,0,0,0,227.412,187.873Z" transform="translate(-218.847 -180.255)" fill="#333"/>
  <path id="Path_21" data-name="Path 21" d="M302.859,133.318a.349.349,0,0,0-.655.237l.044.121a.349.349,0,1,0,.656-.237Z" transform="translate(-291.095 -128.25)" fill="#333"/>
  <path id="Path_22" data-name="Path 22" d="M312.442,159.762a.349.349,0,1,0-.655.238l.044.121a.349.349,0,1,0,.655-.237Z" transform="translate(-300.326 -153.723)" fill="#333"/>
  <path id="Path_23" data-name="Path 23" d="M321.766,187.545l.044.121a.349.349,0,1,0,.655-.238l-.044-.121a.349.349,0,0,0-.655.238Z" transform="translate(-309.94 -180.257)" fill="#333"/>
</svg>
