<svg xmlns="http://www.w3.org/2000/svg" width="28.718" height="15.316" viewBox="0 0 28.718 15.316">
  <path id="bed" d="M28.24,0H26.325a.479.479,0,0,0-.479.479V3.4A4.872,4.872,0,0,0,22.5,2.393c-3.172,0-4.008,1.576-4.228,2.393H16.274V3.829a.959.959,0,0,0-.957-.957H13.4a.959.959,0,0,0-.957.957H2.393A1.437,1.437,0,0,0,.957,5.265V7.658H.479A.479.479,0,0,0,0,8.137v6.7a.479.479,0,0,0,.479.479H1.915a.478.478,0,0,0,.472-.4L2.8,12.445H25.92l.412,2.472a.478.478,0,0,0,.472.4H28.24a.479.479,0,0,0,.479-.479V.479A.479.479,0,0,0,28.24,0ZM22.5,3.35c2.243,0,2.984.868,3.229,1.436H19.267C19.513,4.217,20.255,3.35,22.5,3.35Zm3.35,2.393V7.658H16.274V5.744ZM13.4,3.829h1.915V7.658H13.4ZM1.915,5.265a.479.479,0,0,1,.479-.479H12.445V7.658H1.915ZM.957,8.615H25.846v2.872H.957Zm.552,5.744H.957V12.445h.871Zm26.252,0h-.552L26.8,11.926V.957h.957Zm0,0" fill="#333"/>
</svg>
