<?xml version="1.0" encoding="UTF-8"?>
<svg width="449px" height="449px" viewBox="0 0 449 449" version="1.1" xmlns="http://www.w3.org/2000/svg" xmlns:xlink="http://www.w3.org/1999/xlink">
    <!-- Generator: Sketch 52.6 (67491) - http://www.bohemiancoding.com/sketch -->
    <title>blue-search-heart</title>
    <desc>Created with Sketch.</desc>
    <g id="Page-1" stroke="none" stroke-width="1" fill="none" fill-rule="evenodd">
        <g id="blue-search-heart" transform="translate(2.000000, 2.000000)" fill="#3366CC" fill-rule="nonzero">
            <path d="M440.885146,421.089575 L334.812674,315.033299 L336.000987,313.628399 C401.851554,235.77568 394.597019,119.845431 319.554632,50.8093314 C244.512244,-18.2267681 128.380437,-15.80719 56.2786234,56.2946234 C-15.82319,128.396437 -18.2427681,244.528244 50.7933314,319.570632 C119.829431,394.613019 235.75968,401.867554 313.612399,336.016987 L315.017084,334.828856 L316.318106,336.129678 L421.077424,440.873424 C426.570728,446.179035 435.30261,446.103157 440.702884,440.702884 C446.099177,435.306591 446.17892,426.583598 440.885146,421.089575 Z M28.5677595,190.585954 L28.5677583,190.583758 C28.5677583,101.113629 101.097629,28.5837583 190.567758,28.5837583 C280.037887,28.5837583 352.567758,101.113629 352.567758,190.583758 C352.567758,280.053887 280.037887,352.583758 190.565562,352.583757 C101.137357,352.485548 28.6659686,280.014159 28.5677595,190.585954 Z" id="Shape" stroke="#FFFFFF" stroke-width="4"></path>
            <g id="blue-heart" transform="translate(94.000000, 106.000000)" stroke="#3366CC" stroke-width="8">
                <path d="M137.921875,4.04470025e-15 C122.413993,0.0180634241 107.603605,6.4568407 97,17.7906773 C81.2680247,0.974383087 56.8761189,-4.51087848 35.4762328,3.95518787 C14.0763467,12.4212542 0.0113281288,33.1205628 0,56.1651076 C0,112.087339 90.0584375,166.977347 93.96875,169.132873 C95.8901533,170.289042 98.2917217,170.289042 100.213125,169.132873 C103.941563,166.977347 194,112.087339 194,56.1651076 C193.966587,25.1598474 168.879118,0.0334649619 137.921875,4.04470025e-15 Z M97,156.776549 C81.3284375,146.757908 12.125,99.9435319 12.125,56.1651076 C12.1409601,36.9762831 24.5654293,20.0084906 42.8340752,14.2264776 C61.1027212,8.44446461 81.0062096,15.1804823 92.02875,30.8756294 C93.1643797,32.4900956 95.01302,33.45055 96.9848438,33.45055 C98.9566675,33.45055 100.805308,32.4900956 101.940938,30.8756294 C112.954833,15.1527581 132.875208,8.39648257 151.161343,14.1818362 C169.447479,19.9671898 181.877843,36.9585676 181.875,56.1651076 C181.875,99.9131724 112.671563,146.727549 97,156.776549 Z" id="Shape"></path>
            </g>
        </g>
    </g>
</svg>