<?xml version="1.0" encoding="utf-8"?>
<!-- Generator: Adobe Illustrator 24.3.0, SVG Export Plug-In . SVG Version: 6.00 Build 0)  -->
<svg version="1.1" id="Layer_1" xmlns="http://www.w3.org/2000/svg" xmlns:xlink="http://www.w3.org/1999/xlink" x="0px" y="0px"
	 viewBox="0 0 512 512" style="enable-background:new 0 0 512 512;" xml:space="preserve">
<style type="text/css">
	.st0{fill:#3366CC;}
</style>
<g>
	<g id="_x30_0-38-apps_x2C_-arrange_x2C_-array_x2C_-grid_x2C_-layout_x2C_-menu_x2C_-view">
		<path id="Shape" class="st0" d="M416,266.7H298.7c-18.3,0-32,15-32,32V416c0,18.1,15,32,32,32H416c18.3,0,32-15,32-32V298.7
			C448,280.5,433,266.7,416,266.7z M426.7,416c0,6.4-5.2,10.7-10.7,10.7H298.7c-6.4,0-10.7-5.2-10.7-10.7V298.7
			c0-6.2,5.2-10.7,10.7-10.7H416c6.5,0,10.7,5.2,10.7,10.7V416z M213.3,266.7H96c-18.3,0-32,15-32,32V416c0,18.1,15,32,32,32h117.3
			c18.3,0,32-15,32-32V298.7C245.3,280.5,230.4,266.7,213.3,266.7z M224,416c0,6.4-5.2,10.7-10.7,10.7H96c-6.4,0-10.7-5.2-10.7-10.7
			V298.7c0-6.2,5.2-10.7,10.7-10.7h117.3c6.5,0,10.7,5.2,10.7,10.7V416z M416,64H298.7c-18.3,0-32,15-32,32v117.3
			c0,18.1,15,32,32,32H416c18.3,0,32-15,32-32V96C448,77.9,433,64,416,64z M426.7,213.3c0,6.4-5.2,10.7-10.7,10.7H298.7
			c-6.4,0-10.7-5.2-10.7-10.7V96c0-6.2,5.2-10.7,10.7-10.7H416c6.5,0,10.7,5.2,10.7,10.7V213.3z M213.3,64H96c-18.3,0-32,15-32,32
			v117.3c0,18.1,15,32,32,32h117.3c18.3,0,32-15,32-32V96C245.3,77.9,230.4,64,213.3,64z M224,213.3c0,6.4-5.2,10.7-10.7,10.7H96
			c-6.4,0-10.7-5.2-10.7-10.7V96c0-6.2,5.2-10.7,10.7-10.7h117.3c6.5,0,10.7,5.2,10.7,10.7V213.3z"/>
		<path class="st0" d="M224,298.7V416c0,6.4-5.2,10.7-10.7,10.7H96c-6.4,0-10.7-5.2-10.7-10.7V298.7c0-6.2,5.2-10.7,10.7-10.7h117.3
			C219.8,288,224,293.2,224,298.7z"/>
		<path class="st0" d="M426.7,298.7V416c0,6.4-5.2,10.7-10.7,10.7H298.7c-6.4,0-10.7-5.2-10.7-10.7V298.7c0-6.2,5.2-10.7,10.7-10.7
			H416C422.5,288,426.7,293.2,426.7,298.7z"/>
		<path class="st0" d="M426.7,96v117.3c0,6.4-5.2,10.7-10.7,10.7H298.7c-6.4,0-10.7-5.2-10.7-10.7V96c0-6.2,5.2-10.7,10.7-10.7H416
			C422.5,85.3,426.7,90.5,426.7,96z"/>
		<path class="st0" d="M224,96v117.3c0,6.4-5.2,10.7-10.7,10.7H96c-6.4,0-10.7-5.2-10.7-10.7V96c0-6.2,5.2-10.7,10.7-10.7h117.3
			C219.8,85.3,224,90.5,224,96z"/>
	</g>
</g>
</svg>
