<?xml version="1.0"?>
<svg xmlns="http://www.w3.org/2000/svg" height="512" viewBox="0 0 48 48" width="512"><g><g id="00-38-apps,-arrange,-array,-grid,-layout,-menu,-view" fill="none" fill-rule="evenodd"><path id="Shape" d="m39 25c1.5976809 0 2.9949073 1.3006635 3 3v11c0 1.5976809-1.284494 3-3 3h-11c-1.5976809 0-2.9949073-1.3016253-3-3v-11c0-1.5976809 1.2882162-3 3-3zm-19 0c1.5976809 0 2.9949073 1.3006635 3 3v11c0 1.5976809-1.284494 3-3 3h-11c-1.59768088 0-2.99490731-1.3016253-3-3v-11c0-1.5976809 1.2882162-3 3-3zm19 2h-11c-.5128358 0-1 .4163921-1 1v11c0 .5128358.4027537 1 1 1h11c.5128358 0 1-.4027433 1-1v-11c0-.5128358-.3932747-1-1-1zm-19 0h-11c-.51283584 0-1 .4163921-1 1v11c0 .5128358.40275373 1 1 1h11c.5128358 0 1-.4027433 1-1v-11c0-.5128358-.3932747-1-1-1zm19-21c1.5976809 0 2.9949073 1.30066351 3 3v11c0 1.5976809-1.284494 3-3 3h-11c-1.5976809 0-2.9949073-1.3016253-3-3v-11c0-1.59768088 1.2882162-3 3-3zm-19 0c1.5976809 0 2.9949073 1.30066351 3 3v11c0 1.5976809-1.284494 3-3 3h-11c-1.59768088 0-2.99490731-1.3016253-3-3v-11c0-1.59768088 1.2882162-3 3-3zm19 2h-11c-.5128358 0-1 .41639213-1 1v11c0 .5128358.4027537 1 1 1h11c.5128358 0 1-.4027433 1-1v-11c0-.51283584-.3932747-1-1-1zm-19 0h-11c-.51283584 0-1 .41639213-1 1v11c0 .5128358.40275373 1 1 1h11c.5128358 0 1-.4027433 1-1v-11c0-.51283584-.3932747-1-1-1z" fill="rgb(0,0,0)" fill-rule="nonzero" data-original="#000000" class="active-path" style="fill:#3366CC" data-old_color="rgb(0,0,0)"/></g></g> </svg>
