<?xml version="1.0" encoding="UTF-8"?>
<svg width="518px" height="143px" viewBox="0 0 518 143" version="1.1" xmlns="http://www.w3.org/2000/svg" xmlns:xlink="http://www.w3.org/1999/xlink">
    <!-- Generator: Sketch 52.6 (67491) - http://www.bohemiancoding.com/sketch -->
    <title>blue-more</title>
    <desc>Created with Sketch.</desc>
    <g id="Page-1" stroke="none" stroke-width="1" fill="none" fill-rule="evenodd">
        <g id="blue-more" transform="translate(3.000000, 3.000000)" fill="#3366CC" fill-rule="nonzero" stroke="#3366CC" stroke-width="5">
            <path d="M68.2666667,0 C30.6261333,0 0,30.6261333 0,68.2666667 C0,105.9072 30.6261333,136.533333 68.2666667,136.533333 C105.9072,136.533333 136.533333,105.9072 136.533333,68.2666667 C136.533333,30.6261333 105.9072,0 68.2666667,0 Z M68.2666667,119.466667 C40.0298667,119.466667 17.0666667,96.5034667 17.0666667,68.2666667 C17.0666667,40.0298667 40.0298667,17.0666667 68.2666667,17.0666667 C96.5034667,17.0666667 119.466667,40.0298667 119.466667,68.2666667 C119.466667,96.5034667 96.5034667,119.466667 68.2666667,119.466667 Z" id="Shape"></path>
            <path d="M443.733333,0 C406.0928,0 375.466667,30.6261333 375.466667,68.2666667 C375.466667,105.9072 406.0928,136.533333 443.733333,136.533333 C481.373867,136.533333 512,105.9072 512,68.2666667 C512,30.6261333 481.373867,0 443.733333,0 Z M443.733333,119.466667 C415.496533,119.466667 392.533333,96.5034667 392.533333,68.2666667 C392.533333,40.0298667 415.496533,17.0666667 443.733333,17.0666667 C471.970133,17.0666667 494.933333,40.0298667 494.933333,68.2666667 C494.933333,96.5034667 471.970133,119.466667 443.733333,119.466667 Z" id="Shape"></path>
            <path d="M256,0 C218.359467,0 187.733333,30.6261333 187.733333,68.2666667 C187.733333,105.9072 218.359467,136.533333 256,136.533333 C293.640533,136.533333 324.266667,105.9072 324.266667,68.2666667 C324.266667,30.6261333 293.640533,0 256,0 Z M256,119.466667 C227.7632,119.466667 204.8,96.5034667 204.8,68.2666667 C204.8,40.0298667 227.7632,17.0666667 256,17.0666667 C284.2368,17.0666667 307.2,40.0298667 307.2,68.2666667 C307.2,96.5034667 284.2368,119.466667 256,119.466667 Z" id="Shape"></path>
        </g>
    </g>
</svg>