<?xml version="1.0" encoding="utf-8"?>
<!-- Generator: Adobe Illustrator 24.3.0, SVG Export Plug-In . SVG Version: 6.00 Build 0)  -->
<svg version="1.1" id="Layer_1" xmlns="http://www.w3.org/2000/svg" xmlns:xlink="http://www.w3.org/1999/xlink" x="0px" y="0px"
	 viewBox="0 0 512 512" style="enable-background:new 0 0 512 512;" xml:space="preserve">
<style type="text/css">
	.st0{fill:#3366CC;}
</style>
<g transform="matrix(-1 0 0 1 64 0)">
	<g>
		<g>
			<g>
				<path class="st0" d="M-147.2,415.2c-112,0-203.2-91.2-203.2-203.2C-351.2,99.2-260,8-147.2,8C-35.2,8,56,99.2,56,211.2
					C56,324-35.2,415.2-147.2,415.2z M-147.2,40"/>
			</g>
		</g>
	</g>
	<g>
		<g>
			<g>
				<path class="st0" d="M-424,504c-4,0-8-1.6-11.2-4.8c-6.4-6.4-6.4-16,0-22.4l144-144c6.4-6.4,16-6.4,22.4,0
					c6.4,6.4,6.4,16,0,22.4l-144,144C-416,502.4-420,504-424,504z"/>
			</g>
		</g>
	</g>
</g>
</svg>
