<?xml version="1.0" encoding="UTF-8"?>
<svg width="497px" height="496px" viewBox="0 0 497 496" version="1.1" xmlns="http://www.w3.org/2000/svg" xmlns:xlink="http://www.w3.org/1999/xlink">
    <!-- Generator: Sketch 52.6 (67491) - http://www.bohemiancoding.com/sketch -->
    <title>Group 4</title>
    <desc>Created with Sketch.</desc>
    <g id="Page-1" stroke="none" stroke-width="1" fill="none" fill-rule="evenodd">
        <g id="blue-search-hover">
            <g id="Group" transform="translate(248.500000, 248.000000) scale(-1, 1) translate(-248.500000, -248.000000) ">
                <g id="Group-4">
                    <g>
                        <path d="M293.205223,407.2 C181.205223,407.2 90.0052232,316 90.0052232,204 C89.2052232,91.2 180.405223,0 293.205223,0 C405.205223,0 496.405223,91.2 496.405223,203.2 C496.405223,316 405.205223,407.2 293.205223,407.2 Z" id="Path" fill="#3366CC"></path>
                        <path d="M16,496 C12,496 8,494.4 4.8,491.2 C-1.6,484.8 -1.6,475.2 4.8,468.8 L148.8,324.8 C155.2,318.4 164.8,318.4 171.2,324.8 C177.6,331.2 177.6,340.8 171.2,347.2 L27.2,491.2 C24,494.4 20,496 16,496 Z" id="Path" fill="#3366CC"></path>
                        <path d="M335.898438,116 C319.841992,116 304.492188,122.677419 293.5,134.421822 C271.554883,111.011575 234.80957,109.793928 211.372656,131.750854 C199.673828,142.709677 193,158.067742 193,174.132827 C193,232.029981 286.31582,288.827324 290.359375,291.066224 C292.361523,292.244592 294.834766,292.244592 296.836914,291.066224 C300.68418,288.827324 394,232.029981 394,174.132827 C393.960742,142.041935 367.97207,116.039279 335.898438,116 Z" id="Path" fill="#FFFFFF" transform="translate(293.500000, 203.975000) scale(-1, 1) translate(-293.500000, -203.975000) "></path>
                    </g>
                </g>
            </g>
        </g>
    </g>
</svg>