<?xml version="1.0"?>
<svg xmlns="http://www.w3.org/2000/svg" id="Layer_1" enable-background="new 0 0 64 64" height="512" viewBox="0 0 64 64" width="512"><g transform="matrix(-1 0 0 1 64 0)"><g><g><g><path d="m37.6 51.9c-14 0-25.4-11.4-25.4-25.4-.1-14.1 11.3-25.5 25.4-25.5 14 0 25.4 11.4 25.4 25.4 0 14.1-11.4 25.5-25.4 25.5zm0-46.9c-11.8 0-21.4 9.6-21.4 21.4s9.6 21.4 21.4 21.4 21.4-9.5 21.4-21.4-9.6-21.4-21.4-21.4z" data-original="#000000" class="active-path" style="fill:#3366CC" data-old_color="#000000"/></g></g></g><g><g><g><path d="m3 63c-.5 0-1-.2-1.4-.6-.8-.8-.8-2 0-2.8l18-18c.8-.8 2-.8 2.8 0s.8 2 0 2.8l-18 18c-.4.4-.9.6-1.4.6z" data-original="#000000" class="active-path" style="fill:#3366CC" data-old_color="#000000"/></g></g></g></g> </svg>
