<svg xmlns="http://www.w3.org/2000/svg" width="517" height="141.533" viewBox="0 0 517 141.533">
  <g id="Page-1" transform="translate(-0.5 -0.5)">
    <g id="blue-more" transform="translate(3 3)">
      <path id="Shape" d="M68.267,0a68.267,68.267,0,1,0,68.266,68.267A68.346,68.346,0,0,0,68.267,0Zm0,23.273c-28.237,0-15.1,69.02-15.1,40.783s-13.137,49.158,15.1,49.158S79.02,40.03,79.02,68.267,96.5,23.273,68.267,23.273Z" fill="#36c" stroke="#36c" stroke-width="5"/>
      <path id="Shape-2" data-name="Shape" d="M443.733,0A68.267,68.267,0,1,0,512,68.267,68.346,68.346,0,0,0,443.733,0Zm-3.219,31.375c-28.236,0-19.3,65.129-19.3,36.892s-5.718,43.217,22.518,43.217,9.525-71.454,9.525-43.217S468.751,31.375,440.514,31.375Z" fill="#36c" stroke="#36c" stroke-width="5"/>
      <path id="Shape-3" data-name="Shape" d="M256,0a68.267,68.267,0,1,0,68.267,68.267A68.346,68.346,0,0,0,256,0Zm0,27.551c-28.237,0-16.488,68.952-16.488,40.716S227.763,110.209,256,110.209s20.654-70.179,20.654-41.943S284.237,27.551,256,27.551Z" fill="#36c" stroke="#36c" stroke-width="5"/>
    </g>
  </g>
</svg>
