<svg xmlns="http://www.w3.org/2000/svg" width="17.319" height="21.796" viewBox="0 0 17.319 21.796">
  <path id="boy" d="M46.841,14.392a3.474,3.474,0,0,0-2.7-1.292H42.169V11.583a8,8,0,0,0,1.093-1.666A2.152,2.152,0,0,0,44.687,8.4c.36-1.02.2-1.935-.384-2.263A5.548,5.548,0,0,0,43.33,2.05a5.22,5.22,0,0,0-8.295,0,5.553,5.553,0,0,0-.977,4.077c-.6.317-.777,1.243-.413,2.276a2.083,2.083,0,0,0,1.44,1.518,6.629,6.629,0,0,0,1.14,1.75V13.1h-2A3.523,3.523,0,0,0,31.5,14.392a4.48,4.48,0,0,0-1,2.875v2.069a.56.56,0,0,0,.317.5,19.071,19.071,0,0,0,8.4,1.96,18.928,18.928,0,0,0,3.373-.3,16.4,16.4,0,0,0,4.97-1.676.538.538,0,0,0,.258-.481V17.266A4.462,4.462,0,0,0,46.841,14.392Zm-7.02,2.363a.381.381,0,0,1-.381.381h-.559a.381.381,0,0,1-.381-.381V16.2a.381.381,0,0,1,.381-.381h.559a.381.381,0,0,1,.381.381Zm.357-1.878a1.476,1.476,0,0,0-.707-.163H38.9a1.476,1.476,0,0,0-.707.163l-.926-.931a.583.583,0,0,0,.06-.263v-.991a3.11,3.11,0,0,0,1.834.617,3.279,3.279,0,0,0,1.908-.669v1.043a.618.618,0,0,0,.062.212ZM35.939,2.7a4.112,4.112,0,0,1,6.492,0,4.376,4.376,0,0,1,.756,3.368c-3.64.89-5.383-2.528-5.455-2.673a.556.556,0,0,0-1.048.153c0,.024-.4,2.16-1.5,2.53A4.372,4.372,0,0,1,35.939,2.7ZM34.582,7.223c1.538.122,2.454-1.2,2.857-2.265a7.2,7.2,0,0,0,.924.967,5.483,5.483,0,0,0,3.645,1.4,8.725,8.725,0,0,0,1.746-.18,1.735,1.735,0,0,1-.1.885,1.523,1.523,0,0,1-.513.773.556.556,0,0,0-.695.3C41.81,10.53,40.576,12.2,39.185,12.2s-2.629-1.671-3.263-3.1A.556.556,0,0,0,35.2,8.8a1.533,1.533,0,0,1-.511-.771A1.773,1.773,0,0,1,34.582,7.223ZM31.6,17.266A2.844,2.844,0,0,1,34.227,14.2H36l1.478,1.5a1.619,1.619,0,0,0-.075.476v.573a1.491,1.491,0,0,0,.451,1.066l-.493,2.769a18.3,18.3,0,0,1-5.755-1.6Zm6.885,3.4.424-2.427h.548l.425,2.43C39.438,20.683,38.971,20.684,38.486,20.664ZM46.719,19a16.284,16.284,0,0,1-4.384,1.407c-.414.074-.858.139-1.339.187l-.5-2.779a1.473,1.473,0,0,0,.43-1.065v-.573a1.613,1.613,0,0,0-.05-.476l1.5-1.5h1.769a2.807,2.807,0,0,1,2.576,3.066V19Z" transform="translate(-30.501)" fill="#fff"/>
</svg>
