<?xml version="1.0"?>
<svg xmlns="http://www.w3.org/2000/svg" id="Capa_1" enable-background="new 0 0 207.286 207.286" height="512px" viewBox="0 0 207.286 207.286" width="512px"><g><g><g id="_18"><path d="m199.843 207.258c-1.967.011-3.857-.761-5.254-2.146l-192.4-192.4c-2.902-2.902-2.902-7.606 0-10.508s7.606-2.902 10.508 0l192.4 192.4c2.902 2.878 2.921 7.563.043 10.465-.014.014-.029.029-.043.043-1.397 1.385-3.287 2.157-5.254 2.146z" data-original="#000000" class="active-path" data-old_color="#000000" fill="#3366CC"/><path d="m7.443 207.258c-1.967.011-3.857-.761-5.254-2.146-2.902-2.878-2.921-7.563-.043-10.465.014-.014.029-.029.043-.043l192.4-192.4c2.902-2.902 7.606-2.902 10.508 0s2.902 7.606 0 10.508l-192.4 192.4c-1.397 1.385-3.287 2.157-5.254 2.146z" data-original="#000000" class="active-path" data-old_color="#000000" fill="#3366CC"/></g></g></g> </svg>
