<svg xmlns="http://www.w3.org/2000/svg" width="34.039" height="19.5" viewBox="0 0 34.039 19.5">
  <g id="city" transform="translate(0 -104.011)">
    <path id="Path_118" data-name="Path 118" d="M47.473,190.683H45.331a.419.419,0,0,0-.419.419v2.937a.419.419,0,0,0,.419.419h2.142a.419.419,0,0,0,.419-.419V191.1A.419.419,0,0,0,47.473,190.683Zm-.419.839v.263h-1.3v-.263Zm-1.3,2.1v-1h1.3v1Z" transform="translate(-41.773 -80.614)"/>
    <path id="Path_119" data-name="Path 119" d="M109.24,194.46h2.142a.419.419,0,0,0,.419-.419V191.1a.419.419,0,0,0-.419-.419H109.24a.419.419,0,0,0-.419.419v2.937A.419.419,0,0,0,109.24,194.46Zm.419-.839v-1h1.3v1Zm1.3-2.1v.263h-1.3v-.263Z" transform="translate(-101.215 -80.615)"/>
    <path id="Path_120" data-name="Path 120" d="M47.473,255.468H45.331a.419.419,0,0,0-.419.419v2.937a.419.419,0,0,0,.419.419h2.142a.419.419,0,0,0,.419-.419v-2.937A.419.419,0,0,0,47.473,255.468Zm-.419.839v.263h-1.3v-.263Zm-1.3,2.1v-1h1.3v1Z" transform="translate(-41.773 -140.871)"/>
    <path id="Path_121" data-name="Path 121" d="M192.8,210.685h-2.142a.419.419,0,0,0-.419.419v2.937a.419.419,0,0,0,.419.419H192.8a.419.419,0,0,0,.419-.419V211.1A.419.419,0,0,0,192.8,210.685Zm-.419.839v.263h-1.3v-.263Zm-1.3,2.1v-1h1.3v1Z" transform="translate(-176.944 -99.218)"/>
    <path id="Path_122" data-name="Path 122" d="M256.709,210.685h-2.142a.419.419,0,0,0-.419.419v2.937a.419.419,0,0,0,.419.419h2.142a.419.419,0,0,0,.419-.419V211.1A.419.419,0,0,0,256.709,210.685Zm-.419.839v.263h-1.3v-.263Zm-1.3,2.1v-1h1.3v1Z" transform="translate(-236.385 -99.218)"/>
    <path id="Path_123" data-name="Path 123" d="M192.8,275.471h-2.142a.419.419,0,0,0-.419.419v2.937a.419.419,0,0,0,.419.419H192.8a.419.419,0,0,0,.419-.419V275.89A.419.419,0,0,0,192.8,275.471Zm-.419.839v.263h-1.3v-.263Zm-1.3,2.1v-1h1.3v1Z" transform="translate(-176.944 -159.476)"/>
    <path id="Path_124" data-name="Path 124" d="M335.986,234.6h2.142a.419.419,0,0,0,.419-.419v-2.937a.419.419,0,0,0-.419-.419h-2.142a.419.419,0,0,0-.419.419v2.937A.419.419,0,0,0,335.986,234.6Zm.419-.839v-1h1.3v1Zm1.3-2.1v.263h-1.3v-.263Z" transform="translate(-312.114 -117.948)"/>
    <path id="Path_125" data-name="Path 125" d="M399.894,234.6h2.142a.419.419,0,0,0,.419-.419v-2.937a.419.419,0,0,0-.419-.419h-2.142a.419.419,0,0,0-.419.419v2.937A.419.419,0,0,0,399.894,234.6Zm.419-.839v-1h1.3v1Zm1.3-2.1v.263h-1.3v-.263Z" transform="translate(-371.555 -117.948)"/>
    <path id="Path_126" data-name="Path 126" d="M335.986,299.383h2.142a.419.419,0,0,0,.419-.419v-2.937a.419.419,0,0,0-.419-.419h-2.142a.419.419,0,0,0-.419.419v2.937A.419.419,0,0,0,335.986,299.383Zm.419-.839v-1h1.3v1Zm1.3-2.1v.263h-1.3v-.263Z" transform="translate(-312.114 -178.205)"/>
    <path id="Path_127" data-name="Path 127" d="M33.676,122.676l-.745-.1V112.183h.549a.419.419,0,0,0,.419-.419v-4.528a.419.419,0,0,0-.419-.419H23.741v-.988a.419.419,0,0,0-.419-.419H13.584v-.978a.419.419,0,0,0-.419-.419H.56a.419.419,0,0,0-.419.419v4.528a.419.419,0,0,0,.419.419h.549V118.3l-.634-.085a.419.419,0,1,0-.112.831l33.2,4.457a.419.419,0,1,0,.112-.831Zm-1.584-.213-.457-.061v-.848a.419.419,0,0,0-.419-.419H30.9v-3.313a.419.419,0,0,0-.419-.419H28.339a.419.419,0,0,0-.419.419v3.313h-.315a.419.419,0,0,0-.419.419v.251l-4.412-.592v-9.03h9.318v10.281Zm-2.03-1.329h-1.3v-2.894h1.3Zm.734.839v.316l-2.355-.316ZM19.9,119.727H18.6v-2.894h1.3Zm.734.839v.36l-2.682-.36Zm.419-.839h-.315v-3.313a.419.419,0,0,0-.419-.419H18.182a.419.419,0,0,0-.419.419v3.313h-.315a.419.419,0,0,0-.419.419v.295l-4.412-.592v-9.073h9.319V121.1l-.458-.061v-.892A.419.419,0,0,0,21.058,119.727Zm2.683-9.37v-2.7H33.06v3.689H22.774v-.568h.548A.419.419,0,0,0,23.741,110.357Zm-10.157-1.4v-2.711H22.9v3.69H12.616v-.559h.548A.419.419,0,0,0,13.584,108.958ZM.979,104.85H12.745v3.689H.979Zm.968,4.528h9.83v10.359l-.458-.061v-.926a.419.419,0,0,0-.419-.419h-.315v-3.313a.419.419,0,0,0-.419-.419H8.025a.419.419,0,0,0-.419.419v3.313H7.291a.419.419,0,0,0-.419.419v.329l-4.924-.661v-9.039Zm7.8,8.951h-1.3v-2.894h1.3Zm-2.037.839h2.771v.394L7.71,119.19v-.022Z" transform="translate(0)"/>
  </g>
</svg>
