<svg xmlns="http://www.w3.org/2000/svg" width="21.287" height="20.365" viewBox="0 0 21.287 20.365">
  <g id="commercial-buldings" transform="translate(0 0)">
    <g id="Group_21" data-name="Group 21">
      <path id="Path_35" data-name="Path 35" d="M20.653,27.959h-.634V11.183a2.227,2.227,0,0,0-2.113-2.322H12.1a2.227,2.227,0,0,0-2.113,2.322v3.081a2.307,2.307,0,0,0-.528-.068H3.645a2.019,2.019,0,0,0-2.113,1.9V27.959h-.9a.634.634,0,0,0,0,1.268H20.653a.634.634,0,0,0,0-1.268ZM3.222,16.1c0-.062.148-.214.423-.214h5.81c.274,0,.423.152.423.214V27.959H3.222Zm8.451-4.918c0-.372.223-.631.423-.631h5.81c.2,0,.423.259.423.631V27.959H11.673Z" transform="translate(0 -8.861)" fill="#333"/>
      <path id="Path_36" data-name="Path 36" d="M238.6,55.12h-1.045a.612.612,0,0,0-.612.612v1.045a.612.612,0,0,0,.612.612H238.6a.612.612,0,0,0,.612-.612V55.732A.612.612,0,0,0,238.6,55.12Z" transform="translate(-224.623 -52.715)" fill="#333"/>
      <path id="Path_37" data-name="Path 37" d="M238.6,112.02h-1.045a.612.612,0,0,0-.612.612v1.045a.612.612,0,0,0,.612.612H238.6a.612.612,0,0,0,.612-.612v-1.045A.612.612,0,0,0,238.6,112.02Z" transform="translate(-224.623 -106.657)" fill="#333"/>
      <path id="Path_38" data-name="Path 38" d="M238.6,168.92h-1.045a.612.612,0,0,0-.612.612v1.045a.612.612,0,0,0,.612.612H238.6a.612.612,0,0,0,.612-.612v-1.045A.612.612,0,0,0,238.6,168.92Z" transform="translate(-224.623 -160.599)" fill="#333"/>
      <path id="Path_39" data-name="Path 39" d="M298.2,55.12h-1.045a.612.612,0,0,0-.612.612v1.045a.612.612,0,0,0,.612.612H298.2a.612.612,0,0,0,.612-.612V55.732A.612.612,0,0,0,298.2,55.12Z" transform="translate(-281.131 -52.715)" fill="#333"/>
      <path id="Path_40" data-name="Path 40" d="M298.2,112.02h-1.045a.612.612,0,0,0-.612.612v1.045a.612.612,0,0,0,.612.612H298.2a.612.612,0,0,0,.612-.612v-1.045A.612.612,0,0,0,298.2,112.02Z" transform="translate(-281.131 -106.657)" fill="#333"/>
      <path id="Path_41" data-name="Path 41" d="M298.2,168.92h-1.045a.612.612,0,0,0-.612.612v1.045a.612.612,0,0,0,.612.612H298.2a.612.612,0,0,0,.612-.612v-1.045A.612.612,0,0,0,298.2,168.92Z" transform="translate(-281.131 -160.599)" fill="#333"/>
      <path id="Path_42" data-name="Path 42" d="M238.6,225.82h-1.045a.612.612,0,0,0-.612.612v1.045a.612.612,0,0,0,.612.612H238.6a.612.612,0,0,0,.612-.612v-1.045A.612.612,0,0,0,238.6,225.82Z" transform="translate(-224.623 -214.541)" fill="#333"/>
      <path id="Path_43" data-name="Path 43" d="M238.6,282.72h-1.045a.612.612,0,0,0-.612.612v1.045a.612.612,0,0,0,.612.612H238.6a.612.612,0,0,0,.612-.612v-1.045A.612.612,0,0,0,238.6,282.72Z" transform="translate(-224.623 -268.483)" fill="#333"/>
      <path id="Path_44" data-name="Path 44" d="M298.2,225.82h-1.045a.612.612,0,0,0-.612.612v1.045a.612.612,0,0,0,.612.612H298.2a.612.612,0,0,0,.612-.612v-1.045A.612.612,0,0,0,298.2,225.82Z" transform="translate(-281.131 -214.541)" fill="#333"/>
      <path id="Path_45" data-name="Path 45" d="M298.2,282.72h-1.045a.612.612,0,0,0-.612.612v1.045a.612.612,0,0,0,.612.612H298.2a.612.612,0,0,0,.612-.612v-1.045A.612.612,0,0,0,298.2,282.72Z" transform="translate(-281.131 -268.483)" fill="#333"/>
      <path id="Path_46" data-name="Path 46" d="M76.026,168.92H74.981a.612.612,0,0,0-.612.612v1.045a.612.612,0,0,0,.612.612h1.045a.612.612,0,0,0,.612-.612v-1.045A.612.612,0,0,0,76.026,168.92Z" transform="translate(-70.503 -160.599)" fill="#333"/>
      <path id="Path_47" data-name="Path 47" d="M135.632,168.92h-1.045a.612.612,0,0,0-.612.612v1.045a.612.612,0,0,0,.612.612h1.045a.612.612,0,0,0,.612-.612v-1.045A.612.612,0,0,0,135.632,168.92Z" transform="translate(-127.01 -160.599)" fill="#333"/>
      <path id="Path_48" data-name="Path 48" d="M76.026,225.82H74.981a.612.612,0,0,0-.612.612v1.045a.612.612,0,0,0,.612.612h1.045a.612.612,0,0,0,.612-.612v-1.045A.612.612,0,0,0,76.026,225.82Z" transform="translate(-70.503 -214.541)" fill="#333"/>
      <path id="Path_49" data-name="Path 49" d="M76.026,282.72H74.981a.612.612,0,0,0-.612.612v1.045a.612.612,0,0,0,.612.612h1.045a.612.612,0,0,0,.612-.612v-1.045A.612.612,0,0,0,76.026,282.72Z" transform="translate(-70.503 -268.483)" fill="#333"/>
      <path id="Path_50" data-name="Path 50" d="M135.632,225.82h-1.045a.612.612,0,0,0-.612.612v1.045a.612.612,0,0,0,.612.612h1.045a.612.612,0,0,0,.612-.612v-1.045A.612.612,0,0,0,135.632,225.82Z" transform="translate(-127.01 -214.541)" fill="#333"/>
      <path id="Path_51" data-name="Path 51" d="M135.632,282.72h-1.045a.612.612,0,0,0-.612.612v1.045a.612.612,0,0,0,.612.612h1.045a.612.612,0,0,0,.612-.612v-1.045A.612.612,0,0,0,135.632,282.72Z" transform="translate(-127.01 -268.483)" fill="#333"/>
    </g>
  </g>
</svg>
