<svg id="_5872b1062ee07b079e81f1bc271d5135" data-name="5872b1062ee07b079e81f1bc271d5135" xmlns="http://www.w3.org/2000/svg" width="20.341" height="17.161" viewBox="0 0 20.341 17.161">
  <path id="Path_458" data-name="Path 458" d="M27.925,86.6H12.416A2.344,2.344,0,0,0,10,88.983v12.4a2.344,2.344,0,0,0,2.416,2.383H27.925a2.356,2.356,0,0,0,2.416-2.383v-12.4A2.356,2.356,0,0,0,27.925,86.6Zm1.463,14.779a1.422,1.422,0,0,1-1.461,1.43H12.416a1.41,1.41,0,0,1-1.461-1.43v-12.4a1.41,1.41,0,0,1,1.461-1.43H27.925a1.41,1.41,0,0,1,1.461,1.43v12.4ZM26.5,89.46H23.6a1.41,1.41,0,0,0-1.461,1.43v2.383A1.41,1.41,0,0,0,23.6,94.7H26.02c0-.031,1.461,0,1.461-1.43V90.89C27.45,90.89,27.45,89.46,26.5,89.46Zm0,3.813a.468.468,0,0,1-.477.477H23.6a.468.468,0,0,1-.477-.477V90.89a.468.468,0,0,1,.477-.477H26.02a.468.468,0,0,1,.477.477v2.383Zm-5.339,3.815H13.4a.477.477,0,1,0,0,.955h7.755a.49.49,0,0,0,.477-.477A.468.468,0,0,0,21.157,97.088Zm0,2.383H13.4a.477.477,0,1,0,0,.955h7.755a.49.49,0,0,0,.477-.477A.468.468,0,0,0,21.157,99.471Z" transform="translate(-10 -86.6)" fill="#fff"/>
</svg>
