<svg id="dashboard_2_" data-name="dashboard (2)" xmlns="http://www.w3.org/2000/svg" width="17.232" height="17.232" viewBox="0 0 17.232 17.232">
  <path id="Path_449" data-name="Path 449" d="M6.642,5.744H1.256A1.258,1.258,0,0,1,0,4.488V1.256A1.258,1.258,0,0,1,1.256,0H6.642A1.258,1.258,0,0,1,7.9,1.256V4.488A1.258,1.258,0,0,1,6.642,5.744ZM1.256,1.077a.18.18,0,0,0-.179.179V4.488a.18.18,0,0,0,.179.18H6.642a.18.18,0,0,0,.18-.18V1.256a.18.18,0,0,0-.18-.179Zm0,0" fill="#fff"/>
  <path id="Path_450" data-name="Path 450" d="M6.642,223.384H1.256A1.258,1.258,0,0,1,0,222.128v-7.539a1.258,1.258,0,0,1,1.256-1.257H6.642A1.258,1.258,0,0,1,7.9,214.589v7.539A1.258,1.258,0,0,1,6.642,223.384Zm-5.385-8.975a.18.18,0,0,0-.179.18v7.539a.18.18,0,0,0,.179.179H6.642a.18.18,0,0,0,.18-.179v-7.539a.18.18,0,0,0-.18-.18Zm0,0" transform="translate(0 -206.152)" fill="#fff"/>
  <path id="Path_451" data-name="Path 451" d="M283.974,347.076h-5.385a1.258,1.258,0,0,1-1.257-1.257v-3.231a1.258,1.258,0,0,1,1.257-1.257h5.385a1.258,1.258,0,0,1,1.257,1.257v3.231A1.258,1.258,0,0,1,283.974,347.076Zm-5.385-4.667a.18.18,0,0,0-.18.18v3.231a.18.18,0,0,0,.18.179h5.385a.18.18,0,0,0,.179-.179v-3.231a.18.18,0,0,0-.179-.18Zm0,0" transform="translate(-267.998 -329.844)" fill="#fff"/>
  <path id="Path_452" data-name="Path 452" d="M283.974,10.052h-5.385A1.258,1.258,0,0,1,277.332,8.8V1.256A1.258,1.258,0,0,1,278.589,0h5.385a1.258,1.258,0,0,1,1.257,1.256V8.8A1.258,1.258,0,0,1,283.974,10.052Zm-5.385-8.975a.18.18,0,0,0-.18.179V8.8a.18.18,0,0,0,.18.18h5.385a.18.18,0,0,0,.179-.18V1.256a.18.18,0,0,0-.179-.179Zm0,0" transform="translate(-267.998)" fill="#fff"/>
</svg>
