<svg id="expand" xmlns="http://www.w3.org/2000/svg" width="314.028" height="314.026" viewBox="0 0 314.028 314.026">
  <g id="rec" transform="translate(72.351 72.35)">
    <g id="Group_12" data-name="Group 12">
      <path id="Path_7" data-name="Path 7" d="M84.663,0a84.663,84.663,0,1,0,84.663,84.663A84.663,84.663,0,0,0,84.663,0Zm0,148.161a63.5,63.5,0,1,1,63.5-63.5A63.5,63.5,0,0,1,84.663,148.161Z"/>
    </g>
  </g>
  <g id="Group_4" data-name="Group 4">
    <g id="Group_3" data-name="Group 3">
      <path id="Path_2" data-name="Path 2" d="M79.872,70.051,23.347,13.838H47.036a6.859,6.859,0,0,0,6.793-6.919A6.859,6.859,0,0,0,47.036,0H6.792A6.86,6.86,0,0,0,0,6.92V47.764a6.859,6.859,0,0,0,6.792,6.919,6.855,6.855,0,0,0,6.793-6.919V23.473l56.8,56.479a6.705,6.705,0,0,0,9.605-.116A7.012,7.012,0,0,0,79.872,70.051Z" fill="#fff"/>
    </g>
  </g>
  <g id="Group_6" data-name="Group 6" transform="translate(546.135 81.922) rotate(-180)">
    <g id="Group_5" data-name="Group 5">
      <path id="Path_3" data-name="Path 3" d="M307.234,0H266.991A6.859,6.859,0,0,0,260.2,6.921a6.859,6.859,0,0,0,6.792,6.919H290.68L234.155,70.051a7.011,7.011,0,0,0-.116,9.784,6.705,6.705,0,0,0,9.6.116l56.8-56.479V47.765a6.794,6.794,0,1,0,13.586,0V6.921A6.861,6.861,0,0,0,307.234,0Z" fill="#fff"/>
    </g>
  </g>
  <g id="Group_8" data-name="Group 8">
    <g id="Group_7" data-name="Group 7" transform="translate(81.919 546.133) rotate(180)">
      <path id="Path_4" data-name="Path 4" d="M79.988,234.193a6.7,6.7,0,0,0-9.605-.118l-56.8,56.479V266.263a6.855,6.855,0,0,0-6.793-6.919A6.859,6.859,0,0,0,0,266.263v40.844a6.859,6.859,0,0,0,6.792,6.919H47.035a6.92,6.92,0,0,0,0-13.838H23.347l56.525-56.211A7.011,7.011,0,0,0,79.988,234.193Z" fill="#fff"/>
    </g>
  </g>
  <g id="Group_10" data-name="Group 10">
    <g id="Group_9" data-name="Group 9">
      <path id="Path_5" data-name="Path 5" d="M307.234,259.344a6.855,6.855,0,0,0-6.793,6.919v24.291l-56.8-56.479a6.7,6.7,0,0,0-9.6.118,7.011,7.011,0,0,0,.116,9.784l56.525,56.211H266.99a6.92,6.92,0,0,0,0,13.838h40.243a6.859,6.859,0,0,0,6.793-6.919V266.263A6.858,6.858,0,0,0,307.234,259.344Z" fill="#fff"/>
    </g>
  </g>
  <g id="email_1_" data-name="email (1)" transform="translate(70.03 70.96)">
    <g id="Group_13" data-name="Group 13" transform="translate(0.001)">
      <path id="Path_8" data-name="Path 8" d="M87.365,0a87.366,87.366,0,1,0,87.367,87.366A87.366,87.366,0,0,0,87.365,0Zm0,30.687,51.7,32.239H35.667Zm52.344,83.719h-.005a9.36,9.36,0,0,1-9.361,9.361H44.389a9.36,9.36,0,0,1-9.361-9.361V64.977a9.311,9.311,0,0,1,.147-1.6l49.4,30.8c.061.038.125.063.188.1s.132.071.2.1a5.185,5.185,0,0,0,1.076.42c.038.01.076.015.114.024a5.329,5.329,0,0,0,1.219.154h.009a5.233,5.233,0,0,0,1.219-.154c.038-.009.076-.013.114-.024a5.236,5.236,0,0,0,1.076-.42c.066-.033.133-.068.2-.1s.127-.061.188-.1l49.4-30.8a9.3,9.3,0,0,1,.147,1.6v49.43Z" transform="translate(-0.001)" fill="#fff"/>
    </g>
  </g>
</svg>
