<?xml version="1.0" encoding="UTF-8"?>
<svg width="480px" height="480px" viewBox="0 0 480 480" version="1.1" xmlns="http://www.w3.org/2000/svg" xmlns:xlink="http://www.w3.org/1999/xlink">
    <!-- Generator: Sketch 52.6 (67491) - http://www.bohemiancoding.com/sketch -->
    <title>family</title>
    <desc>Created with Sketch.</desc>
    <g id="Page-1" stroke="none" stroke-width="1" fill="none" fill-rule="evenodd">
        <g id="family" fill="#77829A" fill-rule="nonzero">
            <path d="M464,448 L432,448 L432,192 L464,192 C470.952861,191.996769 477.1078,187.503604 479.229447,180.882358 C481.351093,174.261111 478.953754,167.02754 473.2976,162.984 L416,122.0576 L416,16 C416,7.163444 408.836556,0 400,0 L336,0 C327.163444,0 320,7.163444 320,16 L320,53.4864 L249.2976,2.984 C243.734298,-0.984167719 236.265702,-0.984167719 230.7024,2.984 L6.7024,162.984 C1.04624605,167.02754 -1.35109337,174.261111 0.770553344,180.882358 C2.89220006,187.503604 9.0471388,191.996769 16,192 L48,192 L48,448 L16,448 C7.163444,448 0,455.163444 0,464 C-1.77635684e-15,472.836556 7.163444,480 16,480 L464,480 C472.836556,480 480,472.836556 480,464 C480,455.163444 472.836556,448 464,448 Z M352,32 L384,32 L384,99.1872 C373.8608,91.9632 380.7552,96.8832 352,76.344 L352,32 Z M240,35.656 L414.08,160 L65.92,160 L240,35.656 Z M80,448 L80,192 L400,192 L400,448 L80,448 Z" id="Shape"></path>
            <path d="M321.985379,252.606243 C312.003324,241.142634 297.183196,235.035364 281.989967,236.124418 C266.796737,237.213471 253.006723,245.37152 244.774545,258.140727 C243.022089,260.614585 241.425088,263.194199 239.992713,265.864757 C238.560481,263.194117 236.963475,260.614494 235.210881,258.140727 C226.978704,245.37152 213.188689,237.213471 197.995459,236.124418 C182.80223,235.035364 167.982102,241.142634 158.000047,252.606243 C148.789551,263.318402 143.814077,277.00825 144.005315,291.112278 C144.58474,308.526167 151.570819,325.119827 163.633732,337.734608 C178.79671,354.198916 195.209376,369.475773 212.72625,383.429768 C220.156701,389.734516 227.837698,396.267491 236.019784,403.399559 L236.263171,403.613521 C238.384322,405.46216 241.550995,405.46216 243.672146,403.613521 L243.915533,403.399559 C252.097619,396.267491 259.778616,389.748781 267.209067,383.429768 C284.748345,369.478528 301.182632,354.201594 316.366011,337.734608 C328.420279,325.128538 335.405647,308.54926 335.994428,291.147939 C336.190432,277.029841 331.209245,263.3256 321.985379,252.606243 Z M259.058143,374.92331 C252.63067,380.365567 246.016477,385.972093 239.050388,392 C232.077118,385.972093 225.462925,380.365567 219.035452,374.92331 C179.867363,341.748392 154.006658,319.850804 154.006658,291.018266 C153.814026,279.61827 157.80736,268.539513 165.238577,259.857413 C172.446344,251.627648 182.904626,246.9332 193.878537,247.001686 C206.526641,247.304927 218.196545,253.838529 225.01767,264.43548 C228.70204,269.687947 231.604594,275.441911 233.635511,281.519312 C234.394841,283.826351 236.559218,285.386645 239.000117,285.386645 C241.441017,285.386645 243.605393,283.826351 244.364724,281.519312 C246.395733,275.441949 249.298281,269.687998 252.982565,264.43548 C259.244676,254.452064 269.904075,248.021661 281.70022,247.111229 C293.496365,246.200797 305.025728,250.918662 312.761657,259.821702 C320.189581,268.50009 324.182699,279.573168 323.993577,290.968271 C324.043848,319.850804 298.183143,341.748392 259.058143,374.92331 Z" id="Path_178" stroke="#77829A" stroke-width="9"></path>
        </g>
    </g>
</svg>