<?xml version="1.0" encoding="UTF-8"?>
<svg width="48px" height="48px" viewBox="0 0 48 48" version="1.1" xmlns="http://www.w3.org/2000/svg" xmlns:xlink="http://www.w3.org/1999/xlink">
    <!-- Generator: Sketch 52.6 (67491) - http://www.bohemiancoding.com/sketch -->
    <title>iconfinder_Like_372916</title>
    <desc>Created with Sketch.</desc>
    <g id="Page-1" stroke="none" stroke-width="1" fill="none" fill-rule="evenodd">
        <g id="iconfinder_Like_372916" fill="#77829A" fill-rule="nonzero">
            <path d="M24,0 C10.745,0 0,10.745 0,24 C0,37.253 10.745,48 24,48 C37.255,48 48,37.254 48,24 C48,10.745 37.255,0 24,0 Z M24.152,44.254 C13.015,44.254 3.987,35.227 3.987,24.09 C3.987,12.953 13.015,3.925 24.152,3.925 C35.288,3.925 44.316,12.953 44.316,24.09 C44.316,35.227 35.288,44.254 24.152,44.254 Z" id="Shape"></path>
            <path d="M30.043,14.024 C27.857,14.024 25.959,15.194 24.897,16.932 C24.883,16.95 24.875,16.952 24.859,16.973 C24.38,17.661 23.759,16.973 23.759,16.973 L23.758,16.973 C23.48,16.618 23.164,16.229 22.944,15.999 C22.923,15.978 22.907,15.976 22.888,15.96 C21.739,14.655 20.071,13.82 18.195,13.82 C15.368,13.82 12.978,15.688 12.19,18.258 C12.011,18.828 11.914,19.437 11.914,20.067 C11.914,20.073 11.915,20.078 11.915,20.083 C11.915,20.09 11.914,20.097 11.914,20.103 C11.914,21.245 12.224,22.312 12.756,23.234 C12.792,23.318 12.838,23.402 12.875,23.486 C13.101,23.926 13.678,24.912 14.848,26.105 C16.553,27.861 19.291,30.625 20.369,31.388 C21.606,32.263 22.951,33.187 24.375,34.181 C26.067,33.191 27.564,32.095 28.863,31.017 C33.965,26.388 35.267,23.242 35.428,22.812 C35.435,22.794 35.443,22.774 35.449,22.756 C35.749,22.154 35.953,21.497 36.037,20.802 C36.04,20.79 36.042,20.78 36.042,20.78 C36.042,20.78 36.041,20.78 36.04,20.78 C36.068,20.547 36.086,20.31 36.086,20.068 C36.086,16.73 33.381,14.024 30.043,14.024 Z M32.707,21.841 C32.707,21.841 30.094,27.258 24.375,30.976 C24.375,30.976 22.354,29.699 20.088,27.523 C20.083,27.519 20.079,27.517 20.074,27.513 C17.764,25.497 15.515,22.787 15.515,22.787 L15.529,22.781 C15.023,22.15 14.708,21.359 14.708,20.488 C14.708,18.451 16.359,16.8 18.396,16.8 C19.456,16.8 20.403,17.252 21.076,17.967 L21.079,17.96 L23.534,20.257 C23.534,20.257 24.371,21.087 25.35,20.257 C25.365,20.245 25.376,20.237 25.39,20.227 C26.314,19.42 27.237,18.695 27.862,18.224 L28.149,17.982 C28.167,17.967 28.184,17.952 28.203,17.937 L28.248,17.9 L28.252,17.906 C28.373,17.812 28.502,17.728 28.636,17.652 L28.637,17.652 C29.066,17.411 29.556,17.268 30.084,17.268 C31.764,17.268 33.126,18.63 33.126,20.31 C33.126,20.871 32.964,21.388 32.699,21.839 C32.7,21.84 32.707,21.841 32.707,21.841 Z" id="Shape"></path>
        </g>
    </g>
</svg>