<?xml version="1.0" encoding="UTF-8"?>
<svg width="394px" height="345px" viewBox="0 0 394 345" version="1.1" xmlns="http://www.w3.org/2000/svg" xmlns:xlink="http://www.w3.org/1999/xlink">
    <!-- Generator: Sketch 52.6 (67491) - http://www.bohemiancoding.com/sketch -->
    <title>favourites-heart-home</title>
    <desc>Created with Sketch.</desc>
    <g id="Page-1" stroke="none" stroke-width="1" fill="none" fill-rule="evenodd">
        <g id="Group" fill="#77829A">
            <g id="favourites-heart-home">
                <path d="M197,345 L190.405858,339.222488 C40.3891213,217.069378 0,174.150718 0,103.995215 C0,46.2200957 46.9832636,0 103.857741,0 C151.665272,0 178.866109,27.2368421 197,47.8708134 C215.133891,27.2368421 242.334728,0 290.142259,0 C347.841004,0 394,47.0454545 394,103.995215 C394,174.150718 353.610879,217.069378 203.594142,339.222488 L197,345 Z M103.394366,22 C58.0774648,22 21,59.0810056 21,104.402235 C21,164.555866 58.9014085,204.108939 196.5,317 C334.098592,204.108939 372,164.555866 372,104.402235 C372,59.0810056 334.922535,22 289.605634,22 C248.408451,22 226.161972,46.7206704 208.859155,66.4972067 L196.5,80.5055866 L184.140845,66.4972067 C166.838028,46.7206704 144.591549,22 103.394366,22 Z" id="Fill-18" fill-rule="nonzero"></path>
                <path d="M262.353562,166.038328 L205.954735,109.496268 C201.293454,104.836827 193.713757,104.830217 189.042861,109.502602 L132.644584,166.038328 C129.118472,169.572706 129.118472,175.305983 132.644584,178.840361 C136.172893,182.377218 141.888023,182.377218 145.415783,178.840361 L153.060865,171.17506 L153.060865,230.353652 C153.060865,235.68097 157.369122,239.999725 162.683702,239.999725 L183.240368,239.999725 L183.240368,213.113885 C183.240368,211.025151 184.928836,209.329432 187.015931,209.329432 L207.99183,209.329432 C210.077002,209.329432 211.766294,211.025151 211.766294,213.113885 L211.766294,240 L232.319389,240 C237.634243,240 241.942226,235.681245 241.942226,230.353927 L241.942226,171.180018 L249.582912,178.840637 C251.348028,180.609065 253.657927,181.492866 255.968374,181.492866 C258.278273,181.492866 260.588995,180.609065 262.353562,178.840637 C265.882146,175.305983 265.882146,169.572982 262.353562,166.038328 Z" id="Path"></path>
            </g>
        </g>
    </g>
</svg>