<svg xmlns="http://www.w3.org/2000/svg" width="19.529" height="18.902" viewBox="0 0 19.529 18.902">
  <g id="Page-1" transform="translate(0.5 0.5)">
    <g id="heart-on">
      <path id="Path" d="M19.449,5.681a5.185,5.185,0,0,0-9.265-3.206A5.185,5.185,0,0,0,.92,5.681c0,5.1,9.265,12.565,9.265,12.565S19.449,10.554,19.449,5.681Z" transform="translate(-0.92 -0.49)" fill="#020203" stroke="#8b8d90" stroke-width="1" fill-rule="evenodd" opacity="0.5"/>
      <path id="Path-2" data-name="Path" d="M19.449,5.681a5.185,5.185,0,0,0-9.265-3.206A5.185,5.185,0,0,0,.92,5.681c0,5.1,9.265,12.565,9.265,12.565S19.449,10.554,19.449,5.681Z" transform="translate(-0.92 -0.49)" fill="rgba(18,1,1,0.24)" stroke="#fff" stroke-width="1" fill-rule="evenodd"/>
    </g>
  </g>
</svg>
