<svg xmlns="http://www.w3.org/2000/svg" width="26.91" height="20.202" viewBox="0 0 26.91 20.202">
  <g id="filter" transform="translate(-297.646 -78.354)">
    <g id="Group_141" data-name="Group 141" transform="translate(324.556 78.354) rotate(90)">
      <g id="filter-2" data-name="filter" transform="translate(0 26.91) rotate(-90)">
        <path id="Path_69" data-name="Path 69" d="M26.069,2.533h-7.49a3.358,3.358,0,0,0-6.509,0H.841a.841.841,0,1,0,0,1.682H12.07a3.358,3.358,0,0,0,6.509,0h7.49a.841.841,0,1,0,0-1.682ZM15.324,5.065a1.692,1.692,0,1,1,1.692-1.692A1.694,1.694,0,0,1,15.324,5.065Z" transform="translate(0 13.455)" fill="#fff"/>
        <path id="Path_70" data-name="Path 70" d="M.841,4.215h1.8a3.358,3.358,0,0,0,6.509,0H26.069a.841.841,0,1,0,0-1.682H9.151a3.358,3.358,0,0,0-6.509,0H.841a.841.841,0,1,0,0,1.682ZM5.9,1.682A1.692,1.692,0,1,1,4.2,3.374,1.694,1.694,0,0,1,5.9,1.682Z" transform="translate(0 6.728)" fill="#fff"/>
        <path id="Path_71" data-name="Path 71" d="M.841,4.215H17.135a3.357,3.357,0,0,0,6.508,0h2.426a.841.841,0,1,0,0-1.682H23.643a3.357,3.357,0,0,0-6.508,0H.841a.841.841,0,1,0,0,1.682ZM20.388,1.682A1.692,1.692,0,1,1,18.7,3.374,1.694,1.694,0,0,1,20.388,1.682Z" transform="translate(0 0)" fill="#fff"/>
      </g>
    </g>
  </g>
</svg>
