<svg xmlns="http://www.w3.org/2000/svg" width="12.891" height="18.438" viewBox="0 0 12.891 18.438">
  <g id="gmail" transform="translate(-3.603)">
    <path id="Path_430" data-name="Path 430" d="M14.819.891H13.19l.546.443a3.739,3.739,0,0,1,.617.67,4.1,4.1,0,0,1,.5.928,3.336,3.336,0,0,1,.2,1.205,3.185,3.185,0,0,1-.194,1.155,3.687,3.687,0,0,1-.495.911,4.012,4.012,0,0,1-.7.725l-.816.624c-.168.166-.332.338-.5.519a.975.975,0,0,0-.244.68.8.8,0,0,0,.286.647,4.907,4.907,0,0,0,.525.388l.941.681c.259.223.5.448.737.676a5.238,5.238,0,0,1,.627.737,3.405,3.405,0,0,1,.432.874,3.535,3.535,0,0,1,.153,1.1,3.6,3.6,0,0,1-.424,1.684,4.474,4.474,0,0,1-1.261,1.469,6.549,6.549,0,0,1-2.071,1.041,9.495,9.495,0,0,1-2.854.39,9.24,9.24,0,0,1-2.469-.291,5.765,5.765,0,0,1-1.748-.774,3.288,3.288,0,0,1-1.041-1.1,2.662,2.662,0,0,1-.339-1.3,3.328,3.328,0,0,1,.424-1.488,3.672,3.672,0,0,1,1.557-1.462,6.743,6.743,0,0,1,1.286-.546,11.15,11.15,0,0,1,1.353-.329q.672-.117,1.274-.167c.4-.032.747-.058,1.034-.075a7.5,7.5,0,0,1-.5-.7,1.782,1.782,0,0,1-.226-.948,1.5,1.5,0,0,1,.076-.515c.05-.139.105-.279.17-.418-.13.016-.265.028-.406.036s-.283.014-.418.014a4.781,4.781,0,0,1-1.846-.33,4.363,4.363,0,0,1-1.362-.86A3.472,3.472,0,0,1,5.183,5.96,3.631,3.631,0,0,1,4.9,4.565a4.023,4.023,0,0,1,.4-1.7A4.477,4.477,0,0,1,6.533,1.322,5.5,5.5,0,0,1,8.881.229,12.434,12.434,0,0,1,11.156,0h5.338Zm-.631,13.885a2.163,2.163,0,0,0-.151-.823,2.547,2.547,0,0,0-.456-.719,4.85,4.85,0,0,0-.863-.735l-1.267-.884a.867.867,0,0,0-.272-.052H10.86c-.066,0-.191.005-.376.012s-.408.027-.668.055-.537.069-.834.117a6.715,6.715,0,0,0-.85.2c-.152.049-.348.125-.593.228a3.052,3.052,0,0,0-.736.441,2.62,2.62,0,0,0-.629.731,2.017,2.017,0,0,0-.266,1.069,2.273,2.273,0,0,0,.312,1.179,3,3,0,0,0,.912.934,4.368,4.368,0,0,0,1.436.612,7.756,7.756,0,0,0,1.873.209,4.554,4.554,0,0,0,2.81-.724A2.238,2.238,0,0,0,14.188,14.776ZM12.12,6.989a1.766,1.766,0,0,0,.537-.924,4.428,4.428,0,0,0,.1-.821,5.819,5.819,0,0,0-.2-1.421,5.383,5.383,0,0,0-.6-1.431,4,4,0,0,0-.992-1.118A2.21,2.21,0,0,0,9.585.817a2.384,2.384,0,0,0-1,.226,2.545,2.545,0,0,0-.812.572,2.055,2.055,0,0,0-.451.836,3.806,3.806,0,0,0-.116.935,5.606,5.606,0,0,0,.188,1.346,4.965,4.965,0,0,0,.591,1.4,3.923,3.923,0,0,0,1,1.093,2.326,2.326,0,0,0,1.427.443,2.492,2.492,0,0,0,.948-.185A2.194,2.194,0,0,0,12.12,6.989Z" transform="translate(0 0)" fill="#db4a39"/>
  </g>
</svg>
