<svg xmlns="http://www.w3.org/2000/svg" width="36" height="36" viewBox="0 0 36 36">
  <g id="blue-grid" transform="translate(-6 -6)">
    <g id="_00-38-apps_-arrange_-array_-grid_-layout_-menu_-view" data-name="00-38-apps,-arrange,-array,-grid,-layout,-menu,-view">
      <path id="Shape" d="M39,25a3.014,3.014,0,0,1,3,3V39a3,3,0,0,1-3,3H28a3.014,3.014,0,0,1-3-3V28a3,3,0,0,1,3-3ZM20,25a3.014,3.014,0,0,1,3,3V39a3,3,0,0,1-3,3H9a3.014,3.014,0,0,1-3-3V28a3,3,0,0,1,3-3Zm19,2H28a1,1,0,0,0-1,1V39a1,1,0,0,0,1,1H39a1,1,0,0,0,1-1V28A.99.99,0,0,0,39,27ZM20,27H9a1,1,0,0,0-1,1V39a1,1,0,0,0,1,1H20a1,1,0,0,0,1-1V28A.99.99,0,0,0,20,27ZM39,6a3.014,3.014,0,0,1,3,3V20a3,3,0,0,1-3,3H28a3.014,3.014,0,0,1-3-3V9a3,3,0,0,1,3-3ZM20,6a3.014,3.014,0,0,1,3,3V20a3,3,0,0,1-3,3H9a3.014,3.014,0,0,1-3-3V9A3,3,0,0,1,9,6ZM39,8H28a1,1,0,0,0-1,1V20a1,1,0,0,0,1,1H39a1,1,0,0,0,1-1V9A.99.99,0,0,0,39,8ZM20,8H9A1,1,0,0,0,8,9V20a1,1,0,0,0,1,1H20a1,1,0,0,0,1-1V9A.99.99,0,0,0,20,8Z" fill="#989898"/>
    </g>
  </g>
</svg>
