<svg xmlns="http://www.w3.org/2000/svg" width="448.237" height="448.221" viewBox="0 0 448.237 448.221">
  <g id="Page-1" transform="translate(-0.566 -0.582)">
    <g id="blue-search-heart" transform="translate(2 2)">
      <path id="Shape" d="M440.885,421.09,334.813,315.033l1.188-1.4a190.208,190.208,0,1,0-22.389,22.389l1.4-1.188,1.3,1.3L421.077,440.873a14,14,0,0,0,19.808-19.783ZM28.568,190.586v0a162,162,0,1,1,162,162A162,162,0,0,1,28.568,190.584Z" fill="#989898" stroke="#fff" stroke-width="4"/>
      <g id="blue-heart" transform="translate(94 106)">
        <path id="Shape-2" data-name="Shape" d="M137.922,0A56.129,56.129,0,0,0,97,17.791,56.067,56.067,0,0,0,0,56.165c0,55.922,90.058,110.812,93.969,112.968a6.055,6.055,0,0,0,6.244,0C103.942,166.977,194,112.087,194,56.165A56.182,56.182,0,0,0,137.922,0ZM97,156.777C81.328,146.758,12.125,99.943,12.125,56.165a43.943,43.943,0,0,1,79.9-25.289,6.057,6.057,0,0,0,9.912,0,43.943,43.943,0,0,1,79.934,25.289C181.875,99.913,112.672,146.728,97,156.777Z" fill="#989898" stroke="#989898" stroke-width="8"/>
      </g>
    </g>
  </g>
</svg>
