<svg xmlns="http://www.w3.org/2000/svg" width="62" height="62" viewBox="0 0 62 62">
  <g id="blue-search" transform="translate(63 -1) rotate(180)">
    <g id="Group_3" data-name="Group 3">
      <g id="Group_2" data-name="Group 2">
        <g id="Group_1" data-name="Group 1">
          <path id="Path_1" data-name="Path 1" d="M37.6-51.9A25.436,25.436,0,0,0,12.2-26.5,25.33,25.33,0,0,0,37.6-1,25.436,25.436,0,0,0,63-26.4,25.457,25.457,0,0,0,37.6-51.9ZM37.6-5A21.424,21.424,0,0,1,16.2-26.4,21.424,21.424,0,0,1,37.6-47.8,21.36,21.36,0,0,1,59-26.4,21.36,21.36,0,0,1,37.6-5Z" fill="#989898"/>
        </g>
      </g>
    </g>
    <g id="Group_6" data-name="Group 6">
      <g id="Group_5" data-name="Group 5">
        <g id="Group_4" data-name="Group 4">
          <path id="Path_2" data-name="Path 2" d="M3-63a1.974,1.974,0,0,0-1.4.6,1.933,1.933,0,0,0,0,2.8l18,18a1.933,1.933,0,0,0,2.8,0,1.933,1.933,0,0,0,0-2.8l-18-18A1.974,1.974,0,0,0,3-63Z" fill="#989898"/>
        </g>
      </g>
    </g>
  </g>
</svg>
