<svg xmlns="http://www.w3.org/2000/svg" width="517" height="141.533" viewBox="0 0 517 141.533">
  <g id="Page-1" transform="translate(-0.5 -0.5)">
    <g id="blue-more" transform="translate(3 3)">
      <path id="Shape" d="M68.267,0a68.267,68.267,0,1,0,68.266,68.267A68.346,68.346,0,0,0,68.267,0Zm0,119.467a51.2,51.2,0,1,1,51.2-51.2A51.252,51.252,0,0,1,68.267,119.467Z" fill="#989898" stroke="#989898" stroke-width="5"/>
      <path id="Shape-2" data-name="Shape" d="M443.733,0A68.267,68.267,0,1,0,512,68.267,68.346,68.346,0,0,0,443.733,0Zm0,119.467a51.2,51.2,0,1,1,51.2-51.2A51.252,51.252,0,0,1,443.733,119.467Z" fill="#989898" stroke="#989898" stroke-width="5"/>
      <path id="Shape-3" data-name="Shape" d="M256,0a68.267,68.267,0,1,0,68.267,68.267A68.346,68.346,0,0,0,256,0Zm0,119.467a51.2,51.2,0,1,1,51.2-51.2A51.252,51.252,0,0,1,256,119.467Z" fill="#989898" stroke="#989898" stroke-width="5"/>
    </g>
  </g>
</svg>
