<svg xmlns="http://www.w3.org/2000/svg" width="334.401" height="252.828" viewBox="0 0 334.401 252.828">
  <g id="Group-144" transform="translate(0 -0.716)">
    <path id="Fill-1" d="M299.772,226.762a11.122,11.122,0,0,0-4.509.959c.031-.412.05-.827.05-1.246a16.266,16.266,0,0,0-27.158-12.115,16.157,16.157,0,0,0-7.466-2.662v-8.68a17.291,17.291,0,0,0-34.437-2.268,23.878,23.878,0,0,0-20.064,3.054,23.908,23.908,0,0,0-39.919,17.808c0,.617.028,1.227.074,1.832a16.364,16.364,0,0,0-14.186.435,16.261,16.261,0,0,0-26.95-9.52,16.154,16.154,0,0,0-7.466-2.662v-8.68A17.291,17.291,0,0,0,83.3,200.75,23.878,23.878,0,0,0,63.241,203.8a23.908,23.908,0,0,0-39.919,17.808c0,.617.028,1.227.074,1.832A16.439,16.439,0,0,0,.383,236.822H310.918a11.215,11.215,0,0,0-11.146-10.06" fill="#00c685" fill-rule="evenodd"/>
    <g id="Group-5" transform="translate(84.286 0.258)">
      <path id="Fill-3" d="M132.794,231.323H9.937a9.293,9.293,0,0,1-9.286-9.3V9.759A9.294,9.294,0,0,1,9.937.457H132.794a9.294,9.294,0,0,1,9.286,9.3V222.022a9.293,9.293,0,0,1-9.286,9.3" fill="#fff" fill-rule="evenodd"/>
    </g>
    <path id="Fill-6" d="M166.454,214.976a10.8,10.8,0,1,1-10.8-10.822,10.812,10.812,0,0,1,10.8,10.822" fill="#d3d3d3" fill-rule="evenodd"/>
    <path id="Fill-8" d="M171.752,14.907H145.68a1.61,1.61,0,0,1,0-3.22h26.071a1.61,1.61,0,0,1,0,3.22" fill="#d3d3d3" fill-rule="evenodd"/>
    <path id="Fill-10" d="M141.157,13.3a1.607,1.607,0,1,1-1.607-1.61,1.609,1.609,0,0,1,1.607,1.61" fill="#d3d3d3" fill-rule="evenodd"/>
    <path id="Fill-12" d="M81.722,45.852h3.214v-16.1H81.722Z" fill="#d3d3d3" fill-rule="evenodd"/>
    <path id="Fill-14" d="M226.365,45.852h3.214v-16.1h-3.214Z" fill="#d3d3d3" fill-rule="evenodd"/>
    <path id="Fill-15" d="M226.365,76.856h3.214v-16.1h-3.214Z" fill="#d3d3d3" fill-rule="evenodd"/>
    <path id="Fill-16" d="M95.829,197.2h120V22.9h-120Z" fill="#444a97" fill-rule="evenodd"/>
    <path id="Fill-17" d="M131.132,104.229H108.865a3.158,3.158,0,0,1-3.155-3.16v-22.3a3.158,3.158,0,0,1,3.155-3.16h22.266a3.158,3.158,0,0,1,3.155,3.16v22.3a3.158,3.158,0,0,1-3.155,3.16" fill="#ff7979" fill-rule="evenodd"/>
    <path id="Fill-18" d="M166.963,104.229H144.7a3.158,3.158,0,0,1-3.155-3.16v-22.3A3.158,3.158,0,0,1,144.7,75.6h22.266a3.158,3.158,0,0,1,3.155,3.16v22.3a3.158,3.158,0,0,1-3.155,3.16" fill="#00de91" fill-rule="evenodd"/>
    <path id="Fill-19" d="M177.373,104.229h28.576V75.6H177.373Z" fill="#3b4182" fill-rule="evenodd"/>
    <path id="Fill-20" d="M155.843,88.96l9.78-4.824a1.791,1.791,0,0,0-1.765-1.505H147.8a1.79,1.79,0,0,0-1.68,1.183Z" fill="#fff" fill-rule="evenodd"/>
    <path id="Fill-21" d="M155.816,90.873l-9.81-5.193V95.4a1.8,1.8,0,0,0,1.795,1.8h16.057a1.8,1.8,0,0,0,1.795-1.8V86.02Z" fill="#fff" fill-rule="evenodd"/>
    <path id="Fill-22" d="M128.9,85.81a7.009,7.009,0,0,0-.492-.692l.333-.335a1.127,1.127,0,0,0,0-1.595l-3.169-3.175a1.123,1.123,0,0,0-1.593,0l-3.177,3.182a1.124,1.124,0,0,0-.174,1.369.95.95,0,0,0,.174.231l1.784,1.786,1.386,1.389a1.125,1.125,0,0,0,1.6,0l.837-.84a3.533,3.533,0,0,1,.414.772,3.759,3.759,0,0,1-.834,4.034l-4.3,4.308a3.743,3.743,0,0,1-4.027.836,3.251,3.251,0,0,1-.766-.418l1.509-1.512a1.127,1.127,0,0,0,0-1.595L117,92.163l-1.784-1.786a.948.948,0,0,0-.23-.175,1.114,1.114,0,0,0-1.362.171l-3.177,3.183a1.129,1.129,0,0,0,0,1.6l3.169,3.175a1.118,1.118,0,0,0,1.171.266,5.954,5.954,0,0,0,.775.569,6.557,6.557,0,0,0,8.1-.935l4.3-4.308a6.584,6.584,0,0,0,.934-8.112" fill="#fff" fill-rule="evenodd"/>
    <path id="Fill-23" d="M105.71,144.3h28.576V115.672H105.71Z" fill="#3b4182" fill-rule="evenodd"/>
    <path id="Fill-24" d="M141.541,144.3h28.576V115.672H141.541Z" fill="#3b4182" fill-rule="evenodd"/>
    <path id="Fill-25" d="M177.373,144.3h28.576V115.672H177.373Z" fill="#3b4182" fill-rule="evenodd"/>
    <path id="Fill-26" d="M105.71,184.364h28.576V155.739H105.71Z" fill="#3b4182" fill-rule="evenodd"/>
    <path id="Fill-27" d="M141.541,184.364h28.576V155.739H141.541Z" fill="#3b4182" fill-rule="evenodd"/>
    <path id="Fill-28" d="M177.373,184.364h28.576V155.739H177.373Z" fill="#3b4182" fill-rule="evenodd"/>
    <path id="Fill-29" d="M116.752,44.406h-9.941a1.1,1.1,0,0,1-1.1-1.1V33.346a1.1,1.1,0,0,1,1.1-1.1h9.941a1.1,1.1,0,0,1,1.1,1.1V43.3a1.1,1.1,0,0,1-1.1,1.1" fill="#ff7292" fill-rule="evenodd"/>
    <path id="Fill-30" d="M107.63,36.223h8.3v-1.7h-8.3Z" fill="#fff" fill-rule="evenodd"/>
    <path id="Fill-31" d="M107.63,39.175h8.3v-1.7h-8.3Z" fill="#fff" fill-rule="evenodd"/>
    <path id="Fill-32" d="M107.63,42.126h8.3v-1.7h-8.3Z" fill="#fff" fill-rule="evenodd"/>
    <path id="Fill-33" d="M204.4,32.243h-12.49a1.556,1.556,0,0,0-1.006.37l-5.319,4.527a1.557,1.557,0,0,0,0,2.37l5.319,4.526a1.552,1.552,0,0,0,1.006.37H204.4a1.553,1.553,0,0,0,1.552-1.555V33.8a1.553,1.553,0,0,0-1.552-1.555" fill="#ff7292" fill-rule="evenodd"/>
    <path id="Fill-34" d="M200.408,36.6l-1.834-1.837-1.72,1.723-1.719-1.723L193.3,36.6l1.72,1.723-1.72,1.722,1.835,1.838,1.719-1.723,1.72,1.723,1.834-1.838-1.72-1.722Z" fill="#fff" fill-rule="evenodd"/>
    <path id="Fill-35" d="M103.2,247.287a425.343,425.343,0,0,1-48.884,2.83,425.359,425.359,0,0,1-48.884-2.83,423.747,423.747,0,0,1,97.767,0" fill="#d3d3d3" fill-rule="evenodd"/>
    <path id="Fill-36" d="M85.929,130.509l-.482-4.989,1.1-6.142,1.561.28.031,4.849,7.076-6.206,1.258.643,1.339-.478,1.117,1.1L97.189,122.6l.781.977-5.6,7.307-3.5,1.527-1,2.571-3.291-1.964Z" fill="#ffdfc4" fill-rule="evenodd"/>
    <path id="Fill-37" d="M62.279,110.72a11.975,11.975,0,0,1,6.351,7.313c1.382,5.193,6.221,20.857,7.257,21.2s7.949-11.077,7.949-11.077l7.949,5.539s-7.257,17.522-15.9,18.521S62.279,131.54,62.279,131.54Z" fill="#d0d0dd" fill-rule="evenodd"/>
    <path id="Fill-38" d="M59.863,245.59l6.05.457.233-1.833c2.177,1.869,10.1,2.705,16.651,3.074l.166-2.269a50.318,50.318,0,0,1-15.3-7.981.094.094,0,0,1-.016-.026c-.389-.545-.674-4.035-.591-6.813l-5.956-.452.518,8.247a1.243,1.243,0,0,0-.15.2c-1.084,1.667-1.6,7.395-1.6,7.395" fill="#5e4941" fill-rule="evenodd"/>
    <path id="Fill-39" d="M61.615,237.993a1.2,1.2,0,0,0-.15.2,15.764,15.764,0,0,0,6.179-1.183c-.389-.545-.674-4.035-.591-6.813l-5.956-.451Z" fill="#fff" fill-rule="evenodd"/>
    <path id="Fill-40" d="M71,242.428l2.009-2.531-.812-.646-2.009,2.531Z" fill="#fff" fill-rule="evenodd"/>
    <path id="Fill-41" d="M69.652,241.478l2.009-2.532-.812-.645-2.009,2.531Z" fill="#fff" fill-rule="evenodd"/>
    <path id="Fill-42" d="M68.14,240.54l2.009-2.531-.812-.646-2.009,2.531Z" fill="#fff" fill-rule="evenodd"/>
    <path id="Fill-43" d="M47.794,245.59l-6.049.457-.234-1.833c-2.177,1.869-10.1,2.705-16.651,3.074l-.166-2.269A50.336,50.336,0,0,0,40,237.037a.116.116,0,0,0,.015-.026c.389-.545.674-4.035.591-6.813l5.956-.452-.519,8.247a1.288,1.288,0,0,1,.151.2c1.083,1.667,1.6,7.395,1.6,7.395" fill="#5e4941" fill-rule="evenodd"/>
    <path id="Fill-44" d="M46.042,237.993a1.286,1.286,0,0,1,.15.2,15.768,15.768,0,0,1-6.179-1.183c.389-.545.674-4.035.591-6.813l5.956-.451Z" fill="#fff" fill-rule="evenodd"/>
    <path id="Fill-45" d="M36.657,242.428,34.648,239.9l.813-.646,2.009,2.531Z" fill="#fff" fill-rule="evenodd"/>
    <path id="Fill-46" d="M38.005,241.478,36,238.945l.813-.645,2.009,2.531Z" fill="#fff" fill-rule="evenodd"/>
    <path id="Fill-47" d="M39.516,240.54l-2.009-2.531.813-.646,2.009,2.531Z" fill="#fff" fill-rule="evenodd"/>
    <path id="Fill-48" d="M39.834,151.569s-4.421,74.9-3.451,80.444H47.61s2.538-62.312,5.471-63.7,5.874,63.7,5.874,63.7H69.84l-5.834-79.275Z" fill="#444a97" fill-rule="evenodd"/>
    <path id="Fill-49" d="M46.249,109.165s-4.878.566-6.174,2.683-.241,39.721-.241,39.721,11.539,5.712,24.172,1.168c0,0-.779-41.109-1.728-42.018s-4.577-1.428-4.577-1.428L51.92,111.5Z" fill="#dddde9" fill-rule="evenodd"/>
    <path id="Fill-50" d="M45.117,122.8l-12.2,17.869,13.034,8.348,12.935-17.187Z" fill="#242143" fill-rule="evenodd"/>
    <path id="Fill-51" d="M44.358,131.4s1.015-3.277.007-4.981l1.211-.8,1.629,3.087s1.392-3.081.879-3.624l-.746-.746s1.894-.465,2.4.255l1.229.122.855.905,1.224.3,1.265,1.975-2.549,4.644-4.61,4.367-4.146-4.392Z" fill="#ffdfc4" fill-rule="evenodd"/>
    <path id="Fill-52" d="M40.075,111.848S17.309,138.024,26.294,148.41s22.277-11.251,22.277-11.251l-5.257-5.6s-8.553,9.95-9.244,8.554,5.4-13.166,5.4-13.166Z" fill="#d0d0dd" fill-rule="evenodd"/>
    <path id="Fill-53" d="M55.5,102.155v7.01S53.854,111.5,51.92,111.5s-3.349-3.115-3.349-3.115L49,104.741l.306-2.586Z" fill="#ffdfc4" fill-rule="evenodd"/>
    <path id="Fill-54" d="M55.5,102.155v3.084c-3.531.961-5.506.207-6.5-.5l.306-2.586Z" fill="#ffc1a0" fill-rule="evenodd"/>
    <path id="Fill-55" d="M53.789,83.485S64.423,97.658,58,102.634c-5.279,4.091-9.846.92-11.017-1.609C45.422,97.647,43.268,86.6,43.268,86.6Z" fill="#ffdfc4" fill-rule="evenodd"/>
    <path id="Fill-56" d="M56.3,89.442s1.974-3.5,4.176-.391-1.565,5.913-1.565,5.913Z" fill="#ffdfc4" fill-rule="evenodd"/>
    <path id="Fill-57" d="M45.793,92.556S42.237,90.7,42.077,94.5,46.6,98.612,46.6,98.612Z" fill="#ffdfc4" fill-rule="evenodd"/>
    <path id="Fill-58" d="M58.609,88.891a2.661,2.661,0,0,1,.495.346,2.8,2.8,0,0,1,.969,2.435,2.685,2.685,0,0,1-.122.592,1.583,1.583,0,0,0,.107-.13,1.9,1.9,0,0,0,.229-.406,2.056,2.056,0,0,0-1.065-2.678,1.878,1.878,0,0,0-.445-.137,1.618,1.618,0,0,0-.167-.021" fill="#fac1a1" fill-rule="evenodd"/>
    <path id="Fill-59" d="M43.834,93.574a2.679,2.679,0,0,0-.227.56,2.8,2.8,0,0,0,.51,2.571,2.69,2.69,0,0,0,.424.431,1.5,1.5,0,0,1-.16-.052,1.83,1.83,0,0,1-.413-.215,2.059,2.059,0,0,1-.561-2.828,1.915,1.915,0,0,1,.3-.358,1.6,1.6,0,0,1,.129-.108" fill="#fac1a1" fill-rule="evenodd"/>
    <path id="Fill-60" d="M55.8,93.492a1.155,1.155,0,1,0,.78-1.437,1.155,1.155,0,0,0-.78,1.437" fill="#ffc1a0" fill-rule="evenodd"/>
    <path id="Fill-61" d="M46.545,96.236a1.155,1.155,0,1,0,.779-1.437,1.155,1.155,0,0,0-.779,1.437" fill="#ffc1a0" fill-rule="evenodd"/>
    <path id="Fill-62" d="M52.561,96.914a1.434,1.434,0,0,0,.271.207,1.912,1.912,0,0,0,.369.175.976.976,0,0,0,.593.014,1.085,1.085,0,0,0,.606-.449,1.175,1.175,0,0,0,.161-.876,8.648,8.648,0,0,0-.419-1.634,8.554,8.554,0,0,0-1.551-2.623,7.769,7.769,0,0,0-.641-.66l-.252-.223.166.292c.108.187.26.456.436.791a22.224,22.224,0,0,1,1.179,2.667c.194.531.362,1.043.5,1.518a.7.7,0,0,1-.314.869,1.064,1.064,0,0,1-.789.039,1.828,1.828,0,0,1-.314-.1" fill="#ffc1a0" fill-rule="evenodd"/>
    <path id="Fill-63" d="M39.446,84.036c.369-1.193,3.474-4.1,10.578-4.759,3.386-.315,2.763-4.068,2.763-4.068s4.342,3.574,3.384,6.88a2.541,2.541,0,0,1,1,1.3,31.278,31.278,0,0,1,.921,4.452s-1.221.082-.233,2.361l-3.664-5.66a18.378,18.378,0,0,1-10.72,3.084l1.44,6.073s-.945-1.81-2.16-1.127c0,0-3.675-7.342-3.306-8.534" fill="#242143" fill-rule="evenodd"/>
    <path id="Fill-64" d="M44.541,85.319l.5.153a7.631,7.631,0,0,0,1.424.235,8.287,8.287,0,0,0,4.644-1.036,7.083,7.083,0,0,0,3.216-3.507,3.826,3.826,0,0,0,.248-1.434,2.943,2.943,0,0,0-.04-.39l-.023-.135a3.257,3.257,0,0,1-.02.522,4.048,4.048,0,0,1-.409,1.332,7.926,7.926,0,0,1-3.23,3.148,9.68,9.68,0,0,1-4.381,1.235,9.332,9.332,0,0,1-1.412-.051l-.519-.072" fill="#3a3750" fill-rule="evenodd"/>
    <path id="Fill-65" d="M44.172,84.151s.536.066,1.411.094a8.424,8.424,0,0,0,3.409-.521,6.332,6.332,0,0,0,2.655-2.216,13.69,13.69,0,0,0,.782-1.181l-.982,1.007a8.146,8.146,0,0,1-2.658,1.9,12.732,12.732,0,0,1-3.219.746l-1.4.172" fill="#3a3750" fill-rule="evenodd"/>
    <path id="Fill-66" d="M41.033,86.114l.029-.2a4.156,4.156,0,0,1,.1-.517,5.832,5.832,0,0,1,1.694-2.813,4.338,4.338,0,0,1,.409-.331l.161-.117-.195.042a2.515,2.515,0,0,0-.52.185A3.193,3.193,0,0,0,40.9,85.375a2.545,2.545,0,0,0,.08.547l.054.192" fill="#3a3750" fill-rule="evenodd"/>
    <path id="Fill-67" d="M42.35,87.525a2.958,2.958,0,0,1-.085-.346,4.336,4.336,0,0,1-.059-.738,4.387,4.387,0,0,1,.046-.738,2.816,2.816,0,0,1,.08-.346.893.893,0,0,0-.313.22,1.245,1.245,0,0,0,.014,1.731.893.893,0,0,0,.316.216" fill="#3a3750" fill-rule="evenodd"/>
    <path id="Fill-68" d="M48.571,108.386l-2.323.778L49,115.31,51.92,111.5Z" fill="#fff" fill-rule="evenodd"/>
    <path id="Fill-69" d="M51.92,111.5l2.886,3.808,2.9-6.018-2.2-.905Z" fill="#fff" fill-rule="evenodd"/>
    <path id="Fill-70" d="M0,93.575H11.966V81.589H0Z" fill="#ff7292" fill-rule="evenodd"/>
    <path id="Fill-71" d="M9.281,109.685H21.247V97.7H9.281Z" fill="#ffcb45" fill-rule="evenodd"/>
    <path id="Fill-72" d="M334.4,249.611c-8.956-.794-22.759-1.726-38.258-1.726-14.109,0-26.814.773-35.736,1.51-8.923-.737-21.628-1.51-35.737-1.51a425.466,425.466,0,0,0-48.884,2.829,425.359,425.359,0,0,0,48.884,2.83c14.109,0,26.814-.773,35.737-1.51,8.922.738,21.627,1.51,35.736,1.51,15.5,0,29.3-.933,38.258-1.726Z" fill="#d3d3d3" fill-rule="evenodd"/>
    <path id="Fill-73" d="M193.211,250.117h58.571v-36.9H193.211Z" fill="#ffcb45" fill-rule="evenodd"/>
    <path id="Fill-74" d="M193.21,213.215l58.571,36.9H193.21Z" fill="#ffa127" fill-rule="evenodd"/>
    <path id="Fill-75" d="M269.461,250.117h58.571v-36.9H269.461Z" fill="#ffcb45" fill-rule="evenodd"/>
    <path id="Fill-76" d="M269.461,213.215l58.571,36.9H269.461Z" fill="#ffa127" fill-rule="evenodd"/>
    <path id="Fill-77" d="M283.375,213.215h41.534V187.047H283.375Z" fill="#ffcb45" fill-rule="evenodd"/>
    <path id="Fill-78" d="M283.374,187.047l41.534,26.168H283.374Z" fill="#ffa127" fill-rule="evenodd"/>
    <path id="Fill-79" d="M291.583,187.047H315.8V171.788H291.583Z" fill="#ffcb45" fill-rule="evenodd"/>
    <path id="Fill-80" d="M291.582,171.787,315.8,187.047H291.582Z" fill="#ffa127" fill-rule="evenodd"/>
    <path id="Fill-81" d="M230.417,213.2l6.066.053.111-1.845c2.3,1.72,10.261,2.027,16.818,1.959l.015-2.275a50.356,50.356,0,0,1-15.8-6.945.1.1,0,0,1-.017-.026c-.424-.517-.94-3.98-1.041-6.758l-5.974-.054,1.064,8.193a1.311,1.311,0,0,0-.136.213c-.971,1.735-1.108,7.485-1.108,7.485" fill="#242143" fill-rule="evenodd"/>
    <path id="Fill-82" d="M231.662,205.5a1.309,1.309,0,0,0-.136.212,15.766,15.766,0,0,0,6.087-1.593c-.424-.517-.94-3.98-1.041-6.758l-5.974-.054Z" fill="#ffdfc4" fill-rule="evenodd"/>
    <path id="Fill-83" d="M241.32,209.3l1.836-2.66-.853-.59-1.836,2.659Z" fill="#fff" fill-rule="evenodd"/>
    <path id="Fill-84" d="M239.912,208.445l1.836-2.66-.854-.59-1.836,2.659Z" fill="#fff" fill-rule="evenodd"/>
    <path id="Fill-85" d="M238.342,207.611l1.836-2.659-.853-.59-1.836,2.659Z" fill="#fff" fill-rule="evenodd"/>
    <path id="Fill-86" d="M214.118,213.2l-6.066.053-.111-1.845c-2.3,1.72-10.261,2.027-16.818,1.959l-.015-2.275a50.356,50.356,0,0,0,15.8-6.945.1.1,0,0,0,.017-.026c.424-.517.94-3.98,1.041-6.758l5.974-.054-1.064,8.193a1.31,1.31,0,0,1,.136.213c.971,1.735,1.108,7.485,1.108,7.485" fill="#242143" fill-rule="evenodd"/>
    <path id="Fill-87" d="M212.873,205.5a1.31,1.31,0,0,1,.136.212,15.766,15.766,0,0,1-6.087-1.593c.424-.517.94-3.98,1.041-6.758l5.974-.054Z" fill="#ffdfc4" fill-rule="evenodd"/>
    <path id="Fill-88" d="M203.215,209.3l-1.836-2.66.854-.59,1.836,2.659Z" fill="#fff" fill-rule="evenodd"/>
    <path id="Fill-89" d="M204.623,208.445l-1.836-2.66.853-.59,1.836,2.659Z" fill="#fff" fill-rule="evenodd"/>
    <path id="Fill-90" d="M206.193,207.611l-1.836-2.659.854-.59,1.836,2.659Z" fill="#fff" fill-rule="evenodd"/>
    <path id="Fill-91" d="M236.625,118.613s4.421,74.9,3.451,80.444H228.849s-2.538-62.313-5.471-63.7-5.874,63.7-5.874,63.7H206.62l5.833-79.276Z" fill="#242143" fill-rule="evenodd"/>
    <path id="Fill-92" d="M263.51,38.568,167.391,54.975a1.367,1.367,0,0,1-1.577-1.119l-1.621-9.532a1.368,1.368,0,0,1,1.118-1.579l96.119-16.408a1.366,1.366,0,0,1,1.576,1.12l1.622,9.531a1.369,1.369,0,0,1-1.118,1.58" fill="#fff" fill-rule="evenodd"/>
    <path id="Fill-93" d="M263.51,38.568l-16.989,2.9L244.44,29.237l16.989-2.9a1.366,1.366,0,0,1,1.576,1.12l1.622,9.531a1.369,1.369,0,0,1-1.118,1.58" fill="#ffa127" fill-rule="evenodd"/>
    <path id="Fill-94" d="M254.363,35.482a2.639,2.639,0,1,1,2.154-3.044,2.634,2.634,0,0,1-2.154,3.044m5.821.728-2.9-2.056a3.644,3.644,0,1,0-1.039,1.47l2.9,2.056a.394.394,0,0,0,.551-.094l.583-.823a.4.4,0,0,0-.094-.552" fill="#fff" fill-rule="evenodd"/>
    <path id="Fill-95" d="M211.068,128.727s1.053-43.326,2.958-45.214a6.75,6.75,0,0,1,4.4-1.868l6.291.384,6.291-.6s3.43,1.826,3.906,3.734,2.994,44.041,2.994,44.041-13.249,4.928-26.845-.477" fill="#00de91" fill-rule="evenodd"/>
    <path id="Fill-96" d="M229,80.545a14.942,14.942,0,0,1-8.508.055,8.485,8.485,0,0,0,.924-3.475c.054-.555.081-1.114.088-1.638a25.9,25.9,0,0,0-.114-2.986l6.145-.333.156.867.695,3.979Z" fill="#ffdfc4" fill-rule="evenodd"/>
    <path id="Fill-97" d="M228.383,77.014a30.949,30.949,0,0,1-6.969.111c.054-.555.08-1.114.088-1.638,0,0,4.516-.866,6.186-2.451Z" fill="#ffc1a0" fill-rule="evenodd"/>
    <path id="Fill-98" d="M217.41,55.08s-4.773,16.695,1.689,19.755c6.783,3.213,11.5-5.96,11.5-5.96l1.549-11.7Z" fill="#ffdfc4" fill-rule="evenodd"/>
    <path id="Fill-99" d="M225.373,67.662a2.451,2.451,0,0,1,.171.525,2.292,2.292,0,0,1-.054,1.185,2.2,2.2,0,0,1-.659.967,2.278,2.278,0,0,1-.446.3,1.528,1.528,0,0,0,.159-.018,1.721,1.721,0,0,0,.416-.118,1.664,1.664,0,0,0,.94-.986,1.76,1.76,0,0,0-.154-1.381,1.9,1.9,0,0,0-.257-.361c-.071-.077-.115-.116-.115-.116" fill="#fac1a1" fill-rule="evenodd"/>
    <path id="Fill-100" d="M217.323,67.449a1.155,1.155,0,1,0,.78-1.437,1.154,1.154,0,0,0-.78,1.437" fill="#ffc1a0" fill-rule="evenodd"/>
    <path id="Fill-101" d="M234.263,69.307a14.061,14.061,0,0,0,4.107-8.564,8.68,8.68,0,0,0-.719-5.605c-.971-1.656-3.179-2.764-4.916-1.95a3.016,3.016,0,0,0-1.416-2.071,8.43,8.43,0,0,0-6.085-1.511c-1.609.231-3.381.9-4.751.026-.6-.382-.989-1.31-.456-1.78a2.949,2.949,0,0,0-1.209,4.031,3.387,3.387,0,0,1-1.351-.582c-.378-.32-.754-.782-.538-1.227a5.257,5.257,0,0,0-1.447,7.674,6.849,6.849,0,0,0,3.839,2.346,16.51,16.51,0,0,0,4.557.325,44.31,44.31,0,0,1,.108,8.276,4.024,4.024,0,0,1,1.009-1.55,1.368,1.368,0,0,1,1.712-.057,1.756,1.756,0,0,1,.388,1.421,4.486,4.486,0,0,1-.836,2.44,2.809,2.809,0,0,1-2.239,1.15c-.726,4.189,3.61,5.814,4.046,5.992a3.276,3.276,0,0,1,.069-1.711,3.309,3.309,0,0,0,1.764,1.3,2.542,2.542,0,0,1,.426-2.511c1.269-1.929,2.224-4.313,3.938-5.86" fill="#242143" fill-rule="evenodd"/>
    <path id="Fill-102" d="M226.166,58.551s-.168.082-.487.2a7.481,7.481,0,0,1-1.4.371,9.747,9.747,0,0,1-4.775-.473,7.366,7.366,0,0,1-2.39-1.3,4.8,4.8,0,0,1-1.32-1.83,4.582,4.582,0,0,1-.331-1.44,3.562,3.562,0,0,1,0-.531s.055.182.182.488a5.7,5.7,0,0,0,.677,1.186,5.246,5.246,0,0,0,1.4,1.3,10.593,10.593,0,0,0,2.176.971,18.075,18.075,0,0,0,4.348,1.014,12.7,12.7,0,0,0,1.394.052l.522-.017" fill="#3a3750" fill-rule="evenodd"/>
    <path id="Fill-103" d="M230.74,64s0,.076-.016.272l-.092-.063a11.627,11.627,0,0,0,.808-1.264,10.757,10.757,0,0,0,.889-2.242c.621-2.112.361-4.149.1-4.033a.65.65,0,0,1,.331.175,2.365,2.365,0,0,1,.541.87,5.1,5.1,0,0,1,.2,3.313,5.214,5.214,0,0,1-1.448,2.4,4.373,4.373,0,0,1-1.35.872l-.157.067.065-.13c.087-.176.129-.24.129-.24" fill="#3a3750" fill-rule="evenodd"/>
    <path id="Fill-104" d="M231.734,65.7l.341-.295a7.52,7.52,0,0,0,.814-.863,9.178,9.178,0,0,0,1.661-3.306,13.423,13.423,0,0,0,.443-3.746c-.009-.5-.033-.917-.056-1.206s-.035-.451-.035-.451.085.138.219.4a7.836,7.836,0,0,1,.472,1.156,7.38,7.38,0,0,1,.13,4.173,6.159,6.159,0,0,1-2.425,3.433,4.911,4.911,0,0,1-1.126.575,4.283,4.283,0,0,1-.437.131" fill="#3a3750" fill-rule="evenodd"/>
    <path id="Fill-105" d="M229.325,55.536a3.973,3.973,0,0,1-.406.263,5.69,5.69,0,0,1-1.227.527,11.994,11.994,0,0,1-4.329.333,8.889,8.889,0,0,1-2.4-.476,5.162,5.162,0,0,1-1.756-1.048,3.677,3.677,0,0,1-.822-1.082,2.585,2.585,0,0,1-.179-.454,4.029,4.029,0,0,0,.331.341,4.457,4.457,0,0,0,1.021.7,9.873,9.873,0,0,0,3.894.806c1.642.124,3.08.318,4.137.281a8.69,8.69,0,0,0,1.262-.106l.471-.084" fill="#3a3750" fill-rule="evenodd"/>
    <path id="Fill-106" d="M228.94,53.677a3.844,3.844,0,0,1-.9.552,4.78,4.78,0,0,1-4.876-.52,3.866,3.866,0,0,1-.765-.73l1.006.17c.6.1,1.4.187,2.254.281s1.652.17,2.263.2l1.019.046" fill="#3a3750" fill-rule="evenodd"/>
    <path id="Fill-107" d="M229.124,52.747s-.231,0-.53-.012a2.885,2.885,0,0,1-1.893-.655c-.244-.172-.424-.318-.424-.318a1.6,1.6,0,0,1,.475-.29,1.7,1.7,0,0,1,2.176.753,1.6,1.6,0,0,1,.2.522" fill="#3a3750" fill-rule="evenodd"/>
    <path id="Fill-108" d="M220.49,80.6l-2.06,1.045s2.053,2.091,6.751,1.848c4.045-.208,5.831-2.064,5.831-2.064L229,80.545a19.833,19.833,0,0,1-8.508.055" fill="#fff" fill-rule="evenodd"/>
    <path id="Fill-109" d="M204.08,45.855l-.972-1.744-1.04-3.026-2.379-.429-2.048,1.789s-2.911.6-3.407,1.762-.1,6.589-.1,6.589l1.518,1.434-.156,1.406-2.429,17.754h6.266l1.882-17.256.208-1.158,3.1-2.491Z" fill="#ffdfc4" fill-rule="evenodd"/>
    <path id="Fill-110" d="M201.663,73.9c-1.394-2.222-.368-5.664.5-11.459l-9.5-1.161c-.634,5.376-1.771,11.451.082,16.652,2.016,5.656,12.972,13.378,22.964,16.981l2.717-13.267c-8.691.384-14.137-3.55-16.768-7.745" fill="#00de91" fill-rule="evenodd"/>
    <path id="Fill-111" d="M243.849,39.072l.755-1.848.667-3.13,2.31-.713,2.248,1.528s2.963.247,3.6,1.336.9,6.528.9,6.528l-1.334,1.607.325,1.377,4.553,17.33-6.219.758-3.951-16.9-.346-1.125-3.379-2.1Z" fill="#ffdfc4" fill-rule="evenodd"/>
    <path id="Fill-112" d="M249.632,66.619c1.115-2.375-.318-5.666-1.881-11.314l9.288-2.3c1.279,5.26,3.139,11.152,1.927,16.539-1.318,5.858-15.04,18.706-24.524,23.492l-3.43-11.6c8.482-1.7,16.515-10.326,18.62-14.81" fill="#00de91" fill-rule="evenodd"/>
    <path id="Fill-113" d="M185.414,247.287a425.344,425.344,0,0,1-48.884,2.83,425.359,425.359,0,0,1-48.884-2.83,423.747,423.747,0,0,1,97.767,0" fill="#d3d3d3" fill-rule="evenodd"/>
    <path id="Fill-114" d="M137.473,127.605l7.31-10.891,8.026-2.789.166,1.369-4.714,3.029,5.252,1.428,5.846-4.589.981,1.056-6.1,6.043-8.011-.644-3.674,7.228Z" fill="#ffc1a0" fill-rule="evenodd"/>
    <path id="Fill-115" d="M116.471,110.139s-12.619,25.579-7.857,32.972,18.867,2.547,18.867,2.547Z" fill="#ec4c77" fill-rule="evenodd"/>
    <path id="Fill-116" d="M146.685,244.852v2.426H131.95l.764-7.219.293-2.769,1.2-11.419h5.614s-.321,6.446-.214,11.068a21.759,21.759,0,0,0,.322,3.914c.021.065.035.122.049.172.779,2.654,6.707,3.829,6.707,3.829" fill="#ffdfc4" fill-rule="evenodd"/>
    <path id="Fill-117" d="M146.685,244.852v2.426H131.95l.764-7.219.293-2.769a2.844,2.844,0,0,0,.457.15,10.093,10.093,0,0,0,6.143-.5,21.759,21.759,0,0,0,.322,3.914c.021.065.035.122.049.172.779,2.654,6.707,3.829,6.707,3.829" fill="#fff" fill-rule="evenodd"/>
    <path id="Fill-118" d="M146.685,244.852v2.426H131.95l.764-7.219c.057.029.107.064.164.093a8.673,8.673,0,0,0,3.607,1.138,8.531,8.531,0,0,0,3.444-.437c.021.065.035.122.049.172.779,2.654,6.707,3.829,6.707,3.829" fill="#242143" fill-rule="evenodd"/>
    <path id="Fill-119" d="M131.507,244.852v2.426H116.771l.764-7.219.293-2.769,1.2-11.419h5.614s-.321,6.446-.214,11.068a21.761,21.761,0,0,0,.322,3.914c.021.065.035.122.049.172.779,2.654,6.707,3.829,6.707,3.829" fill="#ffdfc4" fill-rule="evenodd"/>
    <path id="Fill-120" d="M131.507,244.852v2.426H116.771l.764-7.219.293-2.769a2.844,2.844,0,0,0,.457.15,10.093,10.093,0,0,0,6.143-.5,21.761,21.761,0,0,0,.322,3.914c.021.065.035.122.049.172.779,2.654,6.707,3.829,6.707,3.829" fill="#fff" fill-rule="evenodd"/>
    <path id="Fill-121" d="M131.507,244.852v2.426H116.771l.764-7.219c.057.029.107.064.164.093a8.673,8.673,0,0,0,3.607,1.138,8.531,8.531,0,0,0,3.444-.437c.021.065.035.122.049.172.779,2.654,6.707,3.829,6.707,3.829" fill="#242143" fill-rule="evenodd"/>
    <path id="Fill-122" d="M137.172,145.973s2.429-37.15.3-38.78a6.117,6.117,0,0,0-5.479-.83l-6.291.384-2.4-.6s-5.156.859-6.834,3.992c-.929,1.733-3.31,36.355-3.31,36.355s10.414,4.885,24.011-.521" fill="#ff7292" fill-rule="evenodd"/>
    <path id="Fill-123" d="M125.32,105.263a14.942,14.942,0,0,0,8.508.055,8.507,8.507,0,0,1-.924-3.475c-.054-.555-.081-1.114-.088-1.638a25.912,25.912,0,0,1,.114-2.986l-6.145-.332-.156.866-.695,3.98Z" fill="#ffdfc4" fill-rule="evenodd"/>
    <path id="Fill-124" d="M125.935,101.732a30.954,30.954,0,0,0,6.969.111c-.054-.555-.081-1.114-.089-1.638,0,0-4.516-.866-6.186-2.452Z" fill="#ffc1a0" fill-rule="evenodd"/>
    <path id="Fill-125" d="M140.521,82.516s.134,17.365-6.911,18.58c-7.394,1.275-9.488-8.829-9.488-8.829l1.636-11.688Z" fill="#ffdfc4" fill-rule="evenodd"/>
    <path id="Fill-126" d="M137.3,94.456a1.155,1.155,0,1,1-.367-1.594,1.154,1.154,0,0,1,.367,1.594" fill="#ffc1a0" fill-rule="evenodd"/>
    <path id="Fill-127" d="M133.827,105.318l2.06,1.045s-2.053,2.091-6.751,1.848c-4.045-.208-5.831-2.064-5.831-2.064l2.014-.884a19.833,19.833,0,0,0,8.508.055" fill="#fff" fill-rule="evenodd"/>
    <path id="Fill-128" d="M116.428,194.156l.943,38.153h7.986c.089-8.864,2.124-39.591,2.124-39.591s-5.136-29.02-1.546-29.573c1.546-.238,6.386,29.276,6.386,29.276l-.371,39.889h8.824l3.489-39.489-7.091-46.847-24.011.521s-2.889,10.1-2.761,13.193c.16,3.872,6.028,34.47,6.028,34.47" fill="#242143" fill-rule="evenodd"/>
    <path id="Fill-129" d="M115.489,230.074l.446,4.561,10.446-.626v-3.13Z" fill="#ff7292" fill-rule="evenodd"/>
    <path id="Fill-130" d="M174.988,119.028H152.721a3.158,3.158,0,0,1-3.155-3.16v-22.3a3.158,3.158,0,0,1,3.155-3.16h22.266a3.158,3.158,0,0,1,3.155,3.16v22.3a3.158,3.158,0,0,1-3.155,3.16" fill="#ffcb45" fill-rule="evenodd"/>
    <path id="Fill-131" d="M165.622,104.127a4.423,4.423,0,1,0-3.534,0,8.125,8.125,0,0,0-6.348,7.93v.488H171.97v-.488a8.126,8.126,0,0,0-6.349-7.93" fill="#fff" fill-rule="evenodd"/>
    <path id="Fill-132" d="M141.977,229.477l-.446,4.561-10.446-.626v-3.13Z" fill="#ff7292" fill-rule="evenodd"/>
    <path id="Fill-133" d="M157.74,127.848l7.31-10.891,8.026-2.79.166,1.369-4.714,3.029,5.253,1.427,5.846-4.589.981,1.057-6.1,6.043-8.011-.644-3.674,7.227Z" fill="#ffdfc4" fill-rule="evenodd"/>
    <path id="Fill-134" d="M136.318,106.567a11.975,11.975,0,0,1,6.351,7.313c1.382,5.193,6.221,20.857,7.257,21.2s7.949-11.077,7.949-11.077l7.949,5.539s-7.258,17.522-15.9,18.521c-5.69.658-10.689-13.98-13.439-24.055a34.294,34.294,0,0,1-.169-17.444" fill="#ec4c77" fill-rule="evenodd"/>
    <path id="Fill-135" d="M155.31,126.774l2.429-3.935,9.267,6.887-1.183,1.789Z" fill="#fff" fill-rule="evenodd"/>
    <path id="Fill-136" d="M140.436,85.166c.076-.208,0-.762.079-.97a8.152,8.152,0,0,0-2.174,15.269c-4.989.554-10.119.723-14.946-.649s-10.116-4.5-12.221-9.068a2.949,2.949,0,0,0,2.634-.582c2.984-2.959,3.921-7.335,5.456-11.25a9.476,9.476,0,0,1,2.472-3.929,3.922,3.922,0,0,1,4.349-.648c1-1.141,3.086-1.44,4.6-1.364a13.12,13.12,0,0,1,11.494,8.765,5.025,5.025,0,0,1,.284,2.6,2.717,2.717,0,0,1-2.025,1.827" fill="#242143" fill-rule="evenodd"/>
    <path id="Fill-137" d="M115.643,90.379s.066,0,.19-.011a1.9,1.9,0,0,0,.516-.124,2.8,2.8,0,0,0,1.369-1.239,15.224,15.224,0,0,0,1.045-2.7c.358-1.06.774-2.214,1.248-3.41s.959-2.307,1.412-3.364a7.6,7.6,0,0,1,1.739-2.576A4.054,4.054,0,0,1,125,75.969a2.893,2.893,0,0,1,.554-.069h.192l-.184.05a3.244,3.244,0,0,0-.5.2,4.171,4.171,0,0,0-1.455,1.226,8.492,8.492,0,0,0-1.228,2.539c-.326,1.044-.756,2.224-1.232,3.425s-.968,2.343-1.434,3.365a11.24,11.24,0,0,1-1.5,2.662,2.943,2.943,0,0,1-1.814,1.063,1.851,1.851,0,0,1-.564-.008,1.759,1.759,0,0,1-.188-.041" fill="#3a3750" fill-rule="evenodd"/>
    <path id="Fill-138" d="M138.113,77.71a3.018,3.018,0,0,0-1-.542,22.911,22.911,0,0,0-2.921-1.042,5.587,5.587,0,0,0-4.186.353,9.986,9.986,0,0,0-3.492,3.965,30.5,30.5,0,0,0-1.787,5.267,19.594,19.594,0,0,1-1.711,4.413,10.13,10.13,0,0,1-2,2.487,9.134,9.134,0,0,1-.9.733s.294-.29.759-.863a11.09,11.09,0,0,0,1.593-2.631,23.688,23.688,0,0,0,1.259-4.391,23.328,23.328,0,0,1,1.7-5.564,10.315,10.315,0,0,1,1.785-2.544,8.912,8.912,0,0,1,2.309-1.78,5.181,5.181,0,0,1,2.641-.518,7.45,7.45,0,0,1,2.211.49A18.132,18.132,0,0,1,137.2,77a4.208,4.208,0,0,1,.709.492,1.528,1.528,0,0,1,.2.22" fill="#3a3750" fill-rule="evenodd"/>
    <path id="Fill-139" d="M137.841,79.672l-.211-.122a3.285,3.285,0,0,0-.64-.248,6.357,6.357,0,0,0-2.483-.033,5.057,5.057,0,0,0-3.2,1.218,9.343,9.343,0,0,0-1.215,1.715,15.332,15.332,0,0,0-1.007,2.079,20.919,20.919,0,0,0-1.1,4.382,16.353,16.353,0,0,1-1.006,3.755,7.367,7.367,0,0,1-1.45,2.193,5.93,5.93,0,0,1-.7.64,7.668,7.668,0,0,0,.555-.758,8.071,8.071,0,0,0,1.026-2.282,21.106,21.106,0,0,0,.561-3.689,16.311,16.311,0,0,1,.989-4.689,13.034,13.034,0,0,1,1.146-2.239,8.935,8.935,0,0,1,1.5-1.854,4.037,4.037,0,0,1,2.038-.962,10.3,10.3,0,0,1,1.832-.116,6.037,6.037,0,0,1,2.586.462,3.124,3.124,0,0,1,.6.383l.182.165" fill="#3a3750" fill-rule="evenodd"/>
    <path id="Fill-140" d="M137.947,81.85l-.171.041c-.111.023-.274.069-.478.133a6.38,6.38,0,0,0-1.592.783,7.659,7.659,0,0,0-1.836,1.774,9.829,9.829,0,0,0-1.391,2.77,16.89,16.89,0,0,0-.686,3.117,12.743,12.743,0,0,1-.567,2.722,12.583,12.583,0,0,1-.8,1.689l-.338.589.161-.659c.1-.422.263-1.032.386-1.777a20.074,20.074,0,0,0,.132-2.659,11.578,11.578,0,0,1,.554-3.406,8.27,8.27,0,0,1,1.759-3.046,6.85,6.85,0,0,1,2.336-1.651,5.522,5.522,0,0,1,1.844-.433,4.246,4.246,0,0,1,.508,0l.175.011" fill="#3a3750" fill-rule="evenodd"/>
    <path id="Fill-141" d="M258.288,146.09h50V111.6h-50Z" fill="#444a97" fill-rule="evenodd"/>
    <path id="Fill-142" d="M264.419,139.363h37.738V118.325H264.419Z" fill="#00de91" fill-rule="evenodd"/>
    <path id="Fill-143" d="M270.669,134.518h25.238V123.172H270.669Z" fill="#eee" fill-rule="evenodd"/>
  </g>
</svg>
