<svg xmlns="http://www.w3.org/2000/svg" width="26.822" height="23.696" viewBox="0 0 26.822 23.696">
  <g id="Group_287" data-name="Group 287" transform="translate(0.001 0)">
    <path id="Path_178" data-name="Path 178" d="M24.863,32.164a6.755,6.755,0,0,0-10.786.776,10.283,10.283,0,0,0-.668,1.083,10.273,10.273,0,0,0-.668-1.083,6.755,6.755,0,0,0-10.786-.776A8.13,8.13,0,0,0,0,37.563,9.955,9.955,0,0,0,2.742,44.1,61.045,61.045,0,0,0,9.6,50.507c1.038.884,2.111,1.8,3.254,2.8l.034.03a.786.786,0,0,0,1.035,0l.034-.03c1.143-1,2.216-1.914,3.254-2.8A61.035,61.035,0,0,0,24.078,44.1a9.956,9.956,0,0,0,2.742-6.532A8.13,8.13,0,0,0,24.863,32.164ZM16.2,49.311c-.9.762-1.816,1.547-2.786,2.391-.971-.844-1.892-1.629-2.787-2.391C5.173,44.666,1.572,41.6,1.572,37.563A6.561,6.561,0,0,1,3.136,33.2a5.245,5.245,0,0,1,3.988-1.8,5.3,5.3,0,0,1,4.336,2.441,9.316,9.316,0,0,1,1.2,2.392.786.786,0,0,0,1.494,0,9.317,9.317,0,0,1,1.2-2.392,5.186,5.186,0,0,1,8.324-.646,6.561,6.561,0,0,1,1.564,4.361C25.249,41.6,21.648,44.666,16.2,49.311Z" transform="translate(0 -29.836)" fill="#fff"/>
  </g>
</svg>
