<svg xmlns="http://www.w3.org/2000/svg" width="26.466" height="26.467" viewBox="0 0 26.466 26.467">
  <g id="home-saved-search" transform="translate(0 -0.008)">
    <path id="Path_499" data-name="Path 499" d="M261.789,305.662h-4.962a.827.827,0,1,1,0-1.654h4.962a.827.827,0,1,1,0,1.654Zm0,0" transform="translate(-242.767 -288.286)" fill="#fff"/>
    <path id="Path_500" data-name="Path 500" d="M261.789,305.662h-4.962a.827.827,0,1,1,0-1.654h4.962a.827.827,0,1,1,0,1.654Zm0,0" transform="translate(-242.767 -288.286)" fill="#fff"/>
    <path id="Path_501" data-name="Path 501" d="M304.827,262.624A.827.827,0,0,1,304,261.8v-4.962a.827.827,0,1,1,1.654,0V261.8A.827.827,0,0,1,304.827,262.624Zm0,0" transform="translate(-288.286 -242.767)" fill="#fff"/>
    <path id="Path_502" data-name="Path 502" d="M8,22.063H3.033A3.035,3.035,0,0,1,0,19.03V3.04A3.035,3.035,0,0,1,3.033.008H19.3A3.035,3.035,0,0,1,22.331,3.04V8a.827.827,0,1,1-1.654,0V3.04A1.38,1.38,0,0,0,19.3,1.662H3.033A1.38,1.38,0,0,0,1.654,3.04V19.03a1.38,1.38,0,0,0,1.379,1.379H8a.827.827,0,1,1,0,1.654Zm0,0" fill="#fff"/>
    <path id="Path_503" data-name="Path 503" d="M198.617,205.241a6.617,6.617,0,1,1,6.617-6.617,6.617,6.617,0,0,1-6.617,6.617Zm0-11.579a4.962,4.962,0,1,0,4.962,4.962,4.962,4.962,0,0,0-4.962-4.962Zm0,0" transform="translate(-182.075 -182.075)" fill="#fff"/>
    <path id="Path_504" data-name="Path 504" d="M388.986,389.8a.821.821,0,0,1-.585-.242l-5.006-5.007a.827.827,0,1,1,1.17-1.17l5.006,5.006a.828.828,0,0,1-.586,1.413Zm0,0" transform="translate(-363.347 -363.325)" fill="#fff"/>
  </g>
</svg>
