<svg id="home-search" xmlns="http://www.w3.org/2000/svg" width="25.168" height="25.169" viewBox="0 0 25.168 25.169">
  <path id="Path_572" data-name="Path 572" d="M280,164.2a4.2,4.2,0,0,0,4.195,4.195v-.839a3.356,3.356,0,1,1,0-6.712v-.839A4.2,4.2,0,0,0,280,164.2Zm0,0" transform="translate(-265.315 -151.618)" fill="#fff"/>
  <path id="Path_573" data-name="Path 573" d="M24.989,8.465,12.824.075a.417.417,0,0,0-.476,0L.183,8.465a.42.42,0,0,0,.238.765H2.1v13a.42.42,0,0,0,.419.419H17.2v.839a1.678,1.678,0,0,0,3.356,0v-.839h2.1a.42.42,0,0,0,.419-.419V16.688a5.848,5.848,0,0,0,.618-7.458h1.06a.42.42,0,0,0,.238-.765ZM12.586.93,23.4,8.391H22.98a5.85,5.85,0,0,0-4.1-1.678c-.113,0-.223.01-.336.017L12.815,3.005a.42.42,0,0,0-.457,0L4.071,8.391h-2.3ZM2.938,9.23H4.2a.421.421,0,0,0,.229-.068l8.161-5.305,4.728,3.074a5.878,5.878,0,0,0-4.287,5.235H8.811a.42.42,0,0,0-.419.419v9.229H2.938ZM9.23,21.814V13.005h3.8a5.873,5.873,0,0,0,2.915,4.659v4.15Zm7.551,0v-3.75a5.842,5.842,0,0,0,.839.255v.559a.42.42,0,0,0-.419.419v2.517Zm1.678-3.377c.139.01.278.022.419.022s.28-.011.419-.022v.441h-.839Zm1.258,5.055a.839.839,0,1,1-1.678,0V19.717h1.678Zm.839-1.678V19.3a.42.42,0,0,0-.419-.419v-.559a5.843,5.843,0,0,0,2.1-.923v4.418ZM18.878,17.62a5.034,5.034,0,1,1,5.034-5.034A5.034,5.034,0,0,1,18.878,17.62Zm0,0" transform="translate(-0.002 -0.001)" fill="#fff"/>
  <path id="Path_574" data-name="Path 574" d="M192,296.008h.839v2.517H192Zm0,0" transform="translate(-181.929 -280.487)" fill="#fff"/>
</svg>
