<svg id="home-search" xmlns="http://www.w3.org/2000/svg" width="23.909" height="23.91" viewBox="0 0 23.909 23.91">
  <path id="Path_572" data-name="Path 572" d="M280,163.993a3.989,3.989,0,0,0,3.985,3.985v-.8a3.188,3.188,0,0,1,0-6.376v-.8A3.989,3.989,0,0,0,280,163.993Zm0,0" transform="translate(-266.049 -152.037)" fill="#586683"/>
  <path id="Path_573" data-name="Path 573" d="M23.739,8.042,12.183.072a.4.4,0,0,0-.452,0L.174,8.042A.4.4,0,0,0,.4,8.768H1.994V21.122a.4.4,0,0,0,.4.4H16.34v.8a1.594,1.594,0,1,0,3.188,0v-.8h1.993a.4.4,0,0,0,.4-.4V15.853a5.556,5.556,0,0,0,.587-7.085h1.007a.4.4,0,0,0,.226-.727ZM11.957.884,22.234,7.971h-.4a5.557,5.557,0,0,0-3.9-1.594c-.107,0-.212.01-.319.016L12.174,2.855a.4.4,0,0,0-.434,0L3.867,7.971H1.68ZM2.791,8.768h1.2A.4.4,0,0,0,4.2,8.7l7.753-5.04,4.491,2.92a5.584,5.584,0,0,0-4.072,4.973H8.37a.4.4,0,0,0-.4.4v8.767H2.791ZM8.769,20.723V12.355h3.607a5.579,5.579,0,0,0,2.769,4.426v3.943Zm7.173,0V17.161a5.549,5.549,0,0,0,.8.242v.531a.4.4,0,0,0-.4.4v2.391Zm1.594-3.208c.132.01.264.02.4.02s.266-.011.4-.02v.419h-.8Zm1.2,4.8a.8.8,0,1,1-1.594,0V18.731h1.594Zm.8-1.594V18.332a.4.4,0,0,0-.4-.4V17.4a5.551,5.551,0,0,0,1.993-.877v4.2Zm-1.594-3.985a4.782,4.782,0,1,1,4.782-4.782A4.782,4.782,0,0,1,17.934,16.738Zm0,0" transform="translate(-0.002 -0.001)" fill="#586683"/>
  <path id="Path_574" data-name="Path 574" d="M192,296.008h.8V298.4H192Zm0,0" transform="translate(-182.432 -281.263)" fill="#586683"/>
</svg>
