<svg xmlns="http://www.w3.org/2000/svg" width="561.149" height="486.651" viewBox="0 0 561.149 486.651">
  <g id="home" transform="translate(0 -12.676)">
    <g id="Group_2" data-name="Group 2">
      <g id="Group_1" data-name="Group 1">
        <path id="Path_1" data-name="Path 1" d="M503.4,228.885,273.684,19.567a26.135,26.135,0,0,0-35.367,0L8.6,228.886a26.255,26.255,0,0,0,17.685,45.661h36.69V484.268A15.058,15.058,0,0,0,78.03,499.325H203.944A15.057,15.057,0,0,0,219,484.268V356.932h74V484.269a15.058,15.058,0,0,0,15.057,15.057H433.968a15.057,15.057,0,0,0,15.057-15.057V274.547h36.7a26.253,26.253,0,0,0,17.68-45.662Z" fill="#36c"/>
      </g>
    </g>
    <g id="Group_4" data-name="Group 4" transform="translate(21.524 22)">
      <g id="Group_3" data-name="Group 3" transform="translate(343.797 42.73)">
        <path id="Path_2" data-name="Path 2" d="M416.085,42.73h-62.2c-18.041,0-6.162,37.358-6.162,37.358l-3.8-22.3s-.282,56.787,0,90.58c.349,41.771,82.908,42.688,82.908,42.688V57.786a18.873,18.873,0,0,0-2.939-10.346A9.534,9.534,0,0,0,416.085,42.73Z" transform="translate(-343.797 -42.73)" fill="#36c"/>
      </g>
    </g>
  </g>
</svg>
