<svg xmlns="http://www.w3.org/2000/svg" width="405.336" height="512" viewBox="0 0 405.336 512">
  <g id="home-search-white" transform="translate(-53.332)">
    <g id="Group_2" data-name="Group 2">
      <g id="Group_1" data-name="Group 1">
        <path id="Path_1" data-name="Path 1" d="M370.8,323.349a10.667,10.667,0,0,0-15.04-1.216,170.777,170.777,0,0,1-110.432,40.533c-94.1,0-170.667-76.565-170.667-170.667S151.231,21.333,245.332,21.333A169.856,169.856,0,0,1,303.124,31.37a10.664,10.664,0,1,0,7.232-20.064A191.007,191.007,0,0,0,245.332,0c-105.867,0-192,86.133-192,192s86.133,192,192,192a192.1,192.1,0,0,0,124.245-45.621A10.655,10.655,0,0,0,370.8,323.349Z" fill="#fff"/>
      </g>
    </g>
    <g id="Group_4" data-name="Group 4">
      <g id="Group_3" data-name="Group 3">
        <path id="Path_2" data-name="Path 2" d="M245.332,362.667a10.664,10.664,0,0,0-10.667,10.667V416A10.667,10.667,0,0,0,256,416V373.333A10.664,10.664,0,0,0,245.332,362.667Z" fill="#fff"/>
      </g>
    </g>
    <g id="Group_6" data-name="Group 6">
      <g id="Group_5" data-name="Group 5">
        <path id="Path_3" data-name="Path 3" d="M256,405.333H234.666a32.039,32.039,0,0,0-32,32v64a10.667,10.667,0,0,0,21.334,0v-64a10.678,10.678,0,0,1,10.667-10.667H256a10.678,10.678,0,0,1,10.667,10.667v64a10.667,10.667,0,0,0,21.334,0v-64A32.043,32.043,0,0,0,256,405.333Z" fill="#fff"/>
      </g>
    </g>
    <g id="Group_8" data-name="Group 8">
      <g id="Group_7" data-name="Group 7">
        <path id="Path_4" data-name="Path 4" d="M245.332,320a128,128,0,0,1,0-256,10.667,10.667,0,0,0,0-21.334C162.985,42.666,96,109.653,96,192s66.987,149.333,149.333,149.333a10.666,10.666,0,1,0,0-21.332Z" fill="#fff"/>
      </g>
    </g>
    <g id="Group_10" data-name="Group 10">
      <g id="Group_9" data-name="Group 9">
        <path id="Path_5" data-name="Path 5" d="M455.54,163.125,348.873,56.459a10.655,10.655,0,0,0-15.083,0L227.124,163.125a10.665,10.665,0,0,0,15.083,15.083l99.125-99.125,99.125,99.125a10.665,10.665,0,0,0,15.083-15.083Z" fill="#fff"/>
      </g>
    </g>
    <g id="Group_12" data-name="Group 12">
      <g id="Group_11" data-name="Group 11">
        <path id="Path_6" data-name="Path 6" d="M416,128a10.664,10.664,0,0,0-10.667,10.667V256c0,8.6-5.867,10.539-10.667,10.667H373.332V213.334a10.664,10.664,0,0,0-10.667-10.667H320a10.664,10.664,0,0,0-10.667,10.667v53.333H288c-8.587,0-10.539-5.867-10.667-10.667V138.667a10.667,10.667,0,1,0-21.334,0V256c0,12.864,8.523,32,32,32h32a10.664,10.664,0,0,0,10.667-10.667V224H352v53.333A10.664,10.664,0,0,0,362.664,288h32c12.864,0,32-8.523,32-32V138.667A10.662,10.662,0,0,0,416,128Z" fill="#fff"/>
      </g>
    </g>
    <g id="Group_14" data-name="Group 14">
      <g id="Group_13" data-name="Group 13">
        <path id="Path_7" data-name="Path 7" d="M352,149.333H330.666a10.667,10.667,0,0,0,0,21.334H352a10.667,10.667,0,0,0,0-21.334Z" fill="#fff"/>
      </g>
    </g>
  </g>
</svg>
