<svg xmlns="http://www.w3.org/2000/svg" width="19.322" height="19" viewBox="0 0 19.322 19">
  <g id="hotel" transform="translate(0 -4)">
    <g id="Group_191" data-name="Group 191" transform="translate(0 4)">
      <g id="Group_190" data-name="Group 190" transform="translate(0 0)">
        <path id="Path_79" data-name="Path 79" d="M19,6.9H15.458V4.322A.322.322,0,0,0,15.136,4H4.186a.322.322,0,0,0-.322.322V8.83H.322A.322.322,0,0,0,0,9.153v13.2a.322.322,0,1,0,.644,0V9.475h3.22v13.2A.322.322,0,0,0,4.186,23H15.136a.322.322,0,0,0,.322-.322V7.542h3.22V22.356a.322.322,0,0,0,.644,0V7.22A.322.322,0,0,0,19,6.9ZM9.339,22.356H8.051v-2.9H9.339Zm1.932,0H9.983v-2.9h1.288Zm3.542,0h-2.9v-3.22a.322.322,0,0,0-.322-.322H7.729a.322.322,0,0,0-.322.322v3.22h-2.9V4.644H14.814Z" transform="translate(0 -4)"/>
      </g>
    </g>
    <g id="Group_193" data-name="Group 193" transform="translate(5.153 5.288)">
      <g id="Group_192" data-name="Group 192" transform="translate(0 0)">
        <path id="Path_80" data-name="Path 80" d="M130.254,36h-1.932a.322.322,0,0,0-.322.322v1.932a.322.322,0,0,0,.322.322h1.932a.322.322,0,0,0,.322-.322V36.322A.322.322,0,0,0,130.254,36Zm-.322,1.932h-1.288V36.644h1.288Z" transform="translate(-128 -36)"/>
      </g>
    </g>
    <g id="Group_195" data-name="Group 195" transform="translate(8.373 5.288)">
      <g id="Group_194" data-name="Group 194" transform="translate(0 0)">
        <path id="Path_81" data-name="Path 81" d="M210.254,36h-1.932a.322.322,0,0,0-.322.322v1.932a.322.322,0,0,0,.322.322h1.932a.322.322,0,0,0,.322-.322V36.322A.322.322,0,0,0,210.254,36Zm-.322,1.932h-1.288V36.644h1.288Z" transform="translate(-208 -36)"/>
      </g>
    </g>
    <g id="Group_197" data-name="Group 197" transform="translate(11.593 5.288)">
      <g id="Group_196" data-name="Group 196" transform="translate(0 0)">
        <path id="Path_82" data-name="Path 82" d="M290.254,36h-1.932a.322.322,0,0,0-.322.322v1.932a.322.322,0,0,0,.322.322h1.932a.322.322,0,0,0,.322-.322V36.322A.322.322,0,0,0,290.254,36Zm-.322,1.932h-1.288V36.644h1.288Z" transform="translate(-288 -36)"/>
      </g>
    </g>
    <g id="Group_199" data-name="Group 199" transform="translate(5.153 8.508)">
      <g id="Group_198" data-name="Group 198">
        <path id="Path_83" data-name="Path 83" d="M130.254,116h-1.932a.322.322,0,0,0-.322.322v1.932a.322.322,0,0,0,.322.322h1.932a.322.322,0,0,0,.322-.322v-1.932A.322.322,0,0,0,130.254,116Zm-.322,1.932h-1.288v-1.288h1.288Z" transform="translate(-128 -116)"/>
      </g>
    </g>
    <g id="Group_201" data-name="Group 201" transform="translate(8.373 8.508)">
      <g id="Group_200" data-name="Group 200">
        <path id="Path_84" data-name="Path 84" d="M210.254,116h-1.932a.322.322,0,0,0-.322.322v1.932a.322.322,0,0,0,.322.322h1.932a.322.322,0,0,0,.322-.322v-1.932A.322.322,0,0,0,210.254,116Zm-.322,1.932h-1.288v-1.288h1.288Z" transform="translate(-208 -116)"/>
      </g>
    </g>
    <g id="Group_203" data-name="Group 203" transform="translate(11.593 8.508)">
      <g id="Group_202" data-name="Group 202">
        <path id="Path_85" data-name="Path 85" d="M290.254,116h-1.932a.322.322,0,0,0-.322.322v1.932a.322.322,0,0,0,.322.322h1.932a.322.322,0,0,0,.322-.322v-1.932A.322.322,0,0,0,290.254,116Zm-.322,1.932h-1.288v-1.288h1.288Z" transform="translate(-288 -116)"/>
      </g>
    </g>
    <g id="Group_205" data-name="Group 205" transform="translate(5.153 11.729)">
      <g id="Group_204" data-name="Group 204" transform="translate(0 0)">
        <path id="Path_86" data-name="Path 86" d="M130.254,196h-1.932a.322.322,0,0,0-.322.322v1.932a.322.322,0,0,0,.322.322h1.932a.322.322,0,0,0,.322-.322v-1.932A.322.322,0,0,0,130.254,196Zm-.322,1.932h-1.288v-1.288h1.288Z" transform="translate(-128 -196)"/>
      </g>
    </g>
    <g id="Group_207" data-name="Group 207" transform="translate(8.373 11.729)">
      <g id="Group_206" data-name="Group 206" transform="translate(0 0)">
        <path id="Path_87" data-name="Path 87" d="M210.254,196h-1.932a.322.322,0,0,0-.322.322v1.932a.322.322,0,0,0,.322.322h1.932a.322.322,0,0,0,.322-.322v-1.932A.322.322,0,0,0,210.254,196Zm-.322,1.932h-1.288v-1.288h1.288Z" transform="translate(-208 -196)"/>
      </g>
    </g>
    <g id="Group_209" data-name="Group 209" transform="translate(11.593 11.729)">
      <g id="Group_208" data-name="Group 208" transform="translate(0 0)">
        <path id="Path_88" data-name="Path 88" d="M290.254,196h-1.932a.322.322,0,0,0-.322.322v1.932a.322.322,0,0,0,.322.322h1.932a.322.322,0,0,0,.322-.322v-1.932A.322.322,0,0,0,290.254,196Zm-.322,1.932h-1.288v-1.288h1.288Z" transform="translate(-288 -196)"/>
      </g>
    </g>
    <g id="Group_211" data-name="Group 211" transform="translate(5.153 14.949)">
      <g id="Group_210" data-name="Group 210">
        <path id="Path_89" data-name="Path 89" d="M130.254,276h-1.932a.322.322,0,0,0-.322.322v1.932a.322.322,0,0,0,.322.322h1.932a.322.322,0,0,0,.322-.322v-1.932A.322.322,0,0,0,130.254,276Zm-.322,1.932h-1.288v-1.288h1.288Z" transform="translate(-128 -276)"/>
      </g>
    </g>
    <g id="Group_213" data-name="Group 213" transform="translate(8.373 14.949)">
      <g id="Group_212" data-name="Group 212">
        <path id="Path_90" data-name="Path 90" d="M210.254,276h-1.932a.322.322,0,0,0-.322.322v1.932a.322.322,0,0,0,.322.322h1.932a.322.322,0,0,0,.322-.322v-1.932A.322.322,0,0,0,210.254,276Zm-.322,1.932h-1.288v-1.288h1.288Z" transform="translate(-208 -276)"/>
      </g>
    </g>
    <g id="Group_215" data-name="Group 215" transform="translate(11.593 14.949)">
      <g id="Group_214" data-name="Group 214">
        <path id="Path_91" data-name="Path 91" d="M290.254,276h-1.932a.322.322,0,0,0-.322.322v1.932a.322.322,0,0,0,.322.322h1.932a.322.322,0,0,0,.322-.322v-1.932A.322.322,0,0,0,290.254,276Zm-.322,1.932h-1.288v-1.288h1.288Z" transform="translate(-288 -276)"/>
      </g>
    </g>
    <g id="Group_217" data-name="Group 217" transform="translate(1.288 10.119)">
      <g id="Group_216" data-name="Group 216">
        <path id="Path_92" data-name="Path 92" d="M32.644,156h-.322a.322.322,0,0,0-.322.322v.322a.322.322,0,0,0,.322.322h.322a.322.322,0,0,0,.322-.322v-.322A.322.322,0,0,0,32.644,156Z" transform="translate(-32 -156)"/>
      </g>
    </g>
    <g id="Group_219" data-name="Group 219" transform="translate(2.576 10.119)">
      <g id="Group_218" data-name="Group 218">
        <path id="Path_93" data-name="Path 93" d="M64.644,156h-.322a.322.322,0,0,0-.322.322v.322a.322.322,0,0,0,.322.322h.322a.322.322,0,0,0,.322-.322v-.322A.322.322,0,0,0,64.644,156Z" transform="translate(-64 -156)"/>
      </g>
    </g>
    <g id="Group_221" data-name="Group 221" transform="translate(1.288 11.407)">
      <g id="Group_220" data-name="Group 220" transform="translate(0 0)">
        <path id="Path_94" data-name="Path 94" d="M32.644,188h-.322a.322.322,0,0,0-.322.322v.322a.322.322,0,0,0,.322.322h.322a.322.322,0,0,0,.322-.322v-.322A.322.322,0,0,0,32.644,188Z" transform="translate(-32 -188)"/>
      </g>
    </g>
    <g id="Group_223" data-name="Group 223" transform="translate(2.576 11.407)">
      <g id="Group_222" data-name="Group 222" transform="translate(0 0)">
        <path id="Path_95" data-name="Path 95" d="M64.644,188h-.322a.322.322,0,0,0-.322.322v.322a.322.322,0,0,0,.322.322h.322a.322.322,0,0,0,.322-.322v-.322A.322.322,0,0,0,64.644,188Z" transform="translate(-64 -188)"/>
      </g>
    </g>
    <g id="Group_225" data-name="Group 225" transform="translate(1.288 12.695)">
      <g id="Group_224" data-name="Group 224">
        <path id="Path_96" data-name="Path 96" d="M32.644,220h-.322a.322.322,0,0,0-.322.322v.322a.322.322,0,0,0,.322.322h.322a.322.322,0,0,0,.322-.322v-.322A.322.322,0,0,0,32.644,220Z" transform="translate(-32 -220)"/>
      </g>
    </g>
    <g id="Group_227" data-name="Group 227" transform="translate(2.576 12.695)">
      <g id="Group_226" data-name="Group 226">
        <path id="Path_97" data-name="Path 97" d="M64.644,220h-.322a.322.322,0,0,0-.322.322v.322a.322.322,0,0,0,.322.322h.322a.322.322,0,0,0,.322-.322v-.322A.322.322,0,0,0,64.644,220Z" transform="translate(-64 -220)"/>
      </g>
    </g>
    <g id="Group_229" data-name="Group 229" transform="translate(1.288 13.983)">
      <g id="Group_228" data-name="Group 228">
        <path id="Path_98" data-name="Path 98" d="M32.644,252h-.322a.322.322,0,0,0-.322.322v.322a.322.322,0,0,0,.322.322h.322a.322.322,0,0,0,.322-.322v-.322A.322.322,0,0,0,32.644,252Z" transform="translate(-32 -252)"/>
      </g>
    </g>
    <g id="Group_231" data-name="Group 231" transform="translate(2.576 13.983)">
      <g id="Group_230" data-name="Group 230">
        <path id="Path_99" data-name="Path 99" d="M64.644,252h-.322a.322.322,0,0,0-.322.322v.322a.322.322,0,0,0,.322.322h.322a.322.322,0,0,0,.322-.322v-.322A.322.322,0,0,0,64.644,252Z" transform="translate(-64 -252)"/>
      </g>
    </g>
    <g id="Group_233" data-name="Group 233" transform="translate(1.288 15.271)">
      <g id="Group_232" data-name="Group 232">
        <path id="Path_100" data-name="Path 100" d="M32.644,284h-.322a.322.322,0,0,0-.322.322v.322a.322.322,0,0,0,.322.322h.322a.322.322,0,0,0,.322-.322v-.322A.322.322,0,0,0,32.644,284Z" transform="translate(-32 -284)"/>
      </g>
    </g>
    <g id="Group_235" data-name="Group 235" transform="translate(2.576 15.271)">
      <g id="Group_234" data-name="Group 234">
        <path id="Path_101" data-name="Path 101" d="M64.644,284h-.322a.322.322,0,0,0-.322.322v.322a.322.322,0,0,0,.322.322h.322a.322.322,0,0,0,.322-.322v-.322A.322.322,0,0,0,64.644,284Z" transform="translate(-64 -284)"/>
      </g>
    </g>
    <g id="Group_237" data-name="Group 237" transform="translate(1.288 16.559)">
      <g id="Group_236" data-name="Group 236">
        <path id="Path_102" data-name="Path 102" d="M32.644,316h-.322a.322.322,0,0,0-.322.322v.322a.322.322,0,0,0,.322.322h.322a.322.322,0,0,0,.322-.322v-.322A.322.322,0,0,0,32.644,316Z" transform="translate(-32 -316)"/>
      </g>
    </g>
    <g id="Group_239" data-name="Group 239" transform="translate(2.576 16.559)">
      <g id="Group_238" data-name="Group 238">
        <path id="Path_103" data-name="Path 103" d="M64.644,316h-.322a.322.322,0,0,0-.322.322v.322a.322.322,0,0,0,.322.322h.322a.322.322,0,0,0,.322-.322v-.322A.322.322,0,0,0,64.644,316Z" transform="translate(-64 -316)"/>
      </g>
    </g>
    <g id="Group_241" data-name="Group 241" transform="translate(1.288 17.847)">
      <g id="Group_240" data-name="Group 240" transform="translate(0 0)">
        <path id="Path_104" data-name="Path 104" d="M32.644,348h-.322a.322.322,0,0,0-.322.322v.322a.322.322,0,0,0,.322.322h.322a.322.322,0,0,0,.322-.322v-.322A.322.322,0,0,0,32.644,348Z" transform="translate(-32 -348)"/>
      </g>
    </g>
    <g id="Group_243" data-name="Group 243" transform="translate(2.576 17.847)">
      <g id="Group_242" data-name="Group 242" transform="translate(0 0)">
        <path id="Path_105" data-name="Path 105" d="M64.644,348h-.322a.322.322,0,0,0-.322.322v.322a.322.322,0,0,0,.322.322h.322a.322.322,0,0,0,.322-.322v-.322A.322.322,0,0,0,64.644,348Z" transform="translate(-64 -348)"/>
      </g>
    </g>
    <g id="Group_245" data-name="Group 245" transform="translate(1.288 19.136)">
      <g id="Group_244" data-name="Group 244" transform="translate(0 0)">
        <path id="Path_106" data-name="Path 106" d="M32.644,380h-.322a.322.322,0,0,0-.322.322v.322a.322.322,0,0,0,.322.322h.322a.322.322,0,0,0,.322-.322v-.322A.322.322,0,0,0,32.644,380Z" transform="translate(-32 -380)"/>
      </g>
    </g>
    <g id="Group_247" data-name="Group 247" transform="translate(2.576 19.136)">
      <g id="Group_246" data-name="Group 246" transform="translate(0 0)">
        <path id="Path_107" data-name="Path 107" d="M64.644,380h-.322a.322.322,0,0,0-.322.322v.322a.322.322,0,0,0,.322.322h.322a.322.322,0,0,0,.322-.322v-.322A.322.322,0,0,0,64.644,380Z" transform="translate(-64 -380)"/>
      </g>
    </g>
    <g id="Group_249" data-name="Group 249" transform="translate(1.288 20.424)">
      <g id="Group_248" data-name="Group 248">
        <path id="Path_108" data-name="Path 108" d="M32.644,412h-.322a.322.322,0,0,0-.322.322v.322a.322.322,0,0,0,.322.322h.322a.322.322,0,0,0,.322-.322v-.322A.322.322,0,0,0,32.644,412Z" transform="translate(-32 -412)"/>
      </g>
    </g>
    <g id="Group_251" data-name="Group 251" transform="translate(2.576 20.424)">
      <g id="Group_250" data-name="Group 250">
        <path id="Path_109" data-name="Path 109" d="M64.644,412h-.322a.322.322,0,0,0-.322.322v.322a.322.322,0,0,0,.322.322h.322a.322.322,0,0,0,.322-.322v-.322A.322.322,0,0,0,64.644,412Z" transform="translate(-64 -412)"/>
      </g>
    </g>
    <g id="Group_253" data-name="Group 253" transform="translate(16.102 8.186)">
      <g id="Group_252" data-name="Group 252">
        <path id="Path_110" data-name="Path 110" d="M401.61,108h-1.288a.322.322,0,0,0-.322.322v1.288a.322.322,0,0,0,.322.322h1.288a.322.322,0,0,0,.322-.322v-1.288A.322.322,0,0,0,401.61,108Zm-.322,1.288h-.644v-.644h.644Z" transform="translate(-400 -108)"/>
      </g>
    </g>
    <g id="Group_255" data-name="Group 255" transform="translate(16.102 10.763)">
      <g id="Group_254" data-name="Group 254" transform="translate(0 0)">
        <path id="Path_111" data-name="Path 111" d="M401.61,172h-1.288a.322.322,0,0,0-.322.322v1.288a.322.322,0,0,0,.322.322h1.288a.322.322,0,0,0,.322-.322v-1.288A.322.322,0,0,0,401.61,172Zm-.322,1.288h-.644v-.644h.644Z" transform="translate(-400 -172)"/>
      </g>
    </g>
    <g id="Group_257" data-name="Group 257" transform="translate(16.102 13.339)">
      <g id="Group_256" data-name="Group 256">
        <path id="Path_112" data-name="Path 112" d="M401.61,236h-1.288a.322.322,0,0,0-.322.322v1.288a.322.322,0,0,0,.322.322h1.288a.322.322,0,0,0,.322-.322v-1.288A.322.322,0,0,0,401.61,236Zm-.322,1.288h-.644v-.644h.644Z" transform="translate(-400 -236)"/>
      </g>
    </g>
    <g id="Group_259" data-name="Group 259" transform="translate(16.102 15.915)">
      <g id="Group_258" data-name="Group 258">
        <path id="Path_113" data-name="Path 113" d="M401.61,300h-1.288a.322.322,0,0,0-.322.322v1.288a.322.322,0,0,0,.322.322h1.288a.322.322,0,0,0,.322-.322v-1.288A.322.322,0,0,0,401.61,300Zm-.322,1.288h-.644v-.644h.644Z" transform="translate(-400 -300)"/>
      </g>
    </g>
    <g id="Group_261" data-name="Group 261" transform="translate(16.102 18.491)">
      <g id="Group_260" data-name="Group 260" transform="translate(0 0)">
        <path id="Path_114" data-name="Path 114" d="M401.61,364h-1.288a.322.322,0,0,0-.322.322v1.288a.322.322,0,0,0,.322.322h1.288a.322.322,0,0,0,.322-.322v-1.288A.322.322,0,0,0,401.61,364Zm-.322,1.288h-.644v-.644h.644Z" transform="translate(-400 -364)"/>
      </g>
    </g>
  </g>
</svg>
