<svg xmlns="http://www.w3.org/2000/svg" width="21.828" height="20" viewBox="0 0 21.828 20">
  <g id="house-with-hearth-svgrepo-com" transform="translate(0 -16.833)">
    <path id="Path_115" data-name="Path 115" d="M57.434,182.622h5.231a.434.434,0,0,0,0-.869h-.036v-4.819a.434.434,0,0,0-.434-.434H57.9a.434.434,0,0,0-.434.434v4.819h-.036a.434.434,0,0,0,0,.869Zm4.326-5.253v1.758H58.339v-1.758ZM58.339,180H61.76v1.758H58.339Z" transform="translate(-53.905 -150.997)"/>
    <path id="Path_116" data-name="Path 116" d="M218.411,273.374a.433.433,0,1,0,.128.307A.437.437,0,0,0,218.411,273.374Z" transform="translate(-205.851 -242.49)"/>
    <path id="Path_117" data-name="Path 117" d="M21.394,35.964H20.9V24.5l.24.12a.434.434,0,0,0,.629-.388V22.485a.434.434,0,0,0-.24-.388l-1.95-.976V17.7a.434.434,0,0,0-.434-.434H16.14a.434.434,0,0,0-.434.434V19.18l-4.6-2.3a.434.434,0,0,0-.389,0L.294,22.1a.434.434,0,0,0-.24.389v1.745a.434.434,0,0,0,.629.389l.24-.12V35.964H.434a.434.434,0,1,0,0,.869H21.394a.434.434,0,0,0,0-.869ZM11.348,26.371h4.778v9.593H11.348ZM17,33.335h3.041v2.629H17Zm-.421-15.2h2.14v2.554l-2.14-1.071ZM.923,22.753l9.991-5,9.991,5v.773l-9.8-4.9a.434.434,0,0,0-.389,0l-9.8,4.9ZM10.914,19.5l9.122,4.565v8.4H17V25.937a.434.434,0,0,0-.434-.434H10.914a.434.434,0,0,0-.434.434v6.529H1.792v-8.4ZM1.792,33.335H10.48v2.629H1.792Z"/>
  </g>
</svg>
