<svg id="icon-customers-w" xmlns="http://www.w3.org/2000/svg" width="25.215" height="15.066" viewBox="0 0 25.215 15.066">
  <path id="Shape" d="M12.106,7.388h.041c3.309-.036,2.829-4.455,2.829-4.455A2.728,2.728,0,0,0,12.127.015a2.73,2.73,0,0,0-2.85,2.917C9.277,2.938,8.8,7.357,12.106,7.388Z" transform="translate(0.48 -0.014)" fill="#fff"/>
  <path id="Shape-2" data-name="Shape" d="M19.441,8.75h.031c2.659-.026,2.277-3.583,2.277-3.583a2.2,2.2,0,0,0-2.292-2.349,2.2,2.2,0,0,0-2.292,2.349C17.164,5.172,16.777,8.724,19.441,8.75Z" transform="translate(0.89 0.131)" fill="#fff"/>
  <path id="Shape-3" data-name="Shape" d="M25.21,12.1a1.856,1.856,0,0,0-.95-1.786c-1.038-.651-2.2-1.213-2.2-1.213l-.924,2.922L20.6,10.488c.945-1.322-.067-1.389-.248-1.389h-.01c-.181,0-1.193.067-.248,1.389l-.537,1.528-.924-2.922s-.33.16-.8.408a3.424,3.424,0,0,0-.361-.258c-1.291-.811-2.731-1.513-2.731-1.513L13.6,11.36l-.671-1.905c1.177-1.642-.083-1.724-.31-1.73h-.01c-.227,0-1.487.083-.31,1.73l-.671,1.905L10.48,7.731s-1.44.7-2.731,1.513a3.754,3.754,0,0,0-.367.263c-.47-.253-.805-.413-.805-.413l-.924,2.922-.537-1.528C6.061,9.166,5.049,9.1,4.869,9.1h-.01c-.181,0-1.193.067-.248,1.389l-.537,1.528L3.149,9.094s-1.162.563-2.2,1.213A1.847,1.847,0,0,0,0,12.094V14.68H25.215Z" transform="translate(0 0.386)" fill="#fff"/>
  <path id="Shape-4" data-name="Shape" d="M4.707,8.75h.031C7.4,8.724,7.015,5.167,7.015,5.167A2.2,2.2,0,0,0,4.723,2.818,2.2,2.2,0,0,0,2.43,5.167C2.43,5.172,2.048,8.724,4.707,8.75Z" transform="translate(0.125 0.131)" fill="#fff"/>
</svg>
