<svg xmlns="http://www.w3.org/2000/svg" width="437.6" height="264.4" viewBox="0 0 437.6 264.4">
  <g id="icon-tickets-white" transform="translate(0 -86.6)">
    <g id="Group_2" data-name="Group 2">
      <g id="Group_1" data-name="Group 1">
        <path id="Path_1" data-name="Path 1" d="M335.2,249H266c-56,0-102,46-102,102H437.6C437.6,295,391.6,249,335.2,249Z" fill="#9d9d9d"/>
        <circle id="Ellipse_1" data-name="Ellipse 1" cx="71.2" cy="71.2" r="71.2" transform="translate(229.6 86.6)" fill="#9d9d9d"/>
        <path id="Path_2" data-name="Path 2" d="M195.6,208.6V109A17.756,17.756,0,0,0,178,91.4H17.6A17.756,17.756,0,0,0,0,109v99.6a17.756,17.756,0,0,0,17.6,17.6H128l25.2,25.2c.8,1.2,2.4,1.6,4,1.6a5.468,5.468,0,0,0,5.6-5.6V226.2H178A17.756,17.756,0,0,0,195.6,208.6ZM40.8,177.4A16.221,16.221,0,0,1,24.4,161c.4-8.8,7.6-16.4,16.4-16.4a16.4,16.4,0,1,1,0,32.8Zm57.2,0A16.4,16.4,0,1,1,114.4,161,16.473,16.473,0,0,1,98,177.4Zm56.8,0A16.221,16.221,0,0,1,138.4,161a16.4,16.4,0,1,1,16.4,16.4Z" fill="#9d9d9d"/>
      </g>
    </g>
  </g>
</svg>
