<svg id="icon_notes" xmlns="http://www.w3.org/2000/svg" width="21.051" height="21.905" viewBox="0 0 21.051 21.905">
  <path id="Path_545" data-name="Path 545" d="M40.413,33.418l-1.071-1.071a1.15,1.15,0,0,0-1.587,0l-5.786,5.786-.8,2.924-.2.2a.375.375,0,0,0,0,.528l0,.008.007,0a.374.374,0,0,0,.529,0l.2-.2,2.924-.8L40.413,35A1.124,1.124,0,0,0,40.413,33.418Zm-7.576,4.909,3.85-3.85,1.6,1.6-3.85,3.85Zm-.339.724,1.21,1.21-1.665.454Zm7.383-4.578L38.814,35.54l-1.6-1.6,1.067-1.067a.379.379,0,0,1,.524,0l1.071,1.071A.371.371,0,0,1,39.881,34.473Z" transform="translate(-19.69 -19.989)" fill="#fff"/>
  <path id="Path_546" data-name="Path 546" d="M7.511,34.752h9.774a.376.376,0,1,0,0-.752H7.511a.376.376,0,1,0,0,.752Z" transform="translate(-4.88 -21.219)" fill="#fff"/>
  <path id="Path_547" data-name="Path 547" d="M15.781,40H7.511a.376.376,0,1,0,0,.752h8.27a.376.376,0,0,0,0-.752Z" transform="translate(-4.88 -24.963)" fill="#fff"/>
  <path id="Path_548" data-name="Path 548" d="M7.511,16.752H12.4a.376.376,0,1,0,0-.752H7.511a.376.376,0,0,0,0,.752Z" transform="translate(-4.88 -9.985)" fill="#fff"/>
  <path id="Path_549" data-name="Path 549" d="M12.4,46.752a.376.376,0,1,0,0-.752H7.511a.376.376,0,1,0,0,.752Z" transform="translate(-4.88 -28.708)" fill="#fff"/>
  <path id="Path_550" data-name="Path 550" d="M18.412,22H7.511a.376.376,0,1,0,0,.752h10.9a.376.376,0,1,0,0-.752Z" transform="translate(-4.88 -13.73)" fill="#fff"/>
  <path id="Path_551" data-name="Path 551" d="M7.511,28.752h5.263a.376.376,0,0,0,0-.752H7.511a.376.376,0,1,0,0,.752Z" transform="translate(-4.88 -17.474)" fill="#fff"/>
  <path id="Path_552" data-name="Path 552" d="M32.518,28.376A.376.376,0,0,0,32.142,28H29.511a.376.376,0,1,0,0,.752h2.631A.376.376,0,0,0,32.518,28.376Z" transform="translate(-18.609 -17.474)" fill="#fff"/>
  <path id="Path_553" data-name="Path 553" d="M25.778,28.65a.377.377,0,1,0-.643-.267.387.387,0,0,0,.109.267.381.381,0,0,0,.534,0Z" transform="translate(-16.113 -17.482)" fill="#fff"/>
  <path id="Path_554" data-name="Path 554" d="M10.533,21.051H1.887V3.007H4.518v.752a.376.376,0,0,0,.376.376H13.54a.376.376,0,0,0,.376-.376V3.007h2.631v8.27a.376.376,0,1,0,.752,0V2.631a.376.376,0,0,0-.376-.376H13.916V1.5a.376.376,0,0,0-.376-.376H11.285V.376A.376.376,0,0,0,10.909,0H7.526A.376.376,0,0,0,7.15.376v.752H4.894a.376.376,0,0,0-.376.376v.752H1.511a.376.376,0,0,0-.376.376v18.8a.376.376,0,0,0,.376.376h9.022a.376.376,0,1,0,0-.752ZM7.9.752h2.631v1.5H7.9V.752ZM5.27,1.88H7.15v.752a.376.376,0,0,0,.376.376h3.383a.376.376,0,0,0,.376-.376V1.88h1.88v1.5H5.27V1.88Z" transform="translate(-1.135)" fill="#fff"/>
</svg>
