<svg xmlns="http://www.w3.org/2000/svg" width="19.141" height="22.969" viewBox="0 0 19.141 22.969">
  <path id="iconmonstr-customer-10" d="M6.779,14.381V12.627c0-1.239-.161-2.546,2.394-3.128.967-.219,2.292-.521,2.509-1,.023-.049.091-.2-.1-.557-1.37-2.525-1.625-4.752-.722-6.27A3.492,3.492,0,0,1,13.969.026a3.484,3.484,0,0,1,3.089,1.621c.9,1.5.655,3.734-.7,6.291-.189.36-.12.512-.1.562.221.48,1.5.773,2.533,1.008,2.651.6,2.312,2.14,2.346,3.138v3.788a1.761,1.761,0,0,1-.583,1.3c-1.319,1.225-4.262,3.853-4.723,4.275a3.283,3.283,0,0,1-2.317.963,4.562,4.562,0,0,1-1.252-.191A25.3,25.3,0,0,0,6.785,21.72v1.275H2V14.381H6.779Zm-.951.957H2.957v6.7H5.828Zm.957,5.421a28.292,28.292,0,0,1,5.741,1.1,2.514,2.514,0,0,0,2.662-.556c1.224-1.122,2.605-2.309,4.717-4.271.789-.732-.17-1.706-.978-1.065,0,0-2.834,2.2-3.53,2.721a1.8,1.8,0,0,1-1.1.5,21.425,21.425,0,0,1-2.971-.711.431.431,0,1,1,.256-.821c.428.089,1.526.335,2.106.5.973.269,1.221-.83.4-1.1-.538-.182-.514-.189-1.808-.636a4.1,4.1,0,0,0-3.431-.149,15.859,15.859,0,0,1-2.071.779Zm13.4-5.805V12.636c.008-1.778-.257-1.887-1.607-2.2-1.426-.325-2.773-.632-3.191-1.542a1.545,1.545,0,0,1,.121-1.409c1.191-2.248,1.448-4.148.724-5.35A2.514,2.514,0,0,0,13.969.983,2.528,2.528,0,0,0,11.682,2.16c-.724,1.217-.461,3.108.741,5.326a1.531,1.531,0,0,1,.132,1.408c-.413.914-1.815,1.232-3.17,1.539s-1.65.4-1.643,2.2v3.063l.732-.311a4.451,4.451,0,0,1,1.806-.4c1.162,0,2.11.478,4.118,1.153a1.622,1.622,0,0,1,1.125,1.25c1.076-.826,2.795-2.16,2.811-2.172a1.837,1.837,0,0,1,1.148-.415,1.69,1.69,0,0,1,.707.155Z" transform="translate(-2 -0.026)" fill="#fff" fill-rule="evenodd"/>
</svg>
