<svg id="like" xmlns="http://www.w3.org/2000/svg" width="23.944" height="22.262" viewBox="0 0 23.944 22.262">
  <path id="Path_56" data-name="Path 56" d="M23.9,8.745c-.35-3.847-3.072-6.638-6.48-6.638a6.441,6.441,0,0,0-5.518,3.18A6.207,6.207,0,0,0,6.52,2.107C3.113,2.107.389,4.9.04,8.745a6.845,6.845,0,0,0,.2,2.523A10.82,10.82,0,0,0,3.559,16.8l8.342,7.57L20.385,16.8A10.821,10.821,0,0,0,23.7,11.267,6.86,6.86,0,0,0,23.9,8.745Zm-1.1,2.311a9.9,9.9,0,0,1-3.035,5.058L11.906,23.13,4.178,16.117A9.9,9.9,0,0,1,1.14,11.056,5.98,5.98,0,0,1,.949,8.891l.007-.047c.3-3.37,2.639-5.817,5.564-5.817a5.4,5.4,0,0,1,4.96,3.461L11.9,7.494l.424-1.005a5.563,5.563,0,0,1,5.1-3.46c2.925,0,5.265,2.447,5.57,5.861A5.974,5.974,0,0,1,22.8,11.057Z" transform="translate(0 -2.107)" fill="gray"/>
</svg>
