<svg xmlns="http://www.w3.org/2000/svg" width="23.938" height="22.263" viewBox="0 0 23.938 22.263">
  <g id="Group_1" data-name="Group 1" transform="translate(-392 -209)">
    <g id="Path_56" data-name="Path 56" transform="translate(392 209)">
      <path id="Path_56-2" data-name="Path 56" d="M23.9,8.745c-.35-3.847-3.072-6.638-6.48-6.638A6.441,6.441,0,0,0,11.9,5.287,6.207,6.207,0,0,0,6.52,2.107C3.113,2.107.389,4.9.04,8.745a6.845,6.845,0,0,0,.2,2.523A10.82,10.82,0,0,0,3.559,16.8L11.9,24.37l8.484-7.57A10.821,10.821,0,0,0,23.7,11.267a6.86,6.86,0,0,0,.2-2.522Zm-1.1,2.311a9.9,9.9,0,0,1-3.035,5.058L11.906,23.13,4.178,16.117A9.9,9.9,0,0,1,1.14,11.056,5.98,5.98,0,0,1,.949,8.891l.007-.047c.3-3.37,2.639-5.817,5.564-5.817a5.4,5.4,0,0,1,4.96,3.461l.42,1.006.424-1.005a5.563,5.563,0,0,1,5.1-3.46c2.925,0,5.265,2.447,5.57,5.861a5.974,5.974,0,0,1-.194,2.167Z" transform="translate(-0.001 -2.107)" fill="#36c"/>
    </g>
    <path id="Path_1" data-name="Path 1" d="M397.756,209.911c-5,2.923-4.243,4.715-4.243,4.715l-.471,2.075,1.226,4.055,3.489,3.489,3.961,3.678L404.074,230l2.357-2.075,5-5.186,1.886-1.509,1.886-5.186-1.886-4.621-3.866-1.509-3.018,1.037-2.357,2.546-.754.566-1.132-2.64-2.263-1.509Z" fill="#36c" stroke="#36c" stroke-width="1"/>
  </g>
</svg>
