<svg xmlns="http://www.w3.org/2000/svg" width="28.416" height="25.645" viewBox="0 0 28.416 25.645">
  <g id="list_4_" data-name="list (4)" transform="translate(0 -10.624)">
    <path id="Path_462" data-name="Path 462" d="M7.565,13.042,5.7,12.77l-.835-1.692a.815.815,0,0,0-1.462,0L2.565,12.77.7,13.042a.815.815,0,0,0-.452,1.39L1.6,15.749l-.319,1.86a.815.815,0,0,0,1.183.859l1.67-.878,1.67.878a.815.815,0,0,0,.379.094h0a.816.816,0,0,0,.789-1.019l-.308-1.794,1.351-1.317a.815.815,0,0,0-.452-1.39ZM5.22,14.881a.815.815,0,0,0-.234.722l.112.655-.588-.309a.815.815,0,0,0-.758,0l-.588.309.112-.655a.815.815,0,0,0-.234-.722l-.475-.463.657-.1a.815.815,0,0,0,.614-.446l.294-.6.294.6a.815.815,0,0,0,.614.446l.657.1Z" transform="translate(0 0)" fill="#586683"/>
    <path id="Path_463" data-name="Path 463" d="M7.565,148.825,5.7,148.553l-.835-1.692a.815.815,0,0,0-1.462,0l-.835,1.692L.7,148.825a.815.815,0,0,0-.452,1.39L1.6,151.532l-.319,1.86a.815.815,0,0,0,1.183.859l1.67-.878,1.67.878a.815.815,0,0,0,.379.094h0a.816.816,0,0,0,.789-1.019l-.308-1.794,1.351-1.317a.815.815,0,0,0-.452-1.39ZM5.22,150.664a.815.815,0,0,0-.234.722l.112.654-.588-.309a.815.815,0,0,0-.758,0l-.588.309.112-.654a.815.815,0,0,0-.234-.722l-.475-.463.657-.1a.815.815,0,0,0,.614-.446l.294-.6.294.6a.815.815,0,0,0,.614.446l.657.1Z" transform="translate(0 -118.076)" fill="#586683"/>
    <path id="Path_464" data-name="Path 464" d="M7.565,80.934,5.7,80.662,4.862,78.97a.815.815,0,0,0-1.462,0l-.835,1.692L.7,80.934a.815.815,0,0,0-.452,1.39L1.6,83.641,1.278,85.5a.815.815,0,0,0,1.183.859l1.67-.878,1.67.878a.815.815,0,0,0,.379.094h0a.816.816,0,0,0,.789-1.019l-.308-1.794,1.351-1.317a.815.815,0,0,0-.452-1.39ZM5.22,82.773a.815.815,0,0,0-.234.722l.112.655L4.51,83.84a.815.815,0,0,0-.758,0l-.588.309.112-.655a.815.815,0,0,0-.234-.722l-.475-.463.657-.1a.815.815,0,0,0,.614-.446l.294-.6.294.6a.815.815,0,0,0,.614.446l.657.1Z" transform="translate(0 -59.039)" fill="#586683"/>
    <path id="Path_465" data-name="Path 465" d="M80.588,35.516H96.666a.978.978,0,1,0,0-1.956H80.588a.978.978,0,1,0,0,1.956Z" transform="translate(-69.229 -19.945)" fill="#586683"/>
    <path id="Path_466" data-name="Path 466" d="M96.666,101.451H80.588a.978.978,0,1,0,0,1.956H96.666a.978.978,0,1,0,0-1.956Z" transform="translate(-69.229 -78.983)" fill="#586683"/>
    <path id="Path_467" data-name="Path 467" d="M96.666,169.342H80.588a.978.978,0,1,0,0,1.956H96.666a.978.978,0,1,0,0-1.956Z" transform="translate(-69.229 -138.021)" fill="#586683"/>
  </g>
</svg>
