<?xml version="1.0"?>
<svg xmlns="http://www.w3.org/2000/svg" xmlns:xlink="http://www.w3.org/1999/xlink" xmlns:svgjs="http://svgjs.com/svgjs" version="1.1" width="512" height="512" x="0" y="0" viewBox="0 0 24 24" style="enable-background:new 0 0 512 512" xml:space="preserve" class=""><g><path xmlns="http://www.w3.org/2000/svg" d="m4.5 6h-3c-.827 0-1.5-.673-1.5-1.5v-3c0-.827.673-1.5 1.5-1.5h3c.827 0 1.5.673 1.5 1.5v3c0 .827-.673 1.5-1.5 1.5zm-3-5c-.276 0-.5.225-.5.5v3c0 .275.224.5.5.5h3c.276 0 .5-.225.5-.5v-3c0-.275-.224-.5-.5-.5z" fill="#284c95" data-original="#000000" style="" class=""/><path xmlns="http://www.w3.org/2000/svg" d="m22.5 6h-13c-.827 0-1.5-.673-1.5-1.5v-3c0-.827.673-1.5 1.5-1.5h13c.827 0 1.5.673 1.5 1.5v3c0 .827-.673 1.5-1.5 1.5zm-13-5c-.276 0-.5.225-.5.5v3c0 .275.224.5.5.5h13c.276 0 .5-.225.5-.5v-3c0-.275-.224-.5-.5-.5z" fill="#284c95" data-original="#000000" style="" class=""/><path xmlns="http://www.w3.org/2000/svg" d="m4.5 15h-3c-.827 0-1.5-.673-1.5-1.5v-3c0-.827.673-1.5 1.5-1.5h3c.827 0 1.5.673 1.5 1.5v3c0 .827-.673 1.5-1.5 1.5zm-3-5c-.276 0-.5.225-.5.5v3c0 .275.224.5.5.5h3c.276 0 .5-.225.5-.5v-3c0-.275-.224-.5-.5-.5z" fill="#284c95" data-original="#000000" style="" class=""/><path xmlns="http://www.w3.org/2000/svg" d="m22.5 15h-13c-.827 0-1.5-.673-1.5-1.5v-3c0-.827.673-1.5 1.5-1.5h13c.827 0 1.5.673 1.5 1.5v3c0 .827-.673 1.5-1.5 1.5zm-13-5c-.276 0-.5.225-.5.5v3c0 .275.224.5.5.5h13c.276 0 .5-.225.5-.5v-3c0-.275-.224-.5-.5-.5z" fill="#284c95" data-original="#000000" style="" class=""/><path xmlns="http://www.w3.org/2000/svg" d="m4.5 24h-3c-.827 0-1.5-.673-1.5-1.5v-3c0-.827.673-1.5 1.5-1.5h3c.827 0 1.5.673 1.5 1.5v3c0 .827-.673 1.5-1.5 1.5zm-3-5c-.276 0-.5.225-.5.5v3c0 .275.224.5.5.5h3c.276 0 .5-.225.5-.5v-3c0-.275-.224-.5-.5-.5z" fill="#284c95" data-original="#000000" style="" class=""/><path xmlns="http://www.w3.org/2000/svg" d="m22.5 24h-13c-.827 0-1.5-.673-1.5-1.5v-3c0-.827.673-1.5 1.5-1.5h13c.827 0 1.5.673 1.5 1.5v3c0 .827-.673 1.5-1.5 1.5zm-13-5c-.276 0-.5.225-.5.5v3c0 .275.224.5.5.5h13c.276 0 .5-.225.5-.5v-3c0-.275-.224-.5-.5-.5z" fill="#284c95" data-original="#000000" style="" class=""/></g></svg>
