<svg xmlns="http://www.w3.org/2000/svg" width="15.83" height="17.015" viewBox="0 0 15.83 17.015">
  <g id="Group_1" data-name="Group 1" transform="translate(-635.17 -349)">
    <path id="logout_2_" data-name="logout (2)" d="M6.429,12.362H5.085v2.659A2.007,2.007,0,0,0,7.1,17.015h8.1a2.007,2.007,0,0,0,2.016-1.994V1.994A2.007,2.007,0,0,0,15.2,0H7.1A2.007,2.007,0,0,0,5.086,1.994V4.653H6.429V1.994A.671.671,0,0,1,7.1,1.326h8.1a.671.671,0,0,1,.675.667V15.021a.671.671,0,0,1-.675.667H7.1a.671.671,0,0,1-.675-.667ZM3.171,5.374Z" transform="translate(633.788 349)" fill="#fff"/>
    <path id="logout_2_2" data-name="logout (2)" d="M13.776,5.636l-.893.893,1.449,1.449H6.17V9.244h8.166l-1.449,1.449.893.893L16.755,8.61Zm0,0" transform="translate(629 349)" fill="#fff"/>
  </g>
</svg>
