<svg xmlns="http://www.w3.org/2000/svg" width="312.855" height="233.145" viewBox="0 0 312.855 233.145">
  <g id="login" transform="translate(-16.18 -11.75)">
    <g id="Group_310" data-name="Group 310" transform="translate(16.18 11.75)">
      <g id="Group_300" data-name="Group 300">
        <rect id="Rectangle_174" data-name="Rectangle 174" width="312.855" height="0.154" transform="translate(0 204.886)" fill="#e7e7e7"/>
        <rect id="Rectangle_175" data-name="Rectangle 175" width="20.725" height="0.154" transform="translate(57.38 214.352)" fill="#e7e7e7"/>
        <rect id="Rectangle_176" data-name="Rectangle 176" width="12.008" height="0.154" transform="translate(38.808 214.352)" fill="#e7e7e7"/>
        <rect id="Rectangle_177" data-name="Rectangle 177" width="12.008" height="0.154" transform="translate(119.737 216.654)" fill="#e7e7e7"/>
        <rect id="Rectangle_178" data-name="Rectangle 178" width="27.027" height="0.154" transform="translate(167.329 220.146)" fill="#e7e7e7"/>
        <rect id="Rectangle_179" data-name="Rectangle 179" width="3.96" height="0.154" transform="translate(157.796 220.146)" fill="#e7e7e7"/>
        <rect id="Rectangle_180" data-name="Rectangle 180" width="58.611" height="0.154" transform="translate(225.043 216.654)" fill="#e7e7e7"/>
        <g id="Group_299" data-name="Group 299" transform="translate(23.903)">
          <path id="Path_188" data-name="Path 188" d="M176.3,188.732H55.482a3.576,3.576,0,0,1-3.572-3.572V15.322a3.576,3.576,0,0,1,3.572-3.572H176.31a3.576,3.576,0,0,1,3.572,3.572V185.16A3.586,3.586,0,0,1,176.3,188.732ZM55.482,11.9a3.418,3.418,0,0,0-3.412,3.412V185.153a3.413,3.413,0,0,0,3.412,3.412H176.31a3.418,3.418,0,0,0,3.412-3.412V15.322a3.418,3.418,0,0,0-3.412-3.412H55.482Z" transform="translate(-51.91 -11.75)" fill="#e7e7e7"/>
          <path id="Path_189" data-name="Path 189" d="M378.613,188.732H257.792a3.576,3.576,0,0,1-3.572-3.572V15.322a3.576,3.576,0,0,1,3.572-3.572h120.82a3.576,3.576,0,0,1,3.572,3.572V185.16A3.585,3.585,0,0,1,378.613,188.732ZM257.786,11.9a3.418,3.418,0,0,0-3.412,3.412V185.153a3.413,3.413,0,0,0,3.412,3.412h120.82a3.413,3.413,0,0,0,3.412-3.412V15.322a3.418,3.418,0,0,0-3.412-3.412H257.786Z" transform="translate(-118.876 -11.75)" fill="#e7e7e7"/>
        </g>
      </g>
      <g id="Group_301" data-name="Group 301" transform="translate(93.265 151.44)">
        <rect id="Rectangle_181" data-name="Rectangle 181" width="13.761" height="54.583" transform="translate(60.29)" fill="#e1e1e1"/>
        <path id="Path_190" data-name="Path 190" d="M261.013,316.029h2.609V308.59H258.27Z" transform="translate(-189.578 -261.446)" fill="#fafafa"/>
        <rect id="Rectangle_182" data-name="Rectangle 182" width="13.761" height="54.583" fill="#e1e1e1"/>
        <rect id="Rectangle_183" data-name="Rectangle 183" width="62.571" height="50.021" transform="translate(11.473)" fill="#fafafa"/>
        <path id="Path_191" data-name="Path 191" d="M234.046,241.671V254.9H176.011V241.671h58.035m.241-.241H175.77v13.721h58.517V241.43Z" transform="translate(-162.27 -239.216)" fill="#e1e1e1"/>
        <path id="Path_192" data-name="Path 192" d="M175.356,316.029H172.74V308.59H178.1Z" transform="translate(-161.267 -261.446)" fill="#fafafa"/>
        <path id="Path_193" data-name="Path 193" d="M217.44,250.995a1.385,1.385,0,1,0,1.385-1.385A1.388,1.388,0,0,0,217.44,250.995Z" transform="translate(-176.063 -241.923)" fill="#e7e7e7"/>
        <path id="Path_194" data-name="Path 194" d="M234.046,265.491v13.233H176.011V265.491h58.035m.241-.241H175.77v13.721h58.517V265.25Z" transform="translate(-162.27 -247.1)" fill="#e1e1e1"/>
        <path id="Path_195" data-name="Path 195" d="M217.44,274.815a1.385,1.385,0,1,0,1.385-1.385A1.388,1.388,0,0,0,217.44,274.815Z" transform="translate(-176.063 -249.808)" fill="#e7e7e7"/>
        <path id="Path_196" data-name="Path 196" d="M234.046,289.311v13.233H176.011V289.311h58.035m.241-.241H175.77v13.721h58.517V289.07Z" transform="translate(-162.27 -254.985)" fill="#e1e1e1"/>
        <path id="Path_197" data-name="Path 197" d="M217.44,298.635a1.385,1.385,0,1,0,1.385-1.385A1.388,1.388,0,0,0,217.44,298.635Z" transform="translate(-176.063 -257.692)" fill="#e7e7e7"/>
      </g>
      <g id="Group_302" data-name="Group 302" transform="translate(33.436 119.737)">
        <rect id="Rectangle_184" data-name="Rectangle 184" width="13.761" height="86.28" transform="translate(51.419)" fill="#e1e1e1"/>
        <path id="Path_198" data-name="Path 198" d="M158.326,316.029h2.616V308.59H155.59Z" transform="translate(-95.762 -229.742)" fill="#fafafa"/>
        <rect id="Rectangle_185" data-name="Rectangle 185" width="13.761" height="86.28" fill="#e1e1e1"/>
        <rect id="Rectangle_186" data-name="Rectangle 186" width="53.7" height="81.724" transform="translate(11.473)" fill="#fafafa"/>
        <path id="Path_199" data-name="Path 199" d="M135.705,194.048v18.5H86.628v-18.5h49.077m.288-.288H86.34v19.073h49.646V193.76Z" transform="translate(-72.84 -191.733)" fill="#e1e1e1"/>
        <path id="Path_200" data-name="Path 200" d="M148.422,225.068v49.077H125.048V225.068h23.375m.288-.288H124.76v49.653h23.95V224.78Z" transform="translate(-85.557 -202.001)" fill="#e1e1e1"/>
        <path id="Path_201" data-name="Path 201" d="M110,225.068v49.077H86.628V225.068H110m.288-.288H86.34v49.653h23.95V224.78Z" transform="translate(-72.84 -202.001)" fill="#e1e1e1"/>
        <path id="Path_202" data-name="Path 202" d="M85.926,316.029H83.31V308.59h5.359Z" transform="translate(-71.837 -229.742)" fill="#fafafa"/>
        <path id="Path_203" data-name="Path 203" d="M121.38,207.335a1.385,1.385,0,1,0,1.385-1.385A1.388,1.388,0,0,0,121.38,207.335Z" transform="translate(-84.438 -195.768)" fill="#e7e7e7"/>
        <path id="Path_204" data-name="Path 204" d="M128.79,259.455a1.385,1.385,0,1,0,1.385-1.385A1.388,1.388,0,0,0,128.79,259.455Z" transform="translate(-86.891 -213.02)" fill="#e7e7e7"/>
        <path id="Path_205" data-name="Path 205" d="M113.98,259.455a1.385,1.385,0,1,0,1.385-1.385A1.388,1.388,0,0,0,113.98,259.455Z" transform="translate(-81.989 -213.02)" fill="#e7e7e7"/>
      </g>
      <path id="Path_206" data-name="Path 206" d="M108.533,154.77h-5.807a61.186,61.186,0,0,1,1.01,8.523c0,3.158-4.415,15.534,1.893,15.534s1.893-12.376,1.893-15.534A61.185,61.185,0,0,1,108.533,154.77Z" transform="translate(-44.664 -59.09)" fill="#e1e1e1"/>
      <path id="Path_207" data-name="Path 207" d="M78.66,173.74v3.773a7.615,7.615,0,0,0,7.6,7.593h3.773a7.613,7.613,0,0,0,7.593-7.593V173.74Z" transform="translate(-36.861 -65.37)" fill="#f5f5f5"/>
      <path id="Path_208" data-name="Path 208" d="M199.18,226.22c0,4.375,4.9,7.954,10.891,7.954h5.405c5.988,0,10.891-3.579,10.891-7.954Z" transform="translate(-76.754 -82.741)" fill="#e1e1e1"/>
      <g id="Group_304" data-name="Group 304" transform="translate(227.742 60.22)">
        <path id="Path_209" data-name="Path 209" d="M394.54,178.623a57.364,57.364,0,0,0-11.948,14.47,37.287,37.287,0,0,0-5.158,15.761c.013-7.192.04-14.925.06-22.224.836-1.88,2.736-6.2,4.1-9.62,4.556-11.406,6.248-14.209,10.343-24.05,5.459-13.126,11.058-28.693,9.46-27.449-3.265,2.535-15.782,25.97-17.133,29.322a94.163,94.163,0,0,0-6.757,28.064c.027-6.851.054-13.146.08-18,.087-15.835.354-20.946.482-22.525.508-.8,1.1-1.733,1.452-2.234,2.937-4.248,4.074-7.874,6.844-14.209,3.927-8.985,7.305-24.933,6.315-24.131-4.114,3.352-7.359,10.55-11.627,19.729s-3.044,14.45-3.894,22.291c-.181,1.539-.314,7.339-.415,15.387-1.1-8.57-3.184-14.216-6.964-19.347-4.656-6.309-9.159-10.577-12.463-12.8s5.707,13.28,10.015,20.043c3.84,6.028,7.372,11.346,9.366,16.584-.107,10.9-.154,24.706-.154,37.557a75.518,75.518,0,0,0-4.756-17.019c-2.589-5.86-6.57-14.845-9.741-17.9-.763-.729,3.312,16.745,5.927,21.394s4.536,9.025,6.181,11.661c.381.615,1.659,2.984,2.388,4.348.007,15.688.087,29.529.221,34.239h.676c-.047-1.218-.054-9.2-.04-19.755,1.632-5.733,5.365-12.276,8.443-18.25C389.221,193.434,397.818,175.947,394.54,178.623Z" transform="translate(-356.604 -101.766)" fill="#e1e1e1"/>
        <g id="Group_303" data-name="Group 303" transform="translate(7.042 122.328)">
          <path id="Path_210" data-name="Path 210" d="M391.493,310.2H371.878L370.4,290.97h22.572Z" transform="translate(-368.212 -286.722)" fill="#f0f0f0"/>
          <path id="Path_211" data-name="Path 211" d="M393.355,291.109h-25.5l-.729-6.489h26.954Z" transform="translate(-367.13 -284.62)" fill="#f5f5f5"/>
        </g>
      </g>
      <g id="Group_305" data-name="Group 305" transform="translate(42.675 12.858)">
        <rect id="Rectangle_187" data-name="Rectangle 187" width="35.075" height="38.514" fill="#e1e1e1"/>
        <rect id="Rectangle_188" data-name="Rectangle 188" width="36.226" height="38.514" transform="translate(2.643)" fill="#f5f5f5"/>
        <rect id="Rectangle_189" data-name="Rectangle 189" width="32.44" height="30.158" transform="translate(35.835 3.031) rotate(90)" fill="#fff"/>
        <rect id="Rectangle_190" data-name="Rectangle 190" width="16.718" height="15.541" transform="translate(28.523 10.892) rotate(90)" fill="#f5f5f5"/>
      </g>
      <g id="Group_307" data-name="Group 307" transform="translate(223.986 17.347)">
        <g id="Group_306" data-name="Group 306">
          <rect id="Rectangle_191" data-name="Rectangle 191" width="32.58" height="35.778" fill="#e1e1e1"/>
          <rect id="Rectangle_192" data-name="Rectangle 192" width="33.65" height="35.778" transform="translate(2.462)" fill="#f5f5f5"/>
          <rect id="Rectangle_193" data-name="Rectangle 193" width="30.138" height="28.017" transform="translate(33.291 2.814) rotate(90)" fill="#fff"/>
        </g>
        <circle id="Ellipse_6" data-name="Ellipse 6" cx="8.737" cy="8.737" r="8.737" transform="translate(10.55 9.145)" fill="#f5f5f5"/>
      </g>
      <g id="Group_309" data-name="Group 309" transform="translate(88.167 35.818)">
        <g id="Group_308" data-name="Group 308">
          <rect id="Rectangle_194" data-name="Rectangle 194" width="26.017" height="28.566" fill="#e1e1e1"/>
          <rect id="Rectangle_195" data-name="Rectangle 195" width="26.874" height="28.566" transform="translate(1.96)" fill="#f5f5f5"/>
          <rect id="Rectangle_196" data-name="Rectangle 196" width="24.064" height="22.371" transform="translate(26.584 2.253) rotate(90)" fill="#fff"/>
          <path id="Path_212" data-name="Path 212" d="M167.955,77.55l-6.115,10.6h12.236Z" transform="translate(-152.561 -69.348)" fill="#f5f5f5"/>
        </g>
      </g>
    </g>
    <ellipse id="Ellipse_7" data-name="Ellipse 7" cx="121.315" cy="7.085" rx="121.315" ry="7.085" transform="translate(51.289 230.725)" fill="#f5f5f5"/>
    <g id="Group_315" data-name="Group 315" transform="translate(195.865 38.404)">
      <path id="Path_213" data-name="Path 213" d="M327.095,111.965l-6.208-2.515s-8.188,14.939-10.537,15.695c-3.191,1.024-9.794,3.88-13.714,4.415a7.044,7.044,0,0,0-1.318,3.278c5.265,1.753,16.825-.575,19.3-2.415C320.264,126.228,327.095,111.965,327.095,111.965Z" transform="translate(-288.26 -70.743)" fill="#ff8b7b"/>
      <g id="Group_311" data-name="Group 311" transform="translate(27.395 34.368)">
        <path id="Path_214" data-name="Path 214" d="M339.073,106.427c1.157,4.282-5.118,12.878-5.118,12.878l-8.235-4.623s1.539-3.532,3.419-7.131C332.176,101.744,337.755,101.543,339.073,106.427Z" transform="translate(-325.72 -102.964)" fill="#007cff"/>
        <path id="Path_215" data-name="Path 215" d="M339.073,106.427c1.157,4.282-5.118,12.878-5.118,12.878l-8.235-4.623s1.539-3.532,3.419-7.131C332.176,101.744,337.755,101.543,339.073,106.427Z" transform="translate(-325.72 -102.964)" opacity="0.2"/>
      </g>
      <path id="Path_216" data-name="Path 216" d="M330.63,119.215l3.231,1.813.569-9.928C332.557,112.552,331.225,116.9,330.63,119.215Z" transform="translate(-299.95 -71.29)" opacity="0.2"/>
      <g id="Group_312" data-name="Group 312" transform="translate(31.508 33.15)">
        <path id="Path_217" data-name="Path 217" d="M335.7,102.606s-6.4,14.223-2.669,40.722h25.194c.4-3.867-.923-22.739,3.874-40.963a63.49,63.49,0,0,0-8.376-1.064,92.208,92.208,0,0,0-10.711,0A48.22,48.22,0,0,0,335.7,102.606Z" transform="translate(-331.867 -101.144)" fill="#007cff"/>
        <path id="Path_218" data-name="Path 218" d="M335.7,102.606s-6.4,14.223-2.669,40.722h25.194c.4-3.867-.923-22.739,3.874-40.963a63.49,63.49,0,0,0-8.376-1.064,92.208,92.208,0,0,0-10.711,0A48.22,48.22,0,0,0,335.7,102.606Z" transform="translate(-331.867 -101.144)" opacity="0.2"/>
      </g>
      <path id="Path_219" data-name="Path 219" d="M328.87,349.9c-.04.669,9.513,1.218,21.341,1.218s21.441-.542,21.481-1.218-9.513-1.218-21.341-1.218S328.91,349.229,328.87,349.9Z" transform="translate(-299.367 -149.93)" fill="#e7edf2"/>
      <rect id="Rectangle_197" data-name="Rectangle 197" width="4.803" height="10.697" transform="translate(42.422 184.819) rotate(-21.07)" fill="#ff8b7b"/>
      <path id="Path_220" data-name="Path 220" d="M380.612,337.915H375.9l-1.726-10.9h4.71Z" transform="translate(-314.362 -142.757)" fill="#ff8b7b"/>
      <path id="Path_221" data-name="Path 221" d="M372.553,342.5h5.292a.377.377,0,0,1,.381.321l.682,4.188a.737.737,0,0,1-.736.836c-1.846-.033-2.736-.14-5.064-.14-1.432,0-4.389.147-6.369.147-1.933,0-2.121-1.953-1.3-2.134a12.4,12.4,0,0,0,6.329-2.937A1.246,1.246,0,0,1,372.553,342.5Z" transform="translate(-311.32 -147.884)" fill="#1a2e35"/>
      <path id="Path_222" data-name="Path 222" d="M347.9,339.3l5.018-1.458a.387.387,0,0,1,.462.194l1.86,3.753a.72.72,0,0,1-.468,1c-1.82.5-3.037.809-5.319,1.465-1.572.455-3.171,1.2-4.723,1.7a22.663,22.663,0,0,1-4.91.355c-1.933,0-2.368-2.04-1.539-2.134,2.1-.234,2.382-.127,3.539-.709a16.113,16.113,0,0,0,5.051-3.492A2.5,2.5,0,0,1,347.9,339.3Z" transform="translate(-302.35 -146.337)" fill="#1a2e35"/>
      <path id="Path_223" data-name="Path 223" d="M294.859,138.351l-5.185-2.181-2.134,5.74a21.363,21.363,0,0,0,6.409,0Z" transform="translate(-285.687 -79.588)" fill="#ff8b7b"/>
      <path id="Path_224" data-name="Path 224" d="M284.9,135.96l-.134,3.82,1.853,2.067,2.134-5.747Z" transform="translate(-284.77 -79.518)" fill="#ff8b7b"/>
      <g id="Group_313" data-name="Group 313" transform="translate(42.438 183.075)">
        <rect id="Rectangle_198" data-name="Rectangle 198" width="4.81" height="5.513" transform="translate(0 1.732) rotate(-21.107)" fill="#ea7064"/>
        <path id="Path_225" data-name="Path 225" d="M378.88,327.01h-4.71l.89,5.626h4.716Z" transform="translate(-356.8 -325.832)" fill="#ea7064"/>
      </g>
      <path id="Path_226" data-name="Path 226" d="M332.42,144.2c.087,1.131.2,2.288.334,3.479l18.739-6.081a13.446,13.446,0,0,0,7.205-5.225c.074-1.672.167-3.425.308-5.258.067-.9.14-1.806.227-2.729.087-.963.194-1.947.308-2.937Z" transform="translate(-300.542 -76.039)" opacity="0.2"/>
      <path id="Path_227" data-name="Path 227" d="M341.256,120.026l-.636-.074c.375-3.124,2.7-5.593,5.165-5.533l-.02.642C343.637,115,341.59,117.229,341.256,120.026Z" transform="translate(-303.257 -72.388)" fill="#fff"/>
      <path id="Path_228" data-name="Path 228" d="M346.5,128.666h-.107l.02-.642c2.154.08,4.174-2.161,4.509-4.964l.636.074C351.187,126.211,348.932,128.666,346.5,128.666Z" transform="translate(-305.167 -75.248)" fill="#fff"/>
      <path id="Path_229" data-name="Path 229" d="M358.49,83.34c-.876,3.445-1.92,9.761.355,12.062,0,0-1.592,3.5-7.995,3.5-5.854,0-2.716-3.5-2.716-3.5,3.9-.917,3.967-3.766,3.452-6.449Z" transform="translate(-305.466 -62.101)" fill="#ff8b7b"/>
      <path id="Path_230" data-name="Path 230" d="M357.8,86.77l-4.087,3.318a10.963,10.963,0,0,1,.221,1.9c1.2,1.191,3.593-1.826,3.84-3.358A5.1,5.1,0,0,0,357.8,86.77Z" transform="translate(-307.59 -63.236)" fill="#ea7064"/>
      <path id="Path_231" data-name="Path 231" d="M343.078,81.715a4.122,4.122,0,0,0,2.656,1.96c1.505.335,2.254-1.05,1.846-2.442-.375-1.251-1.606-2.937-3.111-2.649A2.091,2.091,0,0,0,343.078,81.715Z" transform="translate(-303.975 -60.516)" fill="#ea7064"/>
      <path id="Path_232" data-name="Path 232" d="M345.875,66.7c-2.341,1.07-3.164,10.369-.221,11.741S350.311,64.663,345.875,66.7Z" transform="translate(-304.297 -56.53)" fill="#1a2e35"/>
      <path id="Path_233" data-name="Path 233" d="M358.369,72.2c-.562,4.67-.649,7.412-3.151,9.807a6.011,6.011,0,0,1-10.229-3.191c-.756-4.195.288-11.119,4.964-12.979A6.027,6.027,0,0,1,358.369,72.2Z" transform="translate(-304.629 -56.143)" fill="#ff8b7b"/>
      <path id="Path_234" data-name="Path 234" d="M348.921,64.174c3.459-.883,6.008-1.485,5.1,1.4-1.211,3.847-2.663,7.58-.716,7.754,1.184.107,6.442-2.127,5.773-4.382-.582-1.967,1.86-2.5,2.315-3.5,1.626-3.606-3.01-3.138-2.188-5.325.8-2.127-3.733-5.72-6.248-3.96-4.068,2.843-11.065,2.8-7.386-1.86,2.636-3.338-2.067-2.649-2.067-2.649s2.837,1.686-1.94,4.288C336.5,58.7,341.134,66.168,348.921,64.174Z" transform="translate(-302.867 -51.592)" fill="#1a2e35"/>
      <path id="Path_235" data-name="Path 235" d="M365.5,81.715a4.8,4.8,0,0,1-2.883,1.96c-1.539.335-2.134-1.05-1.559-2.442.522-1.251,1.947-2.937,3.425-2.649A1.929,1.929,0,0,1,365.5,81.715Z" transform="translate(-309.949 -60.516)" fill="#ff8b7b"/>
      <path id="Path_236" data-name="Path 236" d="M331.36,164.19s-4.228,37.852-4.563,52.222c-.341,14.945,14.337,61.568,14.337,61.568l7.513-3.158s-8.75-42.595-7.533-57.273c1.325-16,6.81-53.359,6.81-53.359Z" transform="translate(-298.679 -88.863)" fill="#007cff"/>
      <path id="Path_237" data-name="Path 237" d="M348.473,178.979c-3.372,7-1.1,20.826.729,29.028.7-5.787,1.519-12.069,2.3-17.882C351.423,181.18,350.727,174.283,348.473,178.979Z" transform="translate(-305.282 -93.255)" opacity="0.2"/>
      <path id="Path_238" data-name="Path 238" d="M354.428,325.89c.033-.013.89,2.395.89,2.395l-8.664,3.639-1.365-2.536Z" transform="translate(-304.802 -142.386)" fill="#007cff"/>
      <path id="Path_239" data-name="Path 239" d="M346.98,164.19s3.238,36.005,5.379,49.492c2.348,14.771,11.574,63.969,11.574,63.969h8.63s-5.171-48.007-6.148-62.631c-1.057-15.869-3.178-50.83-3.178-50.83Z" transform="translate(-305.362 -88.863)" fill="#007cff"/>
      <path id="Path_240" data-name="Path 240" d="M380.524,330.251c.04,0,.288,2.408.288,2.408h-9.486l-.676-2.77Z" transform="translate(-313.197 -143.71)" fill="#007cff"/>
      <path id="Path_241" data-name="Path 241" d="M376.24,275.076a.085.085,0,0,1-.08-.074c-.047-.435-4.71-43.779-5.586-56.918-.95-14.256-2.863-45.873-2.883-46.187a.087.087,0,0,1,.074-.087h.007a.08.08,0,0,1,.08.074c.02.314,1.933,31.931,2.883,46.187.876,13.139,5.539,56.477,5.586,56.911a.074.074,0,0,1-.074.087C376.246,275.076,376.246,275.076,376.24,275.076Z" transform="translate(-312.217 -91.385)" opacity="0.2"/>
      <path id="Path_242" data-name="Path 242" d="M353.955,77.2c-.02.381-.241.689-.488.689s-.435-.308-.408-.689.241-.689.488-.689S353.982,76.818,353.955,77.2Z" transform="translate(-307.373 -59.84)" fill="#1a2e35"/>
      <path id="Path_243" data-name="Path 243" d="M347.535,77.2c-.02.381-.241.689-.488.689s-.435-.308-.408-.689.241-.689.488-.689S347.562,76.818,347.535,77.2Z" transform="translate(-305.248 -59.84)" fill="#1a2e35"/>
      <path id="Path_244" data-name="Path 244" d="M349.017,77.82a14.519,14.519,0,0,1-2.007,3.251,2.13,2.13,0,0,0,1.793.341Z" transform="translate(-305.372 -60.274)" fill="#ff5652"/>
      <path id="Path_245" data-name="Path 245" d="M350.117,84.849a.107.107,0,0,1-.107-.114.123.123,0,0,1,.12-.114,3.211,3.211,0,0,0,2.522-1.177.112.112,0,0,1,.154-.033.107.107,0,0,1,.02.154A3.359,3.359,0,0,1,350.117,84.849Z" transform="translate(-306.365 -62.118)" fill="#1a2e35"/>
      <path id="Path_246" data-name="Path 246" d="M354.5,75.435a.2.2,0,0,1-.194-.02,1.782,1.782,0,0,0-1.592-.167.217.217,0,0,1-.294-.107.236.236,0,0,1,.12-.3,2.2,2.2,0,0,1,2.02.187.223.223,0,0,1,.06.308A.214.214,0,0,1,354.5,75.435Z" transform="translate(-307.157 -59.233)" fill="#1a2e35"/>
      <path id="Path_247" data-name="Path 247" d="M345.425,73.382a.211.211,0,0,1-.087-.361,2.326,2.326,0,0,1,1.927-.776.208.208,0,0,1,.174.254.235.235,0,0,1-.261.187h0a1.845,1.845,0,0,0-1.519.629A.259.259,0,0,1,345.425,73.382Z" transform="translate(-304.797 -58.424)" fill="#1a2e35"/>
      <path id="Path_248" data-name="Path 248" d="M366.164,111.313l-6.509-1.733s-6.382,15.708-8.637,16.738a134.182,134.182,0,0,0-14.136,8.55,6.518,6.518,0,0,0,.375,3.419c5.613-1.017,16.41-5.171,18.665-7.279C361.053,126.191,366.164,111.313,366.164,111.313Z" transform="translate(-301.994 -70.786)" fill="#ff8b7b"/>
      <path id="Path_249" data-name="Path 249" d="M373.36,343.14a1.341,1.341,0,0,1-.89-.241.628.628,0,0,1-.194-.589.375.375,0,0,1,.207-.314c.529-.268,2,.669,2.168.776a.121.121,0,0,1,.047.114.107.107,0,0,1-.087.087A6.223,6.223,0,0,1,373.36,343.14Zm-.642-.977a.322.322,0,0,0-.147.027c-.033.013-.067.047-.08.134a.445.445,0,0,0,.127.408,2.247,2.247,0,0,0,1.666.087A4.109,4.109,0,0,0,372.717,342.164Z" transform="translate(-313.732 -147.702)" fill="#007cff"/>
      <path id="Path_250" data-name="Path 250" d="M375.082,342.425a.159.159,0,0,1-.053-.013c-.475-.268-1.351-1.3-1.224-1.82a.4.4,0,0,1,.375-.294.6.6,0,0,1,.468.14c.522.448.555,1.806.555,1.867a.118.118,0,0,1-.053.1A.151.151,0,0,1,375.082,342.425Zm-.843-1.907a.166.166,0,0,0-.053.007c-.147.02-.161.087-.167.114-.08.308.475,1.09.943,1.458a2.571,2.571,0,0,0-.468-1.478A.353.353,0,0,0,374.239,340.519Z" transform="translate(-314.237 -147.154)" fill="#007cff"/>
      <path id="Path_251" data-name="Path 251" d="M348.324,342.073a1.75,1.75,0,0,1-1.177-.007.585.585,0,0,1-.308-.475.37.37,0,0,1,.127-.335c.5-.448,2.542.033,2.776.087a.107.107,0,0,1,.08.1.129.129,0,0,1-.067.114A9.275,9.275,0,0,1,348.324,342.073Zm-1.017-.749a.564.564,0,0,0-.2.087.136.136,0,0,0-.047.134.364.364,0,0,0,.2.314,3.058,3.058,0,0,0,2.094-.381A6.333,6.333,0,0,0,347.307,341.323Z" transform="translate(-305.314 -147.41)" fill="#007cff"/>
      <path id="Path_252" data-name="Path 252" d="M350.2,340.9a.057.057,0,0,1-.047,0c-.609-.114-1.9-.83-1.913-1.371,0-.127.053-.3.354-.4a.772.772,0,0,1,.642.04c.682.334,1.037,1.539,1.05,1.586a.1.1,0,0,1-.027.107A.106.106,0,0,1,350.2,340.9Zm-1.479-1.579c-.02.007-.04.013-.067.02-.194.067-.194.147-.194.174.007.321.91.917,1.539,1.117a2.406,2.406,0,0,0-.876-1.264A.561.561,0,0,0,348.722,339.318Z" transform="translate(-305.779 -146.75)" fill="#007cff"/>
      <path id="Path_253" data-name="Path 253" d="M334.109,146.83l-6.523,3-.756,1.84,2.415,1.626s4.5-.488,5.78-3.378Z" transform="translate(-298.692 -83.116)" fill="#ff8b7b"/>
      <path id="Path_254" data-name="Path 254" d="M337.531,150.518a9,9,0,0,0-1.211-3.539l1.03-.769a9.968,9.968,0,0,1,1.452,4.1Z" transform="translate(-301.833 -82.911)" fill="#1a2e35"/>
      <path id="Path_255" data-name="Path 255" d="M338.626,147.856a1.255,1.255,0,1,1-1.525-.488A1.141,1.141,0,0,1,338.626,147.856Z" transform="translate(-301.818 -83.259)" fill="#1a2e35"/>
      <path id="Path_256" data-name="Path 256" d="M321.37,153.738l.863.876,5.854-2.5-2.308-.8Z" transform="translate(-296.885 -84.599)" fill="#ff8b7b"/>
      <path id="Path_257" data-name="Path 257" d="M354.428,325.89c.033-.013.89,2.395.89,2.395l-8.664,3.639-1.365-2.536Z" transform="translate(-304.802 -142.386)" opacity="0.2"/>
      <path id="Path_258" data-name="Path 258" d="M380.524,330.251c.04,0,.288,2.408.288,2.408h-9.486l-.676-2.77Z" transform="translate(-313.197 -143.71)" opacity="0.2"/>
      <g id="Group_314" data-name="Group 314" transform="translate(51.6 34.272)">
        <path id="Path_259" data-name="Path 259" d="M376.17,107.276c1.719,5.546-4.977,13.126-4.977,13.126l-9.292-3.793a95.775,95.775,0,0,1,3.8-9.433C368.53,101.041,374.43,101.676,376.17,107.276Z" transform="translate(-361.9 -102.821)" fill="#007cff"/>
        <path id="Path_260" data-name="Path 260" d="M376.17,107.276c1.719,5.546-4.977,13.126-4.977,13.126l-9.292-3.793a95.775,95.775,0,0,1,3.8-9.433C368.53,101.041,374.43,101.676,376.17,107.276Z" transform="translate(-361.9 -102.821)" opacity="0.2"/>
      </g>
    </g>
    <g id="Group_317" data-name="Group 317" transform="translate(134.799 21.524)">
      <rect id="Rectangle_199" data-name="Rectangle 199" width="3.994" height="0.642" transform="translate(30.6 0)" fill="#007cff"/>
      <rect id="Rectangle_200" data-name="Rectangle 200" width="10.751" height="0.642" transform="translate(85.879 36.235) rotate(-87.421)" fill="#007cff"/>
      <path id="Path_261" data-name="Path 261" d="M280.788,30.68h-73.83L200.08,184.428h73.837Z" transform="translate(-195.671 -27.79)" fill="#007cff"/>
      <path id="Path_262" data-name="Path 262" d="M277.5,33.83H203.661L196.79,187.585h73.83Z" transform="translate(-194.582 -28.833)" fill="#fafafa" opacity="0.56"/>
      <path id="Path_263" data-name="Path 263" d="M274.2,36.99h-73.83L193.49,190.738h73.837Z" transform="translate(-193.49 -29.879)" fill="#007cff" opacity="0.07"/>
      <path id="Path_264" data-name="Path 264" d="M270.128,137.22H207.108l-.528,11.768H269.6Z" transform="translate(-197.823 -63.055)" fill="#fff"/>
      <path id="Path_265" data-name="Path 265" d="M242.1,124.39H207.824l-.234,5.265h34.279Z" transform="translate(-198.157 -58.808)" fill="#007cff"/>
      <path id="Path_266" data-name="Path 266" d="M268.008,184.68H204.988l-.529,11.768h63.019Z" transform="translate(-197.121 -78.765)" fill="#fff"/>
      <path id="Path_267" data-name="Path 267" d="M260.89,226.01H218.516l-.636,14.1h42.381Z" transform="translate(-201.563 -92.445)" fill="#007cff" opacity="0.47"/>
      <path id="Path_268" data-name="Path 268" d="M256.934,243.31H214.554a.069.069,0,0,1-.074-.074l.629-14.1a.074.074,0,0,1,.074-.074h42.381a.069.069,0,0,1,.074.074l-.629,14.1A.085.085,0,0,1,256.934,243.31Zm-42.3-.154h42.227l.622-13.955H215.256Z" transform="translate(-200.438 -93.455)" fill="#fff"/>
      <path id="Path_269" data-name="Path 269" d="M234,171.86H205.7l-.234,5.258h28.292Z" transform="translate(-197.455 -74.521)" fill="#007cff"/>
      <path id="Path_270" data-name="Path 270" d="M265.094,72.5a16.579,16.579,0,0,1-3.479,9.419,16.825,16.825,0,0,1-13.266,6.61,15.185,15.185,0,0,1-12.664-6.61,15.353,15.353,0,0,1-2.643-9.419A16.926,16.926,0,0,1,249.78,56.47,15.183,15.183,0,0,1,265.094,72.5Z" transform="translate(-206.577 -36.327)" fill="#fff"/>
      <path id="Path_271" data-name="Path 271" d="M279,59.371a4.4,4.4,0,0,1-.923,2.5,4.478,4.478,0,0,1-3.526,1.759,4.018,4.018,0,0,1-3.365-1.759,4.083,4.083,0,0,1-.7-2.5,4.5,4.5,0,0,1,4.449-4.261A4.042,4.042,0,0,1,279,59.371Z" transform="translate(-218.975 -35.876)" fill="#007cff"/>
      <path id="Path_272" data-name="Path 272" d="M215.645,145.087a1.991,1.991,0,0,1-1.967,1.887,1.784,1.784,0,0,1-1.8-1.887,1.991,1.991,0,0,1,1.967-1.887A1.784,1.784,0,0,1,215.645,145.087Z" transform="translate(-199.576 -65.035)" fill="#1a2e35"/>
      <path id="Path_273" data-name="Path 273" d="M228.265,145.087a1.991,1.991,0,0,1-1.967,1.887,1.784,1.784,0,0,1-1.8-1.887,1.991,1.991,0,0,1,1.967-1.887A1.788,1.788,0,0,1,228.265,145.087Z" transform="translate(-203.754 -65.035)" fill="#1a2e35"/>
      <path id="Path_274" data-name="Path 274" d="M240.875,145.087a1.991,1.991,0,0,1-1.967,1.887,1.784,1.784,0,0,1-1.8-1.887,1.991,1.991,0,0,1,1.967-1.887A1.784,1.784,0,0,1,240.875,145.087Z" transform="translate(-207.927 -65.035)" fill="#1a2e35"/>
      <path id="Path_275" data-name="Path 275" d="M213.525,192.547a1.991,1.991,0,0,1-1.967,1.887,1.784,1.784,0,0,1-1.8-1.887,1.991,1.991,0,0,1,1.967-1.887A1.784,1.784,0,0,1,213.525,192.547Z" transform="translate(-198.874 -80.744)" fill="#1a2e35"/>
      <path id="Path_276" data-name="Path 276" d="M226.145,192.547a1.991,1.991,0,0,1-1.967,1.887,1.784,1.784,0,0,1-1.8-1.887,1.991,1.991,0,0,1,1.967-1.887A1.788,1.788,0,0,1,226.145,192.547Z" transform="translate(-203.052 -80.744)" fill="#1a2e35"/>
      <path id="Path_277" data-name="Path 277" d="M238.755,192.547a1.991,1.991,0,0,1-1.967,1.887,1.784,1.784,0,0,1-1.8-1.887,1.991,1.991,0,0,1,1.967-1.887A1.788,1.788,0,0,1,238.755,192.547Z" transform="translate(-207.226 -80.744)" fill="#1a2e35"/>
      <path id="Path_278" data-name="Path 278" d="M251.365,192.547a1.991,1.991,0,0,1-1.967,1.887,1.784,1.784,0,0,1-1.8-1.887,1.991,1.991,0,0,1,1.967-1.887A1.784,1.784,0,0,1,251.365,192.547Z" transform="translate(-211.4 -80.744)" fill="#1a2e35"/>
      <path id="Path_279" data-name="Path 279" d="M263.985,192.547a1.991,1.991,0,0,1-1.967,1.887,1.788,1.788,0,0,1-1.8-1.887,1.991,1.991,0,0,1,1.967-1.887A1.788,1.788,0,0,1,263.985,192.547Z" transform="translate(-215.577 -80.744)" fill="#1a2e35"/>
      <g id="Group_316" data-name="Group 316" transform="translate(29.108 21.641)">
        <ellipse id="Ellipse_8" data-name="Ellipse 8" cx="6.63" cy="6.342" rx="6.63" ry="6.342" transform="translate(4.451 9.27) rotate(-44.356)" fill="#007cff"/>
        <path id="Path_280" data-name="Path 280" d="M262.93,92.037a16.825,16.825,0,0,1-13.266,6.61A15.185,15.185,0,0,1,237,92.037a18.815,18.815,0,0,1,13.186-5C255.518,87.04,260.161,89.007,262.93,92.037Z" transform="translate(-237 -68.087)" fill="#007cff"/>
        <ellipse id="Ellipse_9" data-name="Ellipse 9" cx="6.63" cy="6.342" rx="6.63" ry="6.342" transform="translate(4.451 9.27) rotate(-44.356)" fill="#fff" opacity="0.1"/>
        <path id="Path_281" data-name="Path 281" d="M262.93,92.037a16.825,16.825,0,0,1-13.266,6.61A15.185,15.185,0,0,1,237,92.037a18.815,18.815,0,0,1,13.186-5C255.518,87.04,260.161,89.007,262.93,92.037Z" transform="translate(-237 -68.087)" fill="#fff" opacity="0.1"/>
      </g>
    </g>
    <g id="Group_329" data-name="Group 329" transform="translate(84.223 76.143)">
      <g id="Group_324" data-name="Group 324" transform="translate(3.325)">
        <path id="Path_282" data-name="Path 282" d="M133.089,157.958c-.6,1.3-1.218,2.73-1.766,4.121s-1.1,2.816-1.586,4.248a53.6,53.6,0,0,0-2.234,8.637l-.14.923a1.419,1.419,0,0,0,.047.468,4.895,4.895,0,0,0,.689,1.452,18,18,0,0,0,2.783,3.118,42.871,42.871,0,0,0,3.452,2.89c1.2.923,2.469,1.826,3.706,2.676l-1.164,2.194a44.644,44.644,0,0,1-8.436-4.81,20.162,20.162,0,0,1-3.78-3.552,8.876,8.876,0,0,1-1.5-2.676,5.889,5.889,0,0,1-.3-1.84c.007-.154.013-.375.02-.475l.033-.308.06-.622a49.18,49.18,0,0,1,2.04-9.6c.488-1.545,1.01-3.071,1.606-4.576s1.2-2.957,1.967-4.476Z" transform="translate(-122.86 -123.807)" fill="#ff8b7b"/>
        <path id="Path_283" data-name="Path 283" d="M143.651,200.021l4.422-2.241-1.144,4.857s-3.037.85-4.449-.622Z" transform="translate(-129.354 -137.72)" fill="#ff8b7b"/>
        <path id="Path_284" data-name="Path 284" d="M154.321,198.576l-1.177,4.014-4.014.047,1.144-4.857Z" transform="translate(-131.555 -137.72)" fill="#ff8b7b"/>
        <path id="Path_285" data-name="Path 285" d="M166.23,124.03a12.339,12.339,0,0,0,.99,2.475,1.017,1.017,0,0,1-.99.321Z" transform="translate(-137.216 -113.308)" fill="#ff5652"/>
        <ellipse id="Ellipse_10" data-name="Ellipse 10" cx="0.468" cy="0.716" rx="0.468" ry="0.716" transform="translate(28.412 9.324)" fill="#1a2e35"/>
        <path id="Path_286" data-name="Path 286" d="M165.86,121.844l.95-.274S166.322,122.313,165.86,121.844Z" transform="translate(-137.093 -112.494)" fill="#1a2e35"/>
        <path id="Path_287" data-name="Path 287" d="M147.516,130.89c.569,2.91,1.144,8.249-.9,10.2,0,0,.8,2.957,6.208,2.957,5.954,0,2.843-2.957,2.843-2.957-3.251-.776-3.164-3.184-2.6-5.446Z" transform="translate(-130.725 -115.579)" fill="#ff8b7b"/>
        <path id="Path_288" data-name="Path 288" d="M145.584,117.448c.3,4.864.321,6.924,2.776,9.426,3.693,3.753,9.6,2.321,10.764-2.529,1.044-4.369.381-11.587-4.382-13.52A6.641,6.641,0,0,0,145.584,117.448Z" transform="translate(-130.377 -108.766)" fill="#ff8b7b"/>
        <path id="Path_289" data-name="Path 289" d="M143.765,112.648c-2.435.89-5.693.227-4.415,7.754,1.351,7.968-.729,10.59-.729,10.59a49.612,49.612,0,0,0,18.705-.12s-2.883-5.044-2.074-8.724c1.03-4.7.214-6.429.214-6.429S147.2,111.4,143.765,112.648Z" transform="translate(-128.077 -109.465)" fill="#1a2e35"/>
        <path id="Path_290" data-name="Path 290" d="M161.75,124.1a4.854,4.854,0,0,0,.769,2.609c.662,1.017,1.438.6,1.639-.448.174-.95.047-2.616-.8-3.265S161.757,122.994,161.75,124.1Z" transform="translate(-135.733 -112.88)" fill="#ff8b7b"/>
        <path id="Path_291" data-name="Path 291" d="M143.1,112.035c-.7-1.967,2.643-5,9.707-3.733s7.379,7.138,7.379,7.138l-1.432-1.7.067,1.786-7.265,1.4Z" transform="translate(-129.531 -108.003)" fill="#1a2e35"/>
        <g id="Group_318" data-name="Group 318" transform="translate(14.154 23.73)">
          <path id="Path_292" data-name="Path 292" d="M144.032,145.579h0a1.1,1.1,0,0,1,.91-1.264c2.2-.361,7.205-1.1,9.72-.749,1.873.261,2.368,1.351,2.442,2.248A1.1,1.1,0,0,1,155.954,147l-10.878-.488A1.125,1.125,0,0,1,144.032,145.579Z" transform="translate(-144.017 -143.474)" fill="#007cff"/>
          <path id="Path_293" data-name="Path 293" d="M144.032,145.579h0a1.1,1.1,0,0,1,.91-1.264c2.2-.361,7.205-1.1,9.72-.749,1.873.261,2.368,1.351,2.442,2.248A1.1,1.1,0,0,1,155.954,147l-10.878-.488A1.125,1.125,0,0,1,144.032,145.579Z" transform="translate(-144.017 -143.474)" opacity="0.6"/>
        </g>
        <path id="Path_294" data-name="Path 294" d="M153.44,305.5l4.034,2.8,6.75-9.152-4.034-2.8Z" transform="translate(-132.982 -170.347)" fill="#ff8b7b"/>
        <path id="Path_295" data-name="Path 295" d="M139.37,304.96l4.262,2.428,5.981-9.68-4.268-2.428Z" transform="translate(-128.325 -169.993)" fill="#ff8b7b"/>
        <g id="Group_319" data-name="Group 319" transform="translate(13.935 125.287)">
          <path id="Path_296" data-name="Path 296" d="M165.843,299.146l-3.479,4.723-4.034-2.8,3.479-4.716Z" transform="translate(-148.536 -295.634)" fill="#ea7064"/>
          <path id="Path_297" data-name="Path 297" d="M146.774,295.28l4.268,2.435-3.084,4.984-4.268-2.428Z" transform="translate(-143.69 -295.28)" fill="#ea7064"/>
        </g>
        <g id="Group_320" data-name="Group 320" transform="translate(8.093 56.394)">
          <path id="Path_298" data-name="Path 298" d="M150.727,192.3s15.755,19.856,12.8,38.849c-2.388,15.34-16.216,36.106-16.216,36.106l-6.5-3.231a212.107,212.107,0,0,0,11.7-28.432,20.994,20.994,0,0,0-2.522-18.2c-7.981-11.654-20.766-4.723-12.169-25.081h12.912Z" transform="translate(-134.958 -192.3)" fill="#007cff"/>
          <path id="Path_299" data-name="Path 299" d="M150.727,192.3s15.755,19.856,12.8,38.849c-2.388,15.34-16.216,36.106-16.216,36.106l-6.5-3.231a212.107,212.107,0,0,0,11.7-28.432,20.994,20.994,0,0,0-2.522-18.2c-7.981-11.654-20.766-4.723-12.169-25.081h12.912Z" transform="translate(-134.958 -192.3)" opacity="0.6"/>
        </g>
        <path id="Path_300" data-name="Path 300" d="M168.948,210.245l-2.288-2.275c0,.181,4.435,27.563,5.686,35.263a47.54,47.54,0,0,0,1.679-6.9C175.464,227.03,172.427,217.523,168.948,210.245Z" transform="translate(-137.358 -141.092)" opacity="0.4"/>
        <g id="Group_321" data-name="Group 321" transform="translate(12.437 56.394)">
          <path id="Path_301" data-name="Path 301" d="M159.908,192.3s18.973,24.953,19.5,39.919c.448,12.537-20.665,36.755-20.665,36.755l-6.128-3.967s12.343-17.22,15.454-31.289C166.885,219.789,141.45,192.3,141.45,192.3Z" transform="translate(-141.45 -192.3)" fill="#007cff"/>
          <path id="Path_302" data-name="Path 302" d="M159.908,192.3s18.973,24.953,19.5,39.919c.448,12.537-20.665,36.755-20.665,36.755l-6.128-3.967s12.343-17.22,15.454-31.289C166.885,219.789,141.45,192.3,141.45,192.3Z" transform="translate(-141.45 -192.3)" opacity="0.6"/>
        </g>
        <path id="Path_303" data-name="Path 303" d="M131.994,147.757c-2.034.482-3.974,7.854-3.974,7.854l7.921,5.292s2.643-5.827,1.719-8.382C136.7,149.858,134.556,147.148,131.994,147.757Z" transform="translate(-124.568 -121.133)" fill="#007cff"/>
        <path id="Path_304" data-name="Path 304" d="M136.005,154.89l-.555,6.422,2.95,1.974a26.283,26.283,0,0,0,1.793-5.713Z" transform="translate(-127.027 -123.523)" opacity="0.2"/>
        <path id="Path_305" data-name="Path 305" d="M159.776,147.307s2.341.823-2.348,29.63H137.492c.334-8.115.341-13.119-3.532-29.77a58.737,58.737,0,0,1,8.469-1.117,63.794,63.794,0,0,1,9.051,0C155.368,146.4,159.776,147.307,159.776,147.307Z" transform="translate(-126.534 -120.542)" fill="#007cff"/>
        <path id="Path_306" data-name="Path 306" d="M173.22,153.847c.455,1.251.93,2.6,1.425,3.894q.712,1.977,1.485,3.94l1.532,3.927.388.983.194.488.1.248c.02.047.013.04.007.033a1.313,1.313,0,0,0-.435-.388,1.7,1.7,0,0,0-.816-.241,1.606,1.606,0,0,0-.7.127c-.281.134-.288.194-.281.181a.845.845,0,0,0,.14-.14,9.2,9.2,0,0,0,.9-1.458c.294-.575.575-1.184.856-1.806.555-1.244,1.057-2.549,1.572-3.853s.983-2.636,1.458-3.967l1.425-3.994,2.408.609c-.475,2.857-1.09,5.653-1.826,8.463-.361,1.4-.776,2.8-1.251,4.208q-.351,1.054-.8,2.127a12.625,12.625,0,0,1-1.191,2.261,5.947,5.947,0,0,1-.549.676,3.5,3.5,0,0,1-1.137.8,2.766,2.766,0,0,1-1.218.227,2.8,2.8,0,0,1-1.318-.395,3.271,3.271,0,0,1-1.137-1.184c-.094-.161-.174-.321-.234-.442l-.12-.241-.241-.488-.475-.97c-.615-1.3-1.224-2.609-1.8-3.934s-1.124-2.663-1.659-4.007c-.515-1.365-1.024-2.689-1.472-4.141Z" transform="translate(-137.951 -122.507)" fill="#ff8b7b"/>
        <path id="Path_307" data-name="Path 307" d="M169.661,147.916c2.395.569,5.091,7.653,5.091,7.653l-7.125,6.068s-4.616-7.72-3.679-10.269C164.918,148.713,166.53,147.167,169.661,147.916Z" transform="translate(-136.419 -121.152)" fill="#007cff"/>
        <path id="Path_308" data-name="Path 308" d="M190.477,147.484l2.5-2.094,1.739,2.709-1.278,2.261s-2.04,1.867-3.847.917h0A3.247,3.247,0,0,1,190.477,147.484Z" transform="translate(-144.858 -120.378)" fill="#ff8b7b"/>
        <path id="Path_309" data-name="Path 309" d="M199.326,145.407l-.187.682-3.96.662-.388-1.351Z" transform="translate(-146.669 -120.381)" fill="#ff8b7b"/>
        <path id="Path_310" data-name="Path 310" d="M164.535,304.01l-7.145-4.623,1.278-2.228L166.7,302.1Z" transform="translate(-134.29 -170.615)" fill="#007cff"/>
        <path id="Path_311" data-name="Path 311" d="M149.006,312.317a4.221,4.221,0,0,1-1.766-.615.113.113,0,0,1-.06-.114.115.115,0,0,1,.08-.1c.194-.06,1.887-.582,2.368-.174a.4.4,0,0,1,.134.375.655.655,0,0,1-.355.542A.883.883,0,0,1,149.006,312.317Zm-1.412-.682a2.365,2.365,0,0,0,1.706.395.445.445,0,0,0,.227-.368.159.159,0,0,0-.054-.167C149.22,311.28,148.283,311.447,147.594,311.635Z" transform="translate(-130.91 -175.249)" fill="#1a2e35"/>
        <path id="Path_312" data-name="Path 312" d="M147.294,311.041a.111.111,0,0,1-.08-.033.12.12,0,0,1-.027-.114c.013-.06.408-1.418,1.05-1.726a.6.6,0,0,1,.515-.013.414.414,0,0,1,.288.421c-.047.562-1.191,1.338-1.713,1.465Zm1.211-1.706a.412.412,0,0,0-.174.04,2.668,2.668,0,0,0-.856,1.365c.549-.234,1.3-.843,1.331-1.191.007-.053-.007-.127-.147-.187A.415.415,0,0,0,148.505,309.335Z" transform="translate(-130.911 -174.568)" fill="#1a2e35"/>
        <path id="Path_313" data-name="Path 313" d="M162.152,316.108c-.7,0-1.686-.9-2.228-1.465a.121.121,0,0,1-.02-.134.117.117,0,0,1,.12-.06c.248.033,2.422.328,2.73.943a.379.379,0,0,1-.013.368.647.647,0,0,1-.5.348Zm-1.813-1.378c.789.769,1.485,1.191,1.88,1.144a.417.417,0,0,0,.321-.227.146.146,0,0,0,.007-.147C162.38,315.165,161.216,314.871,160.339,314.73Z" transform="translate(-135.118 -176.337)" fill="#1a2e35"/>
        <path id="Path_314" data-name="Path 314" d="M160.405,314.166a2.507,2.507,0,0,1-.421-.033.109.109,0,0,1-.087-.074.117.117,0,0,1,.02-.114c.033-.04.883-1.064,1.679-1.137a.846.846,0,0,1,.642.2c.248.214.227.4.174.522C162.218,313.952,161.134,314.166,160.405,314.166Zm-.161-.234c.7.04,1.82-.194,1.96-.5.013-.027.047-.1-.114-.241a.635.635,0,0,0-.475-.147A2.71,2.71,0,0,0,160.245,313.932Z" transform="translate(-135.117 -175.793)" fill="#1a2e35"/>
        <path id="Path_315" data-name="Path 315" d="M143.826,310.261l-5.305-1.5a.388.388,0,0,0-.468.214L136.26,313a.793.793,0,0,0,.522,1.057c1.86.488,2.783.636,5.118,1.291,1.438.408,3.492,1.151,5.472,1.706,1.94.549,2.643-1.371,1.866-1.78a9.565,9.565,0,0,1-4.7-4.509A1.27,1.27,0,0,0,143.826,310.261Z" transform="translate(-127.275 -174.45)" fill="#007cff"/>
        <path id="Path_316" data-name="Path 316" d="M156.082,312.068l-4.529-3.144a.389.389,0,0,0-.515.053l-3,3.225a.787.787,0,0,0,.147,1.164c1.6,1.07,2.422,1.505,4.415,2.89,1.224.85,3.673,2.736,5.365,3.914,1.652,1.151,2.944-.435,2.348-1.077a13.361,13.361,0,0,1-3.726-6.309A1.284,1.284,0,0,0,156.082,312.068Z" transform="translate(-131.128 -174.485)" fill="#007cff"/>
        <path id="Path_317" data-name="Path 317" d="M150.628,301.848l-8.168-4.061.843-2.208,8.724,4.275Z" transform="translate(-129.348 -170.092)" fill="#007cff"/>
        <g id="Group_322" data-name="Group 322" transform="translate(9.959 55.076)">
          <path id="Path_318" data-name="Path 318" d="M138.451,190.477l-.689,1.786c-.067.14.094.281.328.281h20.7c.181,0,.328-.087.341-.2l.181-1.786c.013-.12-.141-.227-.341-.227h-20.19A.333.333,0,0,0,138.451,190.477Z" transform="translate(-137.747 -190.329)" fill="#007cff"/>
          <path id="Path_319" data-name="Path 319" d="M138.451,190.477l-.689,1.786c-.067.14.094.281.328.281h20.7c.181,0,.328-.087.341-.2l.181-1.786c.013-.12-.141-.227-.341-.227h-20.19A.333.333,0,0,0,138.451,190.477Z" transform="translate(-137.747 -190.329)" fill="#fff" opacity="0.4"/>
        </g>
        <g id="Group_323" data-name="Group 323" transform="translate(13.192 54.916)">
          <path id="Path_320" data-name="Path 320" d="M143.3,192.652h-.542c-.107,0-.187-.054-.181-.12l.254-2.321c.007-.067.1-.12.207-.12h.542c.107,0,.187.054.181.12l-.254,2.321C143.51,192.6,143.409,192.652,143.3,192.652Z" transform="translate(-142.579 -190.09)" fill="#007cff"/>
          <path id="Path_321" data-name="Path 321" d="M162.392,192.652h-.542c-.107,0-.187-.054-.181-.12l.254-2.321c.007-.067.1-.12.207-.12h.542c.107,0,.187.054.181.12l-.254,2.321C162.593,192.6,162.5,192.652,162.392,192.652Z" transform="translate(-148.898 -190.09)" fill="#007cff"/>
        </g>
      </g>
      <g id="Group_328" data-name="Group 328" transform="translate(0 72.865)">
        <g id="Group_325" data-name="Group 325" transform="translate(0 6.228)">
          <ellipse id="Ellipse_11" data-name="Ellipse 11" cx="16.765" cy="1.218" rx="16.765" ry="1.218" transform="translate(0 81.925)" fill="#f5f5f5"/>
          <path id="Path_322" data-name="Path 322" d="M147.806,307.653a41.179,41.179,0,0,1-8.249-3.151c-.054-.033-.114-.054-.174-.087V291.009h5.967a1.786,1.786,0,0,0,0-3.573h-5.967V226.23h-3.572v61.206h-5.967a1.786,1.786,0,0,0,0,3.573h5.967v13.407c-.06.027-.114.054-.174.087a41.177,41.177,0,0,1-8.249,3.151.874.874,0,0,0,.248,1.713h19.923A.873.873,0,0,0,147.806,307.653Z" transform="translate(-120.825 -226.23)" fill="#e1e1e1"/>
        </g>
        <g id="Group_327" data-name="Group 327" transform="translate(2.408)">
          <path id="Path_323" data-name="Path 323" d="M146.758,230.019h-21.8a3.475,3.475,0,0,1-3.465-3.465v-6.168a3.475,3.475,0,0,1,3.465-3.465h21.8a3.475,3.475,0,0,1,3.465,3.465v6.168A3.475,3.475,0,0,1,146.758,230.019Z" transform="translate(-121.49 -216.92)" fill="#007cff"/>
          <g id="Group_326" data-name="Group 326" transform="translate(3.031 13.099)">
            <path id="Path_324" data-name="Path 324" d="M126.02,236.5v1.137c0,.937,1.024,1.706,2.268,1.706h18.123c1.251,0,2.268-.769,2.268-1.706V236.5Z" transform="translate(-126.02 -236.5)" fill="#007cff"/>
            <path id="Path_325" data-name="Path 325" d="M126.02,236.5v1.137c0,.937,1.024,1.706,2.268,1.706h18.123c1.251,0,2.268-.769,2.268-1.706V236.5Z" transform="translate(-126.02 -236.5)" fill="#fff" opacity="0.3"/>
          </g>
        </g>
      </g>
    </g>
  </g>
</svg>
