<svg xmlns="http://www.w3.org/2000/svg" width="17.856" height="17.846" viewBox="0 0 17.856 17.846">
  <path id="logout_2_" data-name="logout (2)" d="M11.189,12.966h1.394v2.789a2.094,2.094,0,0,1-2.091,2.091h-8.4A2.094,2.094,0,0,1,0,15.755V2.091A2.094,2.094,0,0,1,2.091,0h8.4a2.094,2.094,0,0,1,2.091,2.091V4.88H11.189V2.091a.7.7,0,0,0-.7-.7h-8.4a.7.7,0,0,0-.7.7V15.755a.7.7,0,0,0,.7.7h8.4a.7.7,0,0,0,.7-.7Zm3.381-7.33-.986.986,1.6,1.6H6.17V9.62h9.018l-1.6,1.6.986.986,3.286-3.286Zm0,0" fill="#fff"/>
</svg>
