<svg id="Group_531" data-name="Group 531" xmlns="http://www.w3.org/2000/svg" width="23.497" height="14.278" viewBox="0 0 23.497 14.278">
  <path id="Path_531" data-name="Path 531" d="M23.481,101.647a1.2,1.2,0,0,0-1.2-1.2h0L1.2,100.474A1.2,1.2,0,0,0,0,101.679l.016,11.842a1.2,1.2,0,0,0,1.2,1.2h0l21.074-.029a1.205,1.205,0,0,0,1.2-1.205Zm-2.526,0-9.206,6.4-9.224-6.374Zm-5.313,7.607,5.46,4.234-18.723.026,5.493-4.26a.6.6,0,1,0-.738-.951l-5.916,4.588L1.2,102.225l10.2,7.052a.6.6,0,0,0,.686,0l10.184-7.08.015,10.7-5.914-4.586a.6.6,0,1,0-.738.951Z" transform="translate(0 -100.445)" fill="#fff"/>
</svg>
