<svg id="menu_4_" data-name="menu (4)" xmlns="http://www.w3.org/2000/svg" width="5.965" height="21.445" viewBox="0 0 5.965 21.445">
  <g id="Group_576" data-name="Group 576">
    <g id="Group_575" data-name="Group 575">
      <path id="Path_604" data-name="Path 604" d="M194.982,192a2.982,2.982,0,1,0,2.982,2.982A2.986,2.986,0,0,0,194.982,192Zm0,4.971a1.988,1.988,0,1,1,1.988-1.988A1.991,1.991,0,0,1,194.982,196.971Z" transform="translate(-192 -184.26)" fill="#fff"/>
      <path id="Path_605" data-name="Path 605" d="M194.982,384a2.982,2.982,0,1,0,2.982,2.982A2.986,2.986,0,0,0,194.982,384Zm0,4.971a1.988,1.988,0,1,1,1.988-1.988A1.991,1.991,0,0,1,194.982,388.971Z" transform="translate(-192 -368.52)" fill="#fff"/>
      <path id="Path_606" data-name="Path 606" d="M194.982,5.965A2.982,2.982,0,1,0,192,2.982,2.986,2.986,0,0,0,194.982,5.965Zm0-4.971a1.988,1.988,0,1,1-1.988,1.988A1.991,1.991,0,0,1,194.982.994Z" transform="translate(-192)" fill="#fff"/>
    </g>
  </g>
</svg>
