<svg id="menu_2_" data-name="menu (2)" xmlns="http://www.w3.org/2000/svg" width="27.739" height="20.034" viewBox="0 0 27.739 20.034">
  <path id="Path_440" data-name="Path 440" d="M26.584,124.98H1.156a1.156,1.156,0,0,1,0-2.312H26.584a1.156,1.156,0,0,1,0,2.312Zm0,0" transform="translate(0 -113.807)" fill="#fff"/>
  <path id="Path_441" data-name="Path 441" d="M26.584,2.312H1.156A1.156,1.156,0,0,1,1.156,0H26.584a1.156,1.156,0,1,1,0,2.312Zm0,0" fill="#fff"/>
  <path id="Path_442" data-name="Path 442" d="M26.584,247.644H1.156a1.156,1.156,0,0,1,0-2.312H26.584a1.156,1.156,0,0,1,0,2.312Zm0,0" transform="translate(0 -227.61)" fill="#fff"/>
</svg>
