<svg id="Group_263" data-name="Group 263" xmlns="http://www.w3.org/2000/svg" width="23.914" height="23.914" viewBox="0 0 23.914 23.914">
  <g id="Group_262" data-name="Group 262">
    <path id="Path_128" data-name="Path 128" d="M308,324.666a.4.4,0,1,0-.8,0v.8a.4.4,0,1,0,.8,0Z" transform="translate(-292.853 -309.121)"/>
    <path id="Path_129" data-name="Path 129" d="M307.6,426.667a.4.4,0,0,0-.4.4v1.594a.4.4,0,1,0,.8,0v-1.594A.4.4,0,0,0,307.6,426.667Z" transform="translate(-292.852 -406.739)"/>
    <path id="Path_130" data-name="Path 130" d="M342.131,222.266a.4.4,0,0,0-.8,0v.8a.4.4,0,0,0,.8,0Z" transform="translate(-325.391 -211.504)"/>
    <path id="Path_131" data-name="Path 131" d="M308,273.466a.4.4,0,0,0-.8,0v.8a.4.4,0,1,0,.8,0Z" transform="translate(-292.853 -260.313)"/>
    <path id="Path_132" data-name="Path 132" d="M308,375.866a.4.4,0,1,0-.8,0v.8a.4.4,0,0,0,.8,0v-.8Z" transform="translate(-292.852 -357.93)"/>
    <path id="Path_133" data-name="Path 133" d="M342.131,273.466a.4.4,0,0,0-.8,0v.8a.4.4,0,0,0,.8,0Z" transform="translate(-325.391 -260.313)"/>
    <path id="Path_134" data-name="Path 134" d="M273.864,222.266a.4.4,0,1,0-.8,0v.8a.4.4,0,1,0,.8,0Z" transform="translate(-260.313 -211.504)"/>
    <path id="Path_135" data-name="Path 135" d="M308,222.266a.4.4,0,1,0-.8,0v.8a.4.4,0,1,0,.8,0Z" transform="translate(-292.853 -211.504)"/>
    <path id="Path_136" data-name="Path 136" d="M342.131,120.663v-.8a.4.4,0,0,0-.8,0v.8a.4.4,0,0,0,.8,0Z" transform="translate(-325.391 -113.887)"/>
    <path id="Path_137" data-name="Path 137" d="M273.864,273.466a.4.4,0,0,0-.8,0v.8a.4.4,0,1,0,.8,0Z" transform="translate(-260.313 -260.313)"/>
    <path id="Path_138" data-name="Path 138" d="M376.264,119.866a.4.4,0,0,0-.8,0v.8a.4.4,0,0,0,.8,0Z" transform="translate(-357.93 -113.887)"/>
    <path id="Path_139" data-name="Path 139" d="M273.466,324.267a.4.4,0,0,0-.4.4v.8a.4.4,0,1,0,.8,0v-.8A.4.4,0,0,0,273.466,324.267Z" transform="translate(-260.313 -309.121)"/>
    <path id="Path_140" data-name="Path 140" d="M410.4,375.866a.4.4,0,0,0-.8,0v.8a.4.4,0,0,0,.8,0v-.8Z" transform="translate(-390.469 -357.93)"/>
    <path id="Path_141" data-name="Path 141" d="M410,426.667a.4.4,0,0,0-.4.4v1.594a.4.4,0,1,0,.8,0v-1.594A.4.4,0,0,0,410,426.667Z" transform="translate(-390.469 -406.739)"/>
    <path id="Path_142" data-name="Path 142" d="M444.133,324.267a.4.4,0,0,0-.4.4v.8a.4.4,0,1,0,.8,0v-.8A.4.4,0,0,0,444.133,324.267Z" transform="translate(-423.009 -309.121)"/>
    <path id="Path_143" data-name="Path 143" d="M307.6,55.983a.4.4,0,0,0,.4-.4V53.9l3.986-1V59.57a.4.4,0,0,0,.259.373l2.93,1.1V65.15a.4.4,0,1,0,.8,0V60.766a.4.4,0,0,0-.259-.373l-2.93-1.1V51.6a.4.4,0,1,0-.8,0v.486L307.5,53.2a.4.4,0,0,0-.3.387v1.993A.4.4,0,0,0,307.6,55.983Z" transform="translate(-292.852 -48.809)"/>
    <path id="Path_144" data-name="Path 144" d="M444.531,273.466a.4.4,0,0,0-.8,0v.8a.4.4,0,1,0,.8,0Z" transform="translate(-423.009 -260.313)"/>
    <path id="Path_145" data-name="Path 145" d="M410.4,273.466a.4.4,0,0,0-.8,0v.8a.4.4,0,1,0,.8,0Z" transform="translate(-390.47 -260.313)"/>
    <path id="Path_146" data-name="Path 146" d="M342.131,375.866a.4.4,0,1,0-.8,0v.8a.4.4,0,0,0,.8,0Z" transform="translate(-325.391 -357.93)"/>
    <path id="Path_147" data-name="Path 147" d="M410.4,324.666a.4.4,0,1,0-.8,0v.8a.4.4,0,1,0,.8,0Z" transform="translate(-390.47 -309.121)"/>
    <path id="Path_148" data-name="Path 148" d="M341.733,426.667a.4.4,0,0,0-.4.4v1.594a.4.4,0,1,0,.8,0v-1.594A.4.4,0,0,0,341.733,426.667Z" transform="translate(-325.391 -406.739)"/>
    <path id="Path_149" data-name="Path 149" d="M342.131,324.666a.4.4,0,0,0-.8,0v.8a.4.4,0,0,0,.8,0Z" transform="translate(-325.391 -309.121)"/>
    <path id="Path_150" data-name="Path 150" d="M245.709,168.746a.4.4,0,0,0,.4-.4V155.594a.4.4,0,0,0-.3-.387l-6.377-1.594a.4.4,0,0,0-.5.387v8.768a.4.4,0,1,0,.8,0V154.51l5.58,1.395v12.443A.4.4,0,0,0,245.709,168.746Z" transform="translate(-227.773 -146.426)"/>
    <path id="Path_151" data-name="Path 151" d="M171.464,171.066a.4.4,0,1,0-.8,0v.8a.4.4,0,1,0,.8,0Z" transform="translate(-162.696 -162.696)"/>
    <path id="Path_152" data-name="Path 152" d="M171.464,119.866a.4.4,0,1,0-.8,0v.8a.4.4,0,1,0,.8,0Z" transform="translate(-162.696 -113.887)"/>
    <path id="Path_153" data-name="Path 153" d="M103.2,375.866a.4.4,0,0,0-.8,0v.8a.4.4,0,0,0,.8,0v-.8Z" transform="translate(-97.617 -357.93)"/>
    <path id="Path_154" data-name="Path 154" d="M34.532,242.122a.4.4,0,0,0,.4-.4v-1.993h3.986V249.7a.4.4,0,1,0,.8,0V239.333a.4.4,0,0,0-.4-.4H34.532a.4.4,0,0,0-.4.4v2.391A.4.4,0,0,0,34.532,242.122Z" transform="translate(-32.539 -227.774)"/>
    <path id="Path_155" data-name="Path 155" d="M136.533,171.066v.8a.4.4,0,0,0,.8,0v-.8a.4.4,0,0,0-.8,0Z" transform="translate(-130.156 -162.696)"/>
    <path id="Path_156" data-name="Path 156" d="M171.464,68.666a.4.4,0,1,0-.8,0v.8a.4.4,0,1,0,.8,0Z" transform="translate(-162.696 -65.078)"/>
    <path id="Path_157" data-name="Path 157" d="M102.8,426.667a.4.4,0,0,0-.4.4v1.594a.4.4,0,1,0,.8,0v-1.594A.4.4,0,0,0,102.8,426.667Z" transform="translate(-97.617 -406.739)"/>
    <path id="Path_158" data-name="Path 158" d="M23.515,332.237h-.8v-2.448a1.594,1.594,0,1,0-.8,0v2.448H11.957V330.6a1.993,1.993,0,1,0-.8,0v1.635H2.391v-4.026a1.993,1.993,0,1,0-.8,0v4.026H.4a.4.4,0,0,0,0,.8H23.515a.4.4,0,0,0,0-.8ZM.8,326.259a1.2,1.2,0,1,1,1.2,1.2A1.2,1.2,0,0,1,.8,326.259Zm9.566,2.391a1.2,1.2,0,1,1,1.2,1.2A1.2,1.2,0,0,1,10.363,328.65Zm11.16-.4a.8.8,0,1,1,.8.8A.8.8,0,0,1,21.523,328.252Z" transform="translate(0 -309.121)"/>
    <path id="Path_159" data-name="Path 159" d="M68.267,427.066v1.594a.4.4,0,1,0,.8,0v-1.594a.4.4,0,0,0-.8,0Z" transform="translate(-65.078 -406.739)"/>
    <path id="Path_160" data-name="Path 160" d="M103.2,273.466a.4.4,0,0,0-.8,0v.8a.4.4,0,1,0,.8,0Z" transform="translate(-97.618 -260.313)"/>
    <path id="Path_161" data-name="Path 161" d="M103.2,324.666a.4.4,0,1,0-.8,0v.8a.4.4,0,1,0,.8,0Z" transform="translate(-97.618 -309.121)"/>
    <path id="Path_162" data-name="Path 162" d="M68.267,273.466v.8a.4.4,0,1,0,.8,0v-.8a.4.4,0,0,0-.8,0Z" transform="translate(-65.078 -260.313)"/>
    <path id="Path_163" data-name="Path 163" d="M171.464,324.666a.4.4,0,1,0-.8,0v.8a.4.4,0,1,0,.8,0Z" transform="translate(-162.696 -309.121)"/>
    <path id="Path_164" data-name="Path 164" d="M205.6,222.266a.4.4,0,1,0-.8,0v.8a.4.4,0,0,0,.8,0Z" transform="translate(-195.235 -211.504)"/>
    <path id="Path_165" data-name="Path 165" d="M205.6,171.066a.4.4,0,1,0-.8,0v.8a.4.4,0,1,0,.8,0Z" transform="translate(-195.235 -162.696)"/>
    <path id="Path_166" data-name="Path 166" d="M205.6,273.466a.4.4,0,0,0-.8,0v.8a.4.4,0,1,0,.8,0Z" transform="translate(-195.235 -260.313)"/>
    <path id="Path_167" data-name="Path 167" d="M205.2,324.267a.4.4,0,0,0-.4.4v.8a.4.4,0,1,0,.8,0v-.8A.4.4,0,0,0,205.2,324.267Z" transform="translate(-195.234 -309.121)"/>
    <path id="Path_168" data-name="Path 168" d="M205.6,119.866a.4.4,0,1,0-.8,0v.8a.4.4,0,1,0,.8,0Z" transform="translate(-195.235 -113.887)"/>
    <path id="Path_169" data-name="Path 169" d="M171.464,375.866a.4.4,0,1,0-.8,0v.8a.4.4,0,0,0,.8,0Z" transform="translate(-162.696 -357.93)"/>
    <path id="Path_170" data-name="Path 170" d="M102.8,10.363a.4.4,0,0,0,.4-.4V7.022l1.374-.687a.4.4,0,0,0,.22-.357V2.638l1.993-1,1.993,1V5.978a.4.4,0,0,0,.8,0V2.391a.4.4,0,0,0-.22-.357L107.184.949V.4a.4.4,0,1,0-.8,0V.949l-2.171,1.085a.4.4,0,0,0-.22.357V5.732l-1.374.687a.4.4,0,0,0-.22.357V9.964A.4.4,0,0,0,102.8,10.363Z" transform="translate(-97.618)"/>
    <path id="Path_171" data-name="Path 171" d="M171.464,273.466a.4.4,0,0,0-.8,0v.8a.4.4,0,1,0,.8,0Z" transform="translate(-162.696 -260.313)"/>
    <path id="Path_172" data-name="Path 172" d="M171.066,426.667a.4.4,0,0,0-.4.4v1.594a.4.4,0,1,0,.8,0v-1.594A.4.4,0,0,0,171.066,426.667Z" transform="translate(-162.696 -406.739)"/>
    <path id="Path_173" data-name="Path 173" d="M205.6,68.666a.4.4,0,1,0-.8,0v.8a.4.4,0,1,0,.8,0Z" transform="translate(-195.235 -65.078)"/>
    <path id="Path_174" data-name="Path 174" d="M171.464,222.266a.4.4,0,1,0-.8,0v.8a.4.4,0,0,0,.8,0Z" transform="translate(-162.696 -211.504)"/>
  </g>
</svg>
