<?xml version="1.0" encoding="UTF-8"?>
<svg width="512px" height="456px" viewBox="0 0 512 456" version="1.1" xmlns="http://www.w3.org/2000/svg" xmlns:xlink="http://www.w3.org/1999/xlink">
    <!-- Generator: Sketch 52.6 (67491) - http://www.bohemiancoding.com/sketch -->
    <title>open</title>
    <desc>Created with Sketch.</desc>
    <g id="Page-1" stroke="none" stroke-width="1" fill="none" fill-rule="evenodd">
        <g id="open">
            <polygon id="Path" fill="#2C3E50" points="94.231 178.872 87.919 173.952 209.655 17.864 375.167 119.216 370.999 126.048 211.575 28.416"></polygon>
            <circle id="Oval" fill="#415E72" cx="212.735" cy="34.336" r="34.232"></circle>
            <circle id="Oval" fill="#517A91" cx="212.735" cy="34.336" r="17.84"></circle>
            <rect id="Rectangle" fill="#3266CC" transform="translate(255.980589, 274.033754) rotate(-10.795287) translate(-255.980589, -274.033754) " x="22.1817229" y="133.514635" width="467.597733" height="281.038238"></rect>
            <g id="Group" transform="translate(115.000000, 170.000000)" fill="#FFFFFF">
                <path d="M76.767,64.664 C80.959,86.68 70.015,101.784 51.911,105.232 C33.415,108.76 19.039,96.864 15.359,77.592 C11.519,57.424 21.471,40.792 39.967,37.28 C59.143,33.616 73.207,45.96 76.767,64.664 Z M27.967,74.976 C30.511,88.32 39.247,97.648 50.743,95.464 C62.239,93.28 66.815,81.296 64.191,67.568 C61.839,55.208 53.479,44.696 41.503,46.984 C29.527,49.272 25.407,61.448 27.983,74.976 L27.967,74.976 Z" id="Shape" fill-rule="nonzero"></path>
                <path d="M81.111,31.448 C86.967,29.296 93.007,27.672 99.159,26.592 C105.943,24.76 113.159,25.344 119.559,28.256 C124.455,31.088 127.831,35.96 128.751,41.536 C130.087,47.024 129.063,52.824 125.943,57.536 C121.159,63.592 114.191,67.52 106.535,68.496 C104.583,68.912 102.607,69.152 100.615,69.224 L105.335,93.96 L93.463,96.224 L81.111,31.448 Z M98.823,59.76 C100.823,59.784 102.815,59.576 104.759,59.128 C113.711,57.424 118.359,52 116.863,44.312 C115.471,37 109.663,34.072 101.391,35.648 C99.063,36.04 96.783,36.68 94.583,37.552 L98.823,59.76 Z" id="Shape" fill-rule="nonzero"></path>
                <polygon id="Path" points="179.031 49.704 154.303 54.424 157.983 73.704 185.631 68.44 187.503 78.272 147.879 85.824 135.367 20.224 173.535 12.944 175.407 22.776 149.223 27.776 152.423 44.712 177.151 40"></polygon>
                <path d="M198.015,76.256 L185.503,10.656 L199.103,8.056 L221.415,32.96 C226.991,39.232 232.135,45.872 236.807,52.84 L236.999,52.84 C234.543,44.224 232.647,35.8 230.735,25.776 L226.367,2.896 L237.471,0.776 L249.983,66.376 L237.615,68.736 L214.983,43.184 C209.231,36.68 203.855,29.856 198.871,22.744 L198.599,22.904 C200.711,31.28 202.447,39.928 204.511,50.736 L208.991,74.208 L198.015,76.256 Z" id="Path"></path>
                <polygon id="Path" points="12.967 145.96 17.983 172.24 45.735 166.952 40.719 140.664 52.719 138.384 65.231 203.984 53.231 206.264 47.719 177.352 19.967 182.64 25.479 211.56 13.479 213.84 0.967 148.24"></polygon>
                <path d="M130.751,156.792 C134.943,178.8 123.999,193.912 105.903,197.36 C87.407,200.88 73.023,188.984 69.343,169.712 C65.503,149.544 75.455,132.912 93.943,129.4 C113.127,125.744 127.191,138.096 130.751,156.792 Z M81.951,167.096 C84.495,180.44 93.239,189.776 104.727,187.592 C116.215,185.408 120.799,173.424 118.183,159.696 C115.823,147.336 107.463,136.824 95.487,139.104 C83.511,141.384 79.391,153.56 81.967,167.096 L81.951,167.096 Z" id="Shape" fill-rule="nonzero"></path>
                <path d="M146.807,120.424 L154.103,158.688 C156.559,171.544 163.047,176.472 171.127,174.92 C179.791,173.272 183.823,166.352 181.367,153.488 L174.071,115.224 L186.071,112.944 L193.223,150.432 C197.079,170.68 188.383,181.632 172.599,184.64 C157.399,187.536 145.967,180.936 142.031,160.296 L134.831,122.696 L146.807,120.424 Z" id="Path"></path>
                <path d="M209.495,162.96 C214.863,164.736 220.599,165.144 226.167,164.128 C233.855,162.656 237.455,158.24 236.431,152.88 C235.487,147.92 231.631,145.624 222.671,144.2 C211.119,142.368 203.111,137.952 201.303,128.496 C199.263,117.792 206.663,107.904 220.879,105.192 C226.295,104.008 231.911,104.112 237.279,105.488 L236.199,115.688 C231.775,114.368 227.087,114.152 222.559,115.056 C214.967,116.504 212.431,121.224 213.151,125.024 C214.119,130.088 218.359,131.704 227.775,133.44 C239.983,135.56 246.623,140.24 248.431,149.68 C250.439,160.192 244.199,170.872 227.263,174.112 C221.127,175.328 214.783,175.08 208.759,173.392 L209.495,162.96 Z" id="Path"></path>
                <polygon id="Path" points="293.959 130.2 269.231 134.912 272.911 154.2 300.559 148.928 302.431 158.76 262.807 166.32 250.303 100.72 288.471 93.44 290.343 103.272 264.151 108.264 267.351 125.208 292.087 120.496"></polygon>
            </g>
        </g>
    </g>
</svg>