<svg xmlns="http://www.w3.org/2000/svg" width="26.794" height="26.444" viewBox="0 0 26.794 26.444">
  <g id="Page-1" transform="translate(0 -0.343)">
    <g id="share-arrows-svgrepo-com" transform="translate(0 0.343)">
      <g id="Group">
        <path id="Shape" d="M26.794,12.817,14.32.343V8.515A15.132,15.132,0,0,0,0,23.624v3.163l1.521-2.773A13.519,13.519,0,0,1,13.378,17c.313,0,.628.011.942.033V25.29ZM13.378,15.379A15.146,15.146,0,0,0,1.973,20.554,13.533,13.533,0,0,1,15.131,10.115h.811V4.257l8.56,8.56-8.56,8.56V15.581l-.711-.088A15.133,15.133,0,0,0,13.378,15.379Z" transform="translate(0 -0.343)" fill="#666"/>
        <path id="Path" d="M35.669,47.328,25.4,36.773V43.5c-8.318.8-14.079,6.307-14.584,15.619,2.967-6.279,8.413-8.892,14.584-8.043v6.58Z" transform="translate(-10.254 -34.867)" fill="#d7d4d4" fill-rule="evenodd"/>
      </g>
    </g>
  </g>
</svg>
