<svg id="placeholder_1_" data-name="placeholder (1)" xmlns="http://www.w3.org/2000/svg" width="11.386" height="16.194" viewBox="0 0 11.386 16.194">
  <g id="Group_3" data-name="Group 3">
    <g id="Group_2" data-name="Group 2">
      <path id="Path_12" data-name="Path 12" d="M81.693,0A5.694,5.694,0,0,0,76.85,8.687l4.519,7.283a.474.474,0,0,0,.4.224h0a.474.474,0,0,0,.4-.231l4.4-7.353A5.694,5.694,0,0,0,81.693,0Zm4.076,8.123-4,6.685L77.656,8.187a4.747,4.747,0,1,1,8.113-.064Z" transform="translate(-76)" fill="#fff"/>
    </g>
  </g>
  <g id="Group_5" data-name="Group 5" transform="translate(2.847 2.847)">
    <g id="Group_4" data-name="Group 4">
      <path id="Path_13" data-name="Path 13" d="M168.847,90a2.847,2.847,0,1,0,2.847,2.847A2.85,2.85,0,0,0,168.847,90Zm0,4.751a1.9,1.9,0,1,1,1.9-1.9A1.905,1.905,0,0,1,168.847,94.751Z" transform="translate(-166 -90)" fill="#fff"/>
    </g>
  </g>
</svg>
