<svg xmlns="http://www.w3.org/2000/svg" width="20" height="20" viewBox="0 0 20 20">
  <g id="icons" transform="translate(-2 -2)">
    <g id="exit2">
      <path id="Path_1" data-name="Path 1" d="M11.607,11.417c.884,0,1.607-1.059,1.607-2.354V4.354C13.214,3.059,12.491,2,11.607,2S10,3.059,10,4.354V9.062C10,10.357,10.723,11.417,11.607,11.417Z" transform="translate(0.36)"/>
      <path id="Path_2" data-name="Path 2" d="M19.1,4.9h0A1.366,1.366,0,0,0,18,4.5,1.538,1.538,0,0,0,16.5,6a2.1,2.1,0,0,0,.4,1.1h0a6.8,6.8,0,0,1,2,4.9,7,7,0,0,1-14,0A6.715,6.715,0,0,1,7,7.1H7A1.606,1.606,0,0,0,7.5,6,1.538,1.538,0,0,0,6,4.5a2.1,2.1,0,0,0-1.1.4h0a10,10,0,1,0,14.2,0Z"/>
    </g>
  </g>
</svg>
