<?xml version="1.0" encoding="UTF-8"?>
<svg width="449px" height="512px" viewBox="0 0 449 512" version="1.1" xmlns="http://www.w3.org/2000/svg" xmlns:xlink="http://www.w3.org/1999/xlink">
    <!-- Generator: Sketch 51.3 (57544) - http://www.bohemiancoding.com/sketch -->
    <title>shield-with-lock</title>
    <desc>Created with Sketch.</desc>
    <defs></defs>
    <g id="Page-1" stroke="none" stroke-width="1" fill="none" fill-rule="evenodd">
        <g id="shield-with-lock" transform="translate(-1.000000, 0.000000)" fill="#FFFFFF" fill-rule="nonzero">
            <path d="M225.004,159.996 C207.363,159.996 193.004,174.355 193.004,191.996 L193.004,223.996 L257.004,223.996 L257.004,191.996 C257.004,174.355 242.645,159.996 225.004,159.996 Z" id="Shape"></path>
            <path d="M430.832,3.145 C419.721,-2.183 406.566,-0.652 396.939,7.067 C356.957,39.208 284.988,39.192 245.066,7.083 C233.347,-2.355 216.66,-2.339 204.941,7.067 C164.975,39.207 92.975,39.191 53.068,7.082 C43.457,-0.652 30.258,-2.184 19.191,3.144 C8.086,8.457 1.008,19.691 1.008,32.004 L0.992,288.004 C0.992,388.301 81.398,471.559 216.066,510.731 C218.988,511.575 221.988,511.997 225.005,511.997 C228.019,511.997 231.021,511.575 233.943,510.731 C368.613,471.559 449.004,388.317 449.004,288.004 L449.004,32.004 C449.004,19.691 441.941,8.457 430.832,3.145 Z M321.004,319.996 C321.004,337.676 306.678,351.996 289.004,351.996 L161.004,351.996 C143.33,351.996 129.004,337.676 129.004,319.996 L129.004,255.996 C129.004,238.324 143.33,223.996 161.004,223.996 L161.004,191.996 C161.004,156.715 189.707,127.996 225.004,127.996 C260.301,127.996 289.004,156.715 289.004,191.996 L289.004,223.996 C306.678,223.996 321.004,238.324 321.004,255.996 L321.004,319.996 Z" id="Shape"></path>
            <path d="M225.004,271.996 C216.168,271.996 209.004,279.16 209.004,287.996 C209.004,296.84 216.168,303.996 225.004,303.996 C233.84,303.996 241.004,296.84 241.004,287.996 C241.004,279.16 233.84,271.996 225.004,271.996 Z" id="Shape"></path>
        </g>
    </g>
</svg>