<svg id="user_1_" data-name="user (1)" xmlns="http://www.w3.org/2000/svg" width="16.826" height="19.229" viewBox="0 0 16.826 19.229">
  <path id="Path_453" data-name="Path 453" d="M142.589,9.615A4.807,4.807,0,1,1,147.4,4.807,4.813,4.813,0,0,1,142.589,9.615Zm0-8.413a3.605,3.605,0,1,0,3.605,3.605A3.609,3.609,0,0,0,142.589,1.2Z" transform="translate(-134.177)" fill="#fff"/>
  <path id="Path_454" data-name="Path 454" d="M50.67,319.551H35.046a.6.6,0,0,1-.6-.6v-4.137a1.8,1.8,0,0,1,.828-1.523,14.681,14.681,0,0,1,15.169,0,1.8,1.8,0,0,1,.829,1.524v4.137A.6.6,0,0,1,50.67,319.551Zm-15.023-1.2H50.069v-3.536a.593.593,0,0,0-.263-.5,13.455,13.455,0,0,0-13.9,0,.592.592,0,0,0-.263.5Z" transform="translate(-34.445 -300.322)" fill="#fff"/>
</svg>
