<svg xmlns="http://www.w3.org/2000/svg" width="20.842" height="20.842" viewBox="0 0 20.842 20.842">
  <g id="real-estate" transform="translate(-19.083 -19.083)">
    <path id="Path_478" data-name="Path 478" d="M46.017,67.841a1.169,1.169,0,0,0-.268-.209.789.789,0,0,0,.49-.229.662.662,0,0,0,.164-.461.714.714,0,0,0-.108-.391.57.57,0,0,0-.288-.238,1.8,1.8,0,0,0-.578-.067H44.375v2.481h.5V67.692h.1a.825.825,0,0,1,.252.028.384.384,0,0,1,.151.1,3.5,3.5,0,0,1,.264.364l.362.54h.6l-.3-.484A2.826,2.826,0,0,0,46.017,67.841Zm-.77-.545h-.371v-.629h.391q.3,0,.365.009a.307.307,0,0,1,.189.1.3.3,0,0,1,.067.2.323.323,0,0,1-.051.186.27.27,0,0,1-.14.1A1.913,1.913,0,0,1,45.246,67.3Z" transform="translate(-19.424 -36.22)" fill="#fff"/>
    <path id="Path_479" data-name="Path 479" d="M57.038,68.318H55.653v-.675H56.9v-.418H55.653v-.55h1.338v-.42H55.152v2.48h1.886Z" transform="translate(-27.701 -36.229)" fill="#fff"/>
    <path id="Path_480" data-name="Path 480" d="M65.6,67.119l1,1.617h.5v-2.48h-.465v1.656l-1.015-1.656h-.487v2.48H65.6Z" transform="translate(-35.367 -36.229)" fill="#fff"/>
    <path id="Path_481" data-name="Path 481" d="M75.866,68.736h.5v-2.06H77.1v-.42H75.13v.42h.736Z" transform="translate(-43.044 -36.229)" fill="#fff"/>
    <path id="Path_482" data-name="Path 482" d="M39.81,26.843l-10.131-7.7a.29.29,0,0,0-.351,0L19.2,26.843a.29.29,0,0,0,.176.521h.006l1.584-.035V39.635a.29.29,0,0,0,.29.29h16.5a.29.29,0,0,0,0-.58H30.683V35.217a.29.29,0,0,0-.58,0v4.128H21.542V27.032a.29.29,0,0,0-.087-.207.268.268,0,0,0-.209-.083l-.987.022L29.5,19.737l9.244,7.027-.987-.021a.268.268,0,0,0-.209.083.29.29,0,0,0-.087.207V38.2a.29.29,0,1,0,.58,0V27.329l1.584.035a.293.293,0,0,0,.28-.194A.29.29,0,0,0,39.81,26.843Z" fill="#fff"/>
    <path id="Path_483" data-name="Path 483" d="M41.671,64.051a.29.29,0,0,0,.29-.29v-4.05h6.786a.29.29,0,0,0,.29-.29V53.775a.29.29,0,0,0-.29-.29H43.739v-1.1a.29.29,0,0,0-.29-.29H41.671a.29.29,0,0,0-.29.29v1.1H36.373a.29.29,0,0,0-.29.29v5.645a.29.29,0,0,0,.29.29h5.008v4.051a.29.29,0,0,0,.29.29Zm.29-11.374h1.2v.809h-1.2Zm-5.3,1.388H48.457v5.065H36.663Z" transform="translate(-13.056 -25.354)" fill="#fff"/>
  </g>
</svg>
