<svg id="region" xmlns="http://www.w3.org/2000/svg" width="20.987" height="20.987" viewBox="0 0 20.987 20.987">
  <g id="Group_22" data-name="Group 22">
    <path id="Path_52" data-name="Path 52" d="M20.638,0H.35A.35.35,0,0,0,0,.35V20.638a.35.35,0,0,0,.35.35H20.638a.35.35,0,0,0,.35-.35V.35A.35.35,0,0,0,20.638,0ZM.7.7H5.947c0,1.055,0,4.15,0,4.2C5.946,8.07,3.99,10,.7,10.131ZM6.614,5.6h6.328v7H4.547v-3A5.453,5.453,0,0,0,6.614,5.6Zm3.879,13.642v1.049H.7V10.83a7.084,7.084,0,0,0,3.148-.8v2.907a.35.35,0,0,0,.35.35H6.3v2.8a.35.35,0,0,0,.35.35h4.9v2.45h-.7A.35.35,0,0,0,10.494,19.239Zm9.794,1.049H11.193v-.7h5.341c.3,0,.605,0,.605-.35V16.09a3.027,3.027,0,0,1,3.148-3.136Zm0-8.032A3.719,3.719,0,0,0,16.44,16.09v2.8h-4.2v-2.8a.35.35,0,0,0-.1-.248.389.389,0,0,0-.248-.1H7V13.292h6.3a.35.35,0,0,0,.35-.35V5.6h6.646Zm0-7.358H6.612c.034-.3.034-.925.034-2.274V.7H20.288Z" fill="#333"/>
  </g>
</svg>
