<svg xmlns="http://www.w3.org/2000/svg" width="20.868" height="21.641" viewBox="0 0 20.868 21.641">
  <g id="search" transform="translate(1.023 1.023)">
    <path id="Path_183" data-name="Path 183" d="M16.888,9.38a7.323,7.323,0,0,1-1.241,3.633,7.228,7.228,0,0,1-2.635,2.406,7.272,7.272,0,0,1-4.067.9A7.461,7.461,0,1,1,16.888,9.38Z" transform="translate(-1.983 -1.417)" fill="none" stroke="#fff" stroke-miterlimit="10" stroke-width="2.042"/>
    <path id="Path_184" data-name="Path 184" d="M29.665,30.1l-.146.138A1.69,1.69,0,0,1,27.14,30.2l-4.759-4.922a7.206,7.206,0,0,0,2.635-2.406l4.682,4.85A1.666,1.666,0,0,1,29.665,30.1Z" transform="translate(-11.356 -11.277)" fill="none" stroke="#fff" stroke-miterlimit="10" stroke-width="2.042"/>
  </g>
</svg>
