<svg xmlns="http://www.w3.org/2000/svg" width="20" height="20" viewBox="0 0 20 20">
  <g id="Group_1120" data-name="Group 1120" transform="translate(-0.032 -0.032)">
    <rect id="Rectangle_788" data-name="Rectangle 788" width="20" height="20" rx="10" transform="translate(0.032 0.032)" fill="#f0ad4e"/>
    <g id="iconfinder_ic_note_add_48px_3669317" transform="translate(3.985 4.006)">
      <path id="Path_632" data-name="Path 632" d="M0,0H12.469V12.469H0Z" fill="none"/>
      <path id="Path_633" data-name="Path 633" d="M11.029,2.917H6.872A1.034,1.034,0,0,0,5.839,3.956l-.005,8.312a1.034,1.034,0,0,0,1.034,1.039h6.239a1.039,1.039,0,0,0,1.039-1.039V6.034Zm1.039,7.273H10.509v1.559H9.47V10.19H7.911V9.151H9.47V7.592h1.039V9.151h1.559ZM10.509,6.553V3.7l2.857,2.857Z" transform="translate(-3.755 -1.878)" fill="#fff"/>
    </g>
  </g>
</svg>
