<?xml version="1.0" encoding="UTF-8"?>
<svg width="522px" height="496px" viewBox="0 0 522 496" version="1.1" xmlns="http://www.w3.org/2000/svg" xmlns:xlink="http://www.w3.org/1999/xlink">
    <!-- Generator: Sketch 52.6 (67491) - http://www.bohemiancoding.com/sketch -->
    <title>plus</title>
    <desc>Created with Sketch.</desc>
    <g id="Page-1" stroke="none" stroke-width="1" fill="none" fill-rule="evenodd">
        <g id="plus" fill="#3366CC">
            <path d="M485,141.932 C485,63.97 421.573,0.543 343.611,0.543 C320.998,0.543 299.384,5.727 279.373,15.952 C265.751,22.911 253.238,32.157 242.5,43.128 C231.763,32.157 219.25,22.912 205.627,15.952 C185.615,5.727 164.002,0.543 141.389,0.543 C63.427,0.543 0,63.97 0,141.932 C0,197.15 29.163,255.798 86.678,316.245 C134.701,366.717 193.494,408.789 234.359,435.195 L242.5,440.456 L250.641,435.195 C259.758,429.304 268.831,423.237 277.72,417.09 C297.881,430.063 321.859,437.596 347.564,437.596 C418.932,437.596 476.994,379.534 476.994,308.166 C476.994,282.753 469.627,259.03 456.923,239.012 C475.555,205.775 485,173.156 485,141.932 Z M242.5,404.682 C203.607,379.018 151.33,340.673 108.412,295.566 C56.381,240.884 30,189.194 30,141.932 C30,80.512 79.969,30.543 141.389,30.543 C176.75,30.543 209.232,46.786 230.507,75.106 L242.5,91.071 L254.493,75.106 C275.768,46.786 308.251,30.543 343.612,30.543 C405.032,30.543 455.001,80.512 455.001,141.932 C455.001,164.81 448.697,188.975 436.243,213.982 C413.061,192.144 381.851,178.738 347.565,178.738 C276.197,178.738 218.136,236.8 218.136,308.168 C218.136,342.619 231.668,373.966 253.693,397.182 C249.981,399.701 246.251,402.207 242.5,404.682 Z M347.564,407.597 C292.738,407.597 248.135,362.993 248.135,308.167 C248.135,253.341 292.739,208.737 347.564,208.737 C402.389,208.737 446.994,253.341 446.994,308.167 C446.994,362.993 402.39,407.597 347.564,407.597 Z" id="Shape" fill-rule="nonzero"></path>
            <g id="Group" transform="translate(285.000000, 246.000000)">
                <polygon id="Path" points="77.564 0.552 47.564 0.552 47.564 47.168 0.948 47.168 0.948 77.168 47.564 77.168 47.564 123.783 77.564 123.783 77.564 77.168 124.18 77.168 124.18 47.168 77.564 47.168"></polygon>
                <rect id="Rectangle" transform="translate(183.197064, 194.356709) rotate(47.000000) translate(-183.197064, -194.356709) " x="120.197064" y="180.356709" width="126" height="28"></rect>
            </g>
        </g>
    </g>
</svg>