<svg xmlns="http://www.w3.org/2000/svg" width="20" height="20" viewBox="0 0 20 20">
  <g id="phone" transform="translate(0.287 -0.032)">
    <rect id="Rectangle_785" data-name="Rectangle 785" width="20" height="20" rx="10" transform="translate(-0.287 0.032)" fill="#2296f3"/>
    <g id="phone_1_" data-name="phone (1)" transform="translate(5.13 5.151)">
      <g id="Group_1119" data-name="Group 1119">
        <path id="Path_620" data-name="Path 620" d="M9.364,6.683a5.781,5.781,0,0,1-1.815-.289.83.83,0,0,0-.807.17L5.6,7.428A6.326,6.326,0,0,1,2.753,4.584l.839-1.115a.823.823,0,0,0,.2-.834A5.789,5.789,0,0,1,3.5.817.818.818,0,0,0,2.687,0H.817A.818.818,0,0,0,0,.817a9.375,9.375,0,0,0,9.364,9.364.818.818,0,0,0,.817-.817V7.5A.818.818,0,0,0,9.364,6.683Z" transform="translate(0 0)" fill="#fff"/>
      </g>
    </g>
  </g>
</svg>
