<?xml version="1.0" encoding="UTF-8"?>
<svg width="321px" height="321px" viewBox="0 0 321 321" version="1.1" xmlns="http://www.w3.org/2000/svg" xmlns:xlink="http://www.w3.org/1999/xlink">
    <!-- Generator: Sketch 52.6 (67491) - http://www.bohemiancoding.com/sketch -->
    <title>search-home-icon</title>
    <desc>Created with Sketch.</desc>
    <g id="Page-1" stroke="none" stroke-width="1" fill="none" fill-rule="evenodd">
        <g id="search-home-icon" transform="translate(10.000000, 10.000000)">
            <ellipse id="Oval" stroke="#77829A" stroke-width="20" cx="133.5" cy="132.621711" rx="133.5" ry="132.621711"></ellipse>
            <path d="M198.353562,126.20255 L141.954735,70.0324764 C137.293454,65.4036896 129.713757,65.3971232 125.042861,70.0387693 L68.6445836,126.20255 C65.1184721,129.713675 65.1184721,135.409233 68.6445836,138.920359 C72.1728929,142.433947 77.8880231,142.433947 81.4157829,138.920359 L89.0608651,131.305488 L89.0608651,190.094746 C89.0608651,195.387016 93.3691222,199.677358 98.6837016,199.677358 L119.240368,199.677358 L119.240368,172.968399 C119.240368,170.893407 120.928836,169.208844 123.015931,169.208844 L143.99183,169.208844 C146.077002,169.208844 147.766294,170.893407 147.766294,172.968399 L147.766294,199.677632 L168.319389,199.677632 C173.634243,199.677632 177.942226,195.38729 177.942226,190.09502 L177.942226,131.310412 L185.582912,138.920633 C187.348028,140.677426 189.657927,141.555413 191.968374,141.555413 C194.278273,141.555413 196.588995,140.677426 198.353562,138.920633 C201.882146,135.409233 201.882146,129.713949 198.353562,126.20255 Z" id="Path" fill="#77829A"></path>
            <path d="M302,302 L231,231.467105" id="Path" stroke="#77829A" stroke-width="17" stroke-linecap="round"></path>
        </g>
    </g>
</svg>