<svg xmlns="http://www.w3.org/2000/svg" width="20" height="20" viewBox="0 0 20 20">
  <g id="Group_1118" data-name="Group 1118" transform="translate(0.074 -0.032)">
    <rect id="Rectangle_787" data-name="Rectangle 787" width="20" height="20" rx="10" transform="translate(-0.074 0.032)" fill="#90a4ae"/>
    <g id="Page-1" transform="translate(4.558 3.434)">
      <g id="upload-user">
        <path id="Shape" d="M8.77,6.474c1.8,0,2.446-1.8,2.615-3.28C11.594,1.371,10.732,0,8.77,0S5.946,1.371,6.155,3.194C6.324,4.673,6.971,6.474,8.77,6.474Z" transform="translate(-3.904)" fill="#fff"/>
        <path id="Shape-2" data-name="Shape" d="M8.838,17.974q.087,0,.172,0a1.375,1.375,0,0,0-.3-.316,4.886,4.886,0,0,0-1.189-.5,5.154,5.154,0,0,1-.527-.236,2.739,2.739,0,0,1-2.089.913,2.738,2.738,0,0,1-2.088-.913,5.149,5.149,0,0,1-.527.236,4.887,4.887,0,0,0-1.189.5A3.436,3.436,0,0,0,.228,19.8a12.275,12.275,0,0,0-.187,1.716c-.015.445.2.507.576.641a10.77,10.77,0,0,0,1.431.395,14.421,14.421,0,0,0,2.858.356A11.492,11.492,0,0,0,6.3,22.8a3.081,3.081,0,0,1,2.539-4.829Z" transform="translate(-0.04 -10.751)" fill="#fff"/>
        <path id="Shape-3" data-name="Shape" d="M19.678,21.484a2.466,2.466,0,1,0,2.466,2.466A2.466,2.466,0,0,0,19.678,21.484Zm.814,3.108a.346.346,0,0,1-.314-.374l.022-.254L18.96,25a.346.346,0,0,1-.444-.529l1.24-1.04-.255-.022a.346.346,0,0,1,.06-.689l1.086.1a.346.346,0,0,1,.314.374l-.095,1.086A.346.346,0,0,1,20.492,24.592Z" transform="translate(-10.945 -13.644)" fill="#fff"/>
      </g>
    </g>
  </g>
</svg>
