<svg xmlns="http://www.w3.org/2000/svg" width="20" height="20" viewBox="0 0 20 20">
  <g id="Group_1117" data-name="Group 1117" transform="translate(0.181 -0.032)">
    <rect id="Rectangle_786" data-name="Rectangle 786" width="20" height="20" rx="10" transform="translate(-0.181 0.032)" fill="#b90404"/>
    <g id="mail_1_" data-name="mail (1)" transform="translate(4.558 5.723)">
      <g id="Group_1138" data-name="Group 1138">
        <g id="Group_1137" data-name="Group 1137">
          <path id="Path_634" data-name="Path 634" d="M.553,5.038C2.047,6.3,4.669,8.529,5.44,9.224a.455.455,0,0,0,.659,0C6.87,8.53,9.492,6.3,10.986,5.038a.227.227,0,0,0,.032-.313.9.9,0,0,0-.712-.35H1.233a.9.9,0,0,0-.712.35A.227.227,0,0,0,.553,5.038Z" transform="translate(-0.326 -4.375)" fill="#fff"/>
          <path id="Path_635" data-name="Path 635" d="M26.69,8.663a.226.226,0,0,0-.242.033c-.979.83-2.268,1.926-3.241,2.762a.227.227,0,0,0,.006.349c.9.724,2.265,1.719,3.248,2.427a.227.227,0,0,0,.359-.184V8.868A.227.227,0,0,0,26.69,8.663Z" transform="translate(-15.934 -7.314)" fill="#fff"/>
          <path id="Path_636" data-name="Path 636" d="M.359,14.233c.984-.708,2.345-1.7,3.249-2.427a.227.227,0,0,0,.006-.349C2.642,10.621,1.352,9.525.373,8.7A.227.227,0,0,0,0,8.869v5.181a.227.227,0,0,0,.359.184Z" transform="translate(0 -7.315)" fill="#fff"/>
          <path id="Path_637" data-name="Path 637" d="M11.016,22.3c-.95-.679-2.7-1.946-3.743-2.794a.227.227,0,0,0-.292.005c-.2.179-.376.329-.5.439a.919.919,0,0,1-1.266,0c-.121-.109-.293-.26-.5-.438a.226.226,0,0,0-.292-.005C3.387,20.352,1.635,21.62.684,22.3a.227.227,0,0,0-.034.339.909.909,0,0,0,.663.291h9.073a.91.91,0,0,0,.663-.291.227.227,0,0,0-.034-.339Z" transform="translate(-0.406 -14.765)" fill="#fff"/>
        </g>
      </g>
    </g>
  </g>
</svg>
