<?xml version="1.0" encoding="UTF-8"?>
<svg width="323px" height="323px" viewBox="0 0 323 323" version="1.1" xmlns="http://www.w3.org/2000/svg" xmlns:xlink="http://www.w3.org/1999/xlink">
    <!-- Generator: Sketch 52.6 (67491) - http://www.bohemiancoding.com/sketch -->
    <title>search-heart-icon</title>
    <desc>Created with Sketch.</desc>
    <g id="Page-1" stroke="none" stroke-width="1" fill="none" fill-rule="evenodd">
        <g id="search-heart-icon" transform="translate(11.000000, 11.000000)" stroke="#77829A">
            <ellipse id="Oval" stroke-width="22" cx="133.5" cy="132.621711" rx="133.5" ry="132.621711"></ellipse>
            <path d="M204.883192,81.3462214 C196.252874,71.4427487 183.439638,66.1666462 170.303825,67.107485 C157.168012,68.0483238 145.245396,75.0961057 138.127992,86.1274923 C136.612848,88.264671 135.232107,90.4932134 133.9937,92.8003228 C132.755416,90.4931425 131.374671,88.2645927 129.859408,86.1274923 C122.742004,75.0961057 110.819387,68.0483238 97.6835743,67.107485 C84.5477611,66.1666462 71.7345254,71.4427487 63.1042072,81.3462214 C55.1409659,90.600513 50.8392545,102.427246 51.004595,114.611791 C51.505556,129.655742 57.5456036,143.991093 67.9749973,154.889069 C81.0846556,169.112673 95.2747726,182.310431 110.41957,194.365362 C116.843815,199.812067 123.484676,205.455939 130.558772,211.617371 L130.7692,211.802213 C132.603112,213.399262 135.340964,213.399262 137.174877,211.802213 L137.385305,211.617371 C144.4594,205.455939 151.100262,199.82439 157.524506,194.365362 C172.688673,182.312811 186.897484,169.114986 200.02478,154.889069 C210.4467,143.998619 216.486132,129.675692 216.995183,114.642598 C217.164644,102.445898 212.857993,90.6067311 204.883192,81.3462214 Z M150.844394,187.278715 C145.28652,191.970317 139.567189,196.803528 133.543571,202 C127.513743,196.803528 121.794412,191.970317 116.236538,187.278715 C82.367661,158.679649 60.0057569,139.802417 60.0057569,114.946781 C59.8391869,105.119198 63.2922468,95.5685457 69.718064,88.0839763 C75.9506619,80.989352 84.994,76.9424136 94.4832053,77.0014532 C105.420096,77.2628681 115.51113,82.8952838 121.409397,92.0305859 C124.595294,96.5585751 127.105149,101.518889 128.861295,106.758028 C129.517892,108.746854 131.389441,110.091935 133.500102,110.091935 C135.610762,110.091935 137.482311,108.746854 138.138908,106.758028 C139.895134,101.518922 142.404984,96.5586192 145.590806,92.0305859 C151.00569,83.4241934 160.222936,77.8807421 170.423132,77.0958871 C180.623327,76.3110321 190.592835,80.3781569 197.282139,88.0531915 C203.705109,95.5345604 207.157981,105.080317 206.994446,114.903682 C207.037916,139.802417 184.676011,158.679649 150.844394,187.278715 Z" id="Path_178" stroke-width="6" fill="#77829A" fill-rule="nonzero"></path>
            <path d="M302,302 L231,231.467105" id="Path" stroke-width="20" stroke-linecap="round"></path>
        </g>
    </g>
</svg>