<svg xmlns="http://www.w3.org/2000/svg" width="20" height="20" viewBox="0 0 20 20">
  <g id="Group_1118" data-name="Group 1118" transform="translate(0.394 -0.032)">
    <rect id="Rectangle_787" data-name="Rectangle 787" width="20" height="20" rx="10" transform="translate(-0.394 0.032)" fill="#20ba3a"/>
    <g id="sms_1_" data-name="sms (1)" transform="translate(3.413 8.013)">
      <g id="Group_1140" data-name="Group 1140">
        <path id="Path_639" data-name="Path 639" d="M6.064,12.719a2.261,2.261,0,0,0,1,.282c.35,0,.5-.122.5-.312s-.114-.282-.548-.427c-.77-.259-1.067-.678-1.059-1.12,0-.693.594-1.219,1.516-1.219a2.5,2.5,0,0,1,1.052.213l-.206.8a1.824,1.824,0,0,0-.808-.214c-.282,0-.442.114-.442.3,0,.175.145.267.6.427.708.243,1.005.6,1.013,1.15,0,.693-.548,1.2-1.615,1.2a2.635,2.635,0,0,1-1.2-.259Z" transform="translate(-5.859 -9.923)" fill="#fff"/>
        <path id="Path_640" data-name="Path 640" d="M12.27,11.2c0-.464-.015-.861-.03-1.188h.975l.053.5h.023a1.292,1.292,0,0,1,1.127-.586,1.055,1.055,0,0,1,1.021.632h.015a1.663,1.663,0,0,1,.48-.449,1.345,1.345,0,0,1,.709-.183c.716,0,1.257.5,1.257,1.614v2.194H16.772V11.706c0-.541-.176-.854-.549-.854a.566.566,0,0,0-.533.4.97.97,0,0,0-.046.3v2.178H14.517V11.645c0-.472-.168-.792-.534-.792a.59.59,0,0,0-.541.419.769.769,0,0,0-.046.29v2.171H12.27V11.2Z" transform="translate(-8.751 -9.923)" fill="#fff"/>
        <path id="Path_641" data-name="Path 641" d="M24.093,12.719a2.261,2.261,0,0,0,1,.282c.35,0,.5-.122.5-.312s-.114-.282-.548-.427c-.77-.259-1.067-.678-1.059-1.12,0-.693.594-1.219,1.516-1.219a2.5,2.5,0,0,1,1.052.213l-.206.8a1.824,1.824,0,0,0-.808-.214c-.282,0-.442.114-.442.3,0,.175.145.267.6.427.708.243,1.005.6,1.013,1.15,0,.693-.548,1.2-1.615,1.2a2.635,2.635,0,0,1-1.2-.259Z" transform="translate(-14.032 -9.923)" fill="#fff"/>
      </g>
    </g>
  </g>
</svg>
