<svg xmlns="http://www.w3.org/2000/svg" width="20.306" height="21.059" viewBox="0 0 20.306 21.059">
  <g id="search" transform="translate(1.023 1.023)">
    <path id="Path_183" data-name="Path 183" d="M16.444,9.143a7.105,7.105,0,0,1-1.2,3.525A7.013,7.013,0,0,1,12.683,15a7.055,7.055,0,0,1-3.945.875,7.238,7.238,0,1,1,7.706-6.734Z" transform="translate(-1.983 -1.417)" fill="none" stroke="#fff" stroke-miterlimit="10" stroke-width="2.042"/>
    <path id="Path_184" data-name="Path 184" d="M29.448,29.886l-.142.134A1.639,1.639,0,0,1,27,29.985L22.381,25.21a6.992,6.992,0,0,0,2.556-2.334l4.542,4.706A1.617,1.617,0,0,1,29.448,29.886Z" transform="translate(-11.684 -11.623)" fill="none" stroke="#fff" stroke-miterlimit="10" stroke-width="2.042"/>
  </g>
</svg>
