<?xml version="1.0" encoding="UTF-8"?>
<svg width="21px" height="21px" viewBox="0 0 21 21" version="1.1" xmlns="http://www.w3.org/2000/svg" xmlns:xlink="http://www.w3.org/1999/xlink">
    <!-- Generator: Sketch 52.6 (67491) - http://www.bohemiancoding.com/sketch -->
    <title>searchblue</title>
    <desc>Created with Sketch.</desc>
    <g id="Page-1" stroke="none" stroke-width="1" fill="none" fill-rule="evenodd">
        <g id="searchblue" transform="translate(1.000000, 1.000000)" stroke="#3366CC" stroke-width="2.042">
            <path d="M14.484,7.749 C14.4044912,9.00978705 13.990265,10.2265768 13.284,11.274 C12.638739,12.2532319 11.7582179,13.0550184 10.723,13.606 C9.5214437,14.2760777 8.15018682,14.5802222 6.778,14.481 C3.8567654,14.2850364 1.34129415,12.3484865 0.404751177,9.57451814 C-0.531791794,6.80054976 0.295069542,3.73556668 2.49970377,1.80901504 C4.70433801,-0.117536597 7.85248619,-0.526173307 10.4759157,0.77368481 C13.0993451,2.07354293 14.6813045,4.82585566 14.484,7.747 L14.484,7.749 Z" id="Path_183"></path>
            <path d="M17.787,18.286 L17.645,18.42 C16.9967605,19.0425884 15.9680462,19.0269748 15.339,18.385 L10.72,13.61 C11.7541483,13.0585155 12.6330791,12.2559238 13.276,11.276 L17.818,15.982 C18.1224952,16.2900509 18.2906715,16.7073863 18.2848442,17.1404899 C18.2790168,17.5735935 18.099673,17.986253 17.787,18.286 Z" id="Path_184"></path>
        </g>
    </g>
</svg>