<svg xmlns="http://www.w3.org/2000/svg" width="20" height="20" viewBox="0 0 20 20">
  <g id="Group_1117" data-name="Group 1117" transform="translate(-0.385 0.1)">
    <rect id="Rectangle_786" data-name="Rectangle 786" width="20" height="20" rx="10" transform="translate(0.385 -0.1)" fill="#4b4b8f"/>
    <path id="home-run_1_" data-name="home-run (1)" d="M9.866,4.41h0L5.729.274a.933.933,0,0,0-1.32,0L.275,4.407l0,0A.933.933,0,0,0,.892,6h.194V9.047a1.094,1.094,0,0,0,1.093,1.092H3.8a.3.3,0,0,0,.3-.3V7.456a.5.5,0,0,1,.5-.5h.954a.5.5,0,0,1,.5.5V9.842a.3.3,0,0,0,.3.3H7.96A1.094,1.094,0,0,0,9.053,9.047V6h.153A.934.934,0,0,0,9.866,4.41Zm0,0" transform="translate(5.096 5.117)" fill="#fff"/>
  </g>
</svg>
