<svg xmlns="http://www.w3.org/2000/svg" width="16.69" height="20.161" viewBox="0 0 16.69 20.161">
  <g id="seller" transform="translate(-8 -1.6)">
    <path id="Path_470" data-name="Path 470" d="M21.719,13.917l-2.971-1.2a3.672,3.672,0,0,0,1.235-2.4l.8-.4a1,1,0,0,0,.567-.9v-.6a.984.984,0,0,0-1-1h-.334V6.774l.467-1.9A1.684,1.684,0,0,0,20.05,3.3l-.067-.067a1.639,1.639,0,0,0-1.2-.5H17.547a.909.909,0,0,1-.7-.3L16.011,1.6l-.834.834a1.036,1.036,0,0,1-.734.3H13.207a1.566,1.566,0,0,0-1.168.5l-.067.067a1.684,1.684,0,0,0-.434,1.569l.467,1.9v.634h-.334a.984.984,0,0,0-1,1v.6a.984.984,0,0,0,.567.9l.8.4a3.749,3.749,0,0,0,1.235,2.4l-3,1.235A3.6,3.6,0,0,0,8,17.322v4.44H24.69V16.287l-2.67-2.67Zm-1.7-5.841h.334a.315.315,0,0,1,.334.334v.6a.321.321,0,0,1-.2.3l-.467.234ZM12.006,9.544l-.467-.234a.384.384,0,0,1-.2-.3v-.6a.315.315,0,0,1,.334-.334h.334Zm7.744,4.273-1.7,1.469L16.712,13.75a3.281,3.281,0,0,0,.534-.167l.6-.267a.538.538,0,0,0,.234-.134Zm-2.8,1.2-.7.7a.323.323,0,0,1-.467,0l-.7-.7.935-1.1ZM12.172,4.738A.9.9,0,0,1,12.44,3.8l.067-.067a.947.947,0,0,1,.734-.334h1.235a1.566,1.566,0,0,0,1.168-.5l.367-.367.367.367a1.639,1.639,0,0,0,1.2.5h1.235a.909.909,0,0,1,.7.3l.067.067a1.055,1.055,0,0,1,.267.935l-.3,1.168a1.009,1.009,0,0,0-.534-.167h-1.8a.474.474,0,0,1-.2-.067l-.467-.3a.953.953,0,0,0-1.1,0l-.467.3a.474.474,0,0,1-.2.067H13.007a1.009,1.009,0,0,0-.534.167Zm.5,5.207v-3.2a.315.315,0,0,1,.334-.334h1.8a1.125,1.125,0,0,0,.567-.167l.467-.3a.362.362,0,0,1,.367,0l.467.3a1.125,1.125,0,0,0,.567.167h1.769a.315.315,0,0,1,.334.334v3.2a3.047,3.047,0,0,1-1.769,2.737l-.6.267a2.44,2.44,0,0,1-1.936,0l-.6-.267a3.047,3.047,0,0,1-1.769-2.737Zm1.235,3.2c.067.033.167.1.234.134l.6.267a2.5,2.5,0,0,0,.534.167l-1.335,1.535-1.7-1.469Zm.467,7.944H12.339V17.756h-.668v3.338h-3V17.322a3.008,3.008,0,0,1,1.869-2.771l1.035-.434,2.47,2.1.6-.7.334.334Zm.668,0,.567-4.707a.85.85,0,0,0,.8,0l.567,4.707Zm4.306-4.807v4.807h-1.7l-.634-5.207.334-.334.6.7,2.47-2.1.768.3Zm3.338,4.807H21.352V18.757h1.335Zm1.335,0h-.668v-3h-2.67v3h-.668v-4.54l2-2,2,2Z" fill="#fff"/>
    <path id="Path_471" data-name="Path 471" d="M47,47h2v.668H47Z" transform="translate(-25.982 -30.246)" fill="#fff"/>
  </g>
</svg>
