<svg xmlns="http://www.w3.org/2000/svg" width="24.199" height="21.606" viewBox="0 0 24.199 21.606">
  <path id="iconfinder_share_1608831" d="M24.2,8.442a.831.831,0,0,1-.257.608l-6.914,6.914a.864.864,0,0,1-1.472-.608V11.9H12.532q-1.323,0-2.37.081a17.116,17.116,0,0,0-2.08.29,7.729,7.729,0,0,0-1.8.574,6.342,6.342,0,0,0-1.425.939,4.7,4.7,0,0,0-1.08,1.364,7.338,7.338,0,0,0-.655,1.87,11.486,11.486,0,0,0-.236,2.444q0,.743.068,1.661a2.791,2.791,0,0,0,.034.317,2.757,2.757,0,0,1,.034.358.5.5,0,0,1-.115.338.394.394,0,0,1-.317.135.462.462,0,0,1-.378-.23,1.522,1.522,0,0,1-.176-.3q-.081-.176-.182-.405t-.142-.324A16.215,16.215,0,0,1,0,14.924a12.3,12.3,0,0,1,.716-4.5Q2.9,4.985,12.532,4.985h3.025V1.528a.831.831,0,0,1,.257-.608.848.848,0,0,1,1.215,0l6.914,6.914A.831.831,0,0,1,24.2,8.442Z" transform="translate(0 -0.664)" fill="gray"/>
</svg>
