<svg xmlns="http://www.w3.org/2000/svg" width="289" height="215.367" viewBox="0 0 289 215.367">
  <g id="signup" transform="translate(-34.29 -25.25)">
    <g id="Group_331" data-name="Group 331" transform="translate(34.29 25.25)">
      <rect id="Rectangle_202" data-name="Rectangle 202" width="289" height="0.147" transform="translate(0 189.261)" fill="#ececec"/>
      <rect id="Rectangle_203" data-name="Rectangle 203" width="12.533" height="0.147" transform="translate(247.514 198.566)" fill="#ececec"/>
      <rect id="Rectangle_204" data-name="Rectangle 204" width="19.715" height="0.147" transform="translate(179.501 195.565)" fill="#ececec"/>
      <rect id="Rectangle_205" data-name="Rectangle 205" width="25.737" height="0.147" transform="translate(229.227 193.2)" fill="#ececec"/>
      <rect id="Rectangle_206" data-name="Rectangle 206" width="6.438" height="0.147" transform="translate(93.562 196.114)" fill="#ececec"/>
      <rect id="Rectangle_207" data-name="Rectangle 207" width="22.186" height="0.147" transform="translate(66.231 196.114)" fill="#ececec"/>
      <rect id="Rectangle_208" data-name="Rectangle 208" width="16.01" height="0.147" transform="translate(38.324 193.669)" fill="#ececec"/>
      <path id="Path_327" data-name="Path 327" d="M182.161,188.734H70.553a3.3,3.3,0,0,1-3.3-3.3V28.546a3.3,3.3,0,0,1,3.3-3.3H182.161a3.3,3.3,0,0,1,3.3,3.3V185.432A3.3,3.3,0,0,1,182.161,188.734ZM70.553,25.4A3.156,3.156,0,0,0,67.4,28.553V185.439a3.156,3.156,0,0,0,3.155,3.155H182.161a3.156,3.156,0,0,0,3.155-3.155V28.546a3.156,3.156,0,0,0-3.155-3.155H70.553Z" transform="translate(-45.171 -25.25)" fill="#ececec"/>
      <path id="Path_328" data-name="Path 328" d="M368.795,188.734H257.186a3.3,3.3,0,0,1-3.3-3.3V28.546a3.3,3.3,0,0,1,3.3-3.3H368.795a3.3,3.3,0,0,1,3.3,3.3V185.432A3.3,3.3,0,0,1,368.795,188.734ZM257.186,25.4a3.156,3.156,0,0,0-3.155,3.155V185.439a3.156,3.156,0,0,0,3.155,3.155H368.795a3.156,3.156,0,0,0,3.155-3.155V28.546a3.156,3.156,0,0,0-3.155-3.155H257.186Z" transform="translate(-106.784 -25.25)" fill="#ececec"/>
    </g>
    <g id="Group_356" data-name="Group 356" transform="translate(67.801 35.204)">
      <g id="Group_332" data-name="Group 332" transform="translate(0 16.894)">
        <path id="Path_329" data-name="Path 329" d="M132.77,116.6a12.085,12.085,0,0,0,0-24.169h-1.48V116.6Z" transform="translate(-99.823 -74.276)" fill="#e1e1e1"/>
        <circle id="Ellipse_12" data-name="Ellipse 12" cx="12.085" cy="12.085" r="12.085" transform="translate(19.383 18.154)" fill="#f5f5f5"/>
        <path id="Path_330" data-name="Path 330" d="M122.488,99.245A16.193,16.193,0,0,1,106.31,83.067V73.4a1.521,1.521,0,0,1,3.041,0v9.666A13.157,13.157,0,0,0,122.494,96.21a1.517,1.517,0,1,1-.007,3.035Z" transform="translate(-91.576 -67.492)" fill="#e1e1e1"/>
        <path id="Path_331" data-name="Path 331" d="M87.119,79.753h26.889a2.805,2.805,0,0,0,2.713-3.524L114.39,67.42a2.809,2.809,0,0,0-2.713-2.09H89.457a2.809,2.809,0,0,0-2.713,2.09l-2.331,8.809A2.8,2.8,0,0,0,87.119,79.753Z" transform="translate(-84.316 -65.33)" fill="#f5f5f5"/>
      </g>
      <g id="Group_333" data-name="Group 333" transform="translate(170.679 16.894)">
        <path id="Path_332" data-name="Path 332" d="M387.56,116.6a12.085,12.085,0,1,0,0-24.169h-1.48V116.6Z" transform="translate(-354.613 -74.276)" fill="#e1e1e1"/>
        <circle id="Ellipse_13" data-name="Ellipse 13" cx="12.085" cy="12.085" r="12.085" transform="translate(19.382 18.154)" fill="#f5f5f5"/>
        <path id="Path_333" data-name="Path 333" d="M377.278,99.245A16.193,16.193,0,0,1,361.1,83.067V73.4a1.521,1.521,0,1,1,3.041,0v9.666A13.157,13.157,0,0,0,377.284,96.21a1.517,1.517,0,1,1-.007,3.035Z" transform="translate(-346.367 -67.492)" fill="#e1e1e1"/>
        <path id="Path_334" data-name="Path 334" d="M341.916,79.753H368.8a2.805,2.805,0,0,0,2.713-3.524l-2.331-8.809a2.809,2.809,0,0,0-2.713-2.09H344.247a2.809,2.809,0,0,0-2.713,2.09L339.2,76.229A2.805,2.805,0,0,0,341.916,79.753Z" transform="translate(-339.106 -65.33)" fill="#f5f5f5"/>
      </g>
      <g id="Group_339" data-name="Group 339" transform="translate(0.639 100.978)">
        <g id="Group_334" data-name="Group 334" transform="translate(16.298)">
          <rect id="Rectangle_209" data-name="Rectangle 209" width="8.789" height="34.063" transform="translate(35.785 39.866) rotate(180)" fill="#e7e7e7"/>
          <path id="Path_335" data-name="Path 335" d="M114.32,230.715h29.173l4.4-39.865H118.728Z" transform="translate(-111.158 -190.85)" fill="#f0f0f0"/>
          <path id="Path_336" data-name="Path 336" d="M109.6,230.715h30.131l4.408-39.865H114.008Z" transform="translate(-109.6 -190.85)" fill="#f5f5f5"/>
          <path id="Path_337" data-name="Path 337" d="M138.97,229.121l3.711-33.581H117.6l-3.711,33.581Z" transform="translate(-111.016 -192.398)" fill="#fff"/>
          <path id="Path_338" data-name="Path 338" d="M138.047,224.993l.154-1.367c.931-8.427-4.327-15.936-11.16-15.936h0l-.154,1.367c-.931,8.427,4.327,15.936,11.16,15.936Z" transform="translate(-115.271 -196.409)" fill="#f5f5f5"/>
        </g>
        <g id="Group_336" data-name="Group 336" transform="translate(0 39.867)">
          <g id="Group_335" data-name="Group 335" transform="translate(0 0)">
            <rect id="Rectangle_210" data-name="Rectangle 210" width="25.918" height="38.465" transform="translate(25.918 38.466) rotate(180)" fill="#e7e7e7"/>
            <path id="Path_339" data-name="Path 339" d="M87.876,304.126H85.27V296.71h5.339Z" transform="translate(-85.27 -265.664)" fill="#f0f0f0"/>
            <rect id="Rectangle_211" data-name="Rectangle 211" width="25.918" height="38.465" transform="translate(98.556 38.466) rotate(180)" fill="#e7e7e7"/>
            <rect id="Rectangle_212" data-name="Rectangle 212" width="74.913" height="33.916" transform="translate(74.913 33.916) rotate(180)" fill="#f0f0f0"/>
            <path id="Path_340" data-name="Path 340" d="M191.863,304.126h2.606V296.71H189.13Z" transform="translate(-119.556 -265.664)" fill="#f0f0f0"/>
            <rect id="Rectangle_213" data-name="Rectangle 213" width="70.867" height="13.686" transform="translate(72.89 15.806) rotate(180)" fill="#e7e7e7"/>
            <path id="Path_341" data-name="Path 341" d="M128.779,264.549h9.452a14.938,14.938,0,0,0,10.852-4.669H117.92A14.965,14.965,0,0,0,128.779,264.549Z" transform="translate(-96.048 -253.505)" fill="#f0f0f0"/>
            <rect id="Rectangle_214" data-name="Rectangle 214" width="70.867" height="13.686" transform="translate(72.89 31.702) rotate(180)" fill="#e7e7e7"/>
            <path id="Path_342" data-name="Path 342" d="M128.779,288.279h9.452a14.938,14.938,0,0,0,10.852-4.669H117.92A14.964,14.964,0,0,0,128.779,288.279Z" transform="translate(-96.048 -261.339)" fill="#f0f0f0"/>
          </g>
        </g>
        <g id="Group_338" data-name="Group 338" transform="translate(56.288 1.799)">
          <path id="Path_343" data-name="Path 343" d="M189.584,234.066h.67c-.007-1.38,0-4.877.067-12.9.121-14.536.348-15.421.348-15.421l-1.594,6.712C188.07,219.891,189.369,227.354,189.584,234.066Z" transform="translate(-175.701 -197.568)" fill="#e7e7e7"/>
          <path id="Path_344" data-name="Path 344" d="M181.852,212.2c-2.3-2.733-7.195-3.53-12.219-4.214-1.969-.268,5.178,4.234,8.675,7.436,2.713,2.485,4.448,3.169,5.2,5.647C183.9,217.979,183.829,214.549,181.852,212.2Z" transform="translate(-169.296 -198.302)" fill="#e7e7e7"/>
          <path id="Path_345" data-name="Path 345" d="M191.674,219.488c2.3-2.733,7.195-3.53,12.219-4.214,1.969-.268-5.178,4.234-8.675,7.436-2.713,2.485-4.448,3.169-5.2,5.647C189.637,225.269,189.7,221.846,191.674,219.488Z" transform="translate(-176.076 -200.709)" fill="#e7e7e7"/>
          <path id="Path_346" data-name="Path 346" d="M190.535,201.075c1.722-3.269,6.049-6.344,10.906-7.516,1.909-.456-4.415,6.036-6.819,10.222-1.869,3.256-4.341,7.074-4.729,9.82C189.309,208.169,188.814,204.344,190.535,201.075Z" transform="translate(-175.916 -193.536)" fill="#e7e7e7"/>
          <g id="Group_337" data-name="Group 337" transform="translate(9.394 31.842)">
            <path id="Path_347" data-name="Path 347" d="M188.74,248.1h0c-2.05,0-3.745-1.025-3.859-2.345l-.342-2.244h8.407l-.342,2.244C192.485,247.074,190.79,248.1,188.74,248.1Z" transform="translate(-183.723 -241.875)" fill="#f0f0f0"/>
            <path id="Path_348" data-name="Path 348" d="M193.087,243.575h-9.492l-.275-2.505h10.042Z" transform="translate(-183.32 -241.07)" fill="#f0f0f0"/>
          </g>
        </g>
      </g>
      <g id="Group_345" data-name="Group 345" transform="translate(60.346 0)">
        <g id="Group_342" data-name="Group 342" transform="translate(2.051 4.864)">
          <g id="Group_341" data-name="Group 341">
            <g id="Group_340" data-name="Group 340">
              <rect id="Rectangle_215" data-name="Rectangle 215" width="92.598" height="84.465" transform="translate(94.683 84.465) rotate(180)" fill="#e7e7e7"/>
              <rect id="Rectangle_216" data-name="Rectangle 216" width="93.777" height="84.465" transform="translate(93.777 84.465) rotate(180)" fill="#f5f5f5"/>
              <rect id="Rectangle_217" data-name="Rectangle 217" width="76.896" height="86.294" transform="translate(90.042 3.781) rotate(90)" fill="#fafafa"/>
              <path id="Path_349" data-name="Path 349" d="M273.638,129.916l-33.963-76.9H228.14l33.963,76.9Z" transform="translate(-194.191 -49.236)" fill="#fff"/>
              <path id="Path_350" data-name="Path 350" d="M253.308,129.916l-33.963-76.9H211.4l33.963,76.9Z" transform="translate(-188.665 -49.236)" fill="#fff"/>
              <rect id="Rectangle_218" data-name="Rectangle 218" width="76.896" height="4.461" transform="translate(35.789 3.786) rotate(90)" fill="#e7e7e7"/>
              <rect id="Rectangle_219" data-name="Rectangle 219" width="76.896" height="4.461" transform="translate(65.452 3.786) rotate(90)" fill="#e7e7e7"/>
              <rect id="Rectangle_220" data-name="Rectangle 220" width="82.107" height="5.64" transform="translate(34.98 0.968) rotate(90)" fill="#f5f5f5"/>
              <rect id="Rectangle_221" data-name="Rectangle 221" width="82.107" height="5.64" transform="translate(64.642 0.968) rotate(90)" fill="#f5f5f5"/>
              <rect id="Rectangle_222" data-name="Rectangle 222" width="76.896" height="0.395" transform="translate(4.14 3.784) rotate(90)" fill="#e7e7e7"/>
            </g>
          </g>
        </g>
        <g id="Group_344" data-name="Group 344">
          <g id="Group_343" data-name="Group 343">
            <path id="Path_351" data-name="Path 351" d="M174.882,40.11H275.2a.48.48,0,0,1,.482.482h0a.48.48,0,0,1-.482.482H174.882a.48.48,0,0,1-.482-.482h0A.48.48,0,0,1,174.882,40.11Z" transform="translate(-174.4 -40.11)" fill="#e7e7e7"/>
            <path id="Path_352" data-name="Path 352" d="M318.49,43.53h0a.655.655,0,0,0,.65-.65v-1.4a.655.655,0,0,0-.65-.65h0a.655.655,0,0,0-.65.65v1.4A.65.65,0,0,0,318.49,43.53Z" transform="translate(-221.752 -40.348)" fill="#e7e7e7"/>
            <path id="Path_353" data-name="Path 353" d="M185.66,43.53h0a.655.655,0,0,0,.65-.65v-1.4a.655.655,0,0,0-.65-.65h0a.655.655,0,0,0-.65.65v1.4A.655.655,0,0,0,185.66,43.53Z" transform="translate(-177.903 -40.348)" fill="#e7e7e7"/>
          </g>
          <rect id="Rectangle_223" data-name="Rectangle 223" width="93.71" height="66.144" transform="translate(94.346 66.624) rotate(180)" fill="#e1e1e1" opacity="0.6"/>
        </g>
      </g>
      <g id="Group_355" data-name="Group 355" transform="translate(125.692 98.868)">
        <g id="Group_346" data-name="Group 346" transform="translate(18.214 7.141)">
          <path id="Path_354" data-name="Path 354" d="M317.91,215.849H302.744a3.605,3.605,0,0,1-3.6-3.6v-6.491a3.605,3.605,0,0,1,3.6-3.6H317.91a3.605,3.605,0,0,1,3.6,3.6v6.491A3.6,3.6,0,0,1,317.91,215.849Z" transform="translate(-299.14 -199.611)" fill="#fafafa"/>
          <path id="Path_355" data-name="Path 355" d="M320.308,201.3H300.352a1.212,1.212,0,0,1-1.212-1.212v-.516a1.212,1.212,0,0,1,1.212-1.212h19.956a1.212,1.212,0,0,1,1.213,1.212v.516A1.212,1.212,0,0,1,320.308,201.3Z" transform="translate(-299.14 -198.36)" fill="#e7e7e7"/>
        </g>
        <g id="Group_347" data-name="Group 347" transform="translate(18.543 38.572)">
          <path id="Path_356" data-name="Path 356" d="M299.63,245.28s.295,9.633,11.515,9.633,11.515-9.633,11.515-9.633Z" transform="translate(-299.63 -245.28)" fill="#f0f0f0"/>
        </g>
        <g id="Group_348" data-name="Group 348" transform="translate(44.139 38.572)">
          <path id="Path_357" data-name="Path 357" d="M337.84,245.28s.295,9.633,11.515,9.633,11.515-9.633,11.515-9.633Z" transform="translate(-337.84 -245.28)" fill="#f0f0f0"/>
        </g>
        <g id="Group_349" data-name="Group 349" transform="translate(35.142)">
          <path id="Path_358" data-name="Path 358" d="M350.207,212.789h-20.84a4.959,4.959,0,0,1-4.957-4.957v-9.995a4.959,4.959,0,0,1,4.957-4.957h20.84a4.959,4.959,0,0,1,4.957,4.957v9.995A4.954,4.954,0,0,1,350.207,212.789Z" transform="translate(-324.41 -189.41)" fill="#f0f0f0"/>
          <path id="Path_359" data-name="Path 359" d="M353.5,191.726H326.071a1.661,1.661,0,0,1-1.661-1.661v-.7a1.661,1.661,0,0,1,1.661-1.661H353.5a1.661,1.661,0,0,1,1.661,1.661v.7A1.652,1.652,0,0,1,353.5,191.726Z" transform="translate(-324.41 -187.7)" fill="#f5f5f5"/>
        </g>
        <g id="Group_354" data-name="Group 354" transform="translate(0 23.373)">
          <rect id="Rectangle_224" data-name="Rectangle 224" width="2.914" height="47.769" transform="translate(13.004 57.07) rotate(180)" fill="#e7e7e7"/>
          <g id="Group_351" data-name="Group 351" transform="translate(0.002 0)">
            <g id="Group_350" data-name="Group 350">
              <rect id="Rectangle_225" data-name="Rectangle 225" width="15.776" height="9.298" transform="translate(78.428 0.006)" fill="#e7e7e7"/>
              <rect id="Rectangle_226" data-name="Rectangle 226" width="78.423" height="9.298" transform="translate(78.423 9.298) rotate(180)" fill="#f5f5f5"/>
            </g>
          </g>
          <g id="Group_353" data-name="Group 353" transform="translate(0.002 24.825)">
            <g id="Group_352" data-name="Group 352">
              <rect id="Rectangle_227" data-name="Rectangle 227" width="15.776" height="9.298" transform="translate(78.428)" fill="#e7e7e7"/>
              <rect id="Rectangle_228" data-name="Rectangle 228" width="78.423" height="9.298" transform="translate(78.423 9.3) rotate(180)" fill="#f5f5f5"/>
            </g>
          </g>
          <rect id="Rectangle_229" data-name="Rectangle 229" width="2.914" height="47.769" transform="translate(91.428 57.07) rotate(180)" fill="#e7e7e7"/>
          <rect id="Rectangle_230" data-name="Rectangle 230" width="2.914" height="47.769" transform="translate(78.428 57.07) rotate(180)" fill="#f5f5f5"/>
          <rect id="Rectangle_231" data-name="Rectangle 231" width="2.914" height="47.769" transform="translate(2.914 57.07) rotate(180)" fill="#f5f5f5"/>
        </g>
      </g>
    </g>
    <ellipse id="_x3C_Path_x3E__137_" cx="112.064" cy="6.545" rx="112.064" ry="6.545" transform="translate(66.726 227.527)" fill="#f5f5f5"/>
    <g id="Group_359" data-name="Group 359" transform="translate(99.832 63.688)">
      <g id="Group_357" data-name="Group 357" transform="translate(0 4.173)">
        <path id="Path_360" data-name="Path 360" d="M217.111,225.743h-73.74a4.691,4.691,0,0,1-4.636-4.414l-6.6-128.054a4.15,4.15,0,0,1,4.187-4.415h73.74a4.691,4.691,0,0,1,4.636,4.415l6.6,128.054A4.157,4.157,0,0,1,217.111,225.743Z" transform="translate(-132.131 -88.86)" fill="#007cff"/>
        <path id="Path_361" data-name="Path 361" d="M217.111,225.743h-73.74a4.691,4.691,0,0,1-4.636-4.414l-6.6-128.054a4.15,4.15,0,0,1,4.187-4.415h73.74a4.691,4.691,0,0,1,4.636,4.415l6.6,128.054A4.157,4.157,0,0,1,217.111,225.743Z" transform="translate(-132.131 -88.86)" fill="#fff" opacity="0.8"/>
      </g>
      <rect id="Rectangle_232" data-name="Rectangle 232" width="8.159" height="0.576" transform="translate(62.493)" fill="#007cff"/>
      <rect id="Rectangle_233" data-name="Rectangle 233" width="2.988" height="0.576" transform="translate(56.678)" fill="#007cff"/>
      <path id="Path_362" data-name="Path 362" d="M223.667,216.558H153.142a4.491,4.491,0,0,1-4.435-4.22L142.4,89.87a3.969,3.969,0,0,1,4-4.22h70.525a4.491,4.491,0,0,1,4.435,4.22l6.31,122.474A3.963,3.963,0,0,1,223.667,216.558Z" transform="translate(-135.518 -83.627)" fill="#007cff"/>
      <path id="Path_363" data-name="Path 363" d="M225.056,215.134H154.531a1.685,1.685,0,0,1-1.621-1.547L146.6,91.113a1.152,1.152,0,0,1,1.192-1.253h70.525a1.685,1.685,0,0,1,1.621,1.547l6.31,122.474a1.18,1.18,0,0,1-.315.9A1.194,1.194,0,0,1,225.056,215.134ZM147.785,90a1.012,1.012,0,0,0-.77.315,1.035,1.035,0,0,0-.275.79l6.31,122.474a1.539,1.539,0,0,0,1.48,1.407h70.525a1,1,0,0,0,1.045-1.1L219.79,91.414a1.539,1.539,0,0,0-1.48-1.407H147.785Z" transform="translate(-136.907 -85.017)" fill="#fff"/>
      <ellipse id="Ellipse_14" data-name="Ellipse 14" cx="20.806" cy="21.905" rx="20.806" ry="21.905" transform="matrix(0.698, -0.716, 0.716, 0.698, 17.583, 33.797)" fill="#fff" opacity="0.3"/>
      <path id="Path_364" data-name="Path 364" d="M212.238,125.16a16.575,16.575,0,0,1-1.661,8.226,16.209,16.209,0,0,1-14.717,9.043,18.345,18.345,0,0,1-15.648-9.043,17.881,17.881,0,0,1-2.512-8.226,16.24,16.24,0,0,1,16.385-17.27A18.38,18.38,0,0,1,212.238,125.16Z" transform="translate(-147.166 -90.969)" fill="#fff"/>
      <path id="Path_365" data-name="Path 365" d="M211.826,143.692a16.209,16.209,0,0,1-14.717,9.043,18.345,18.345,0,0,1-15.648-9.043,26.1,26.1,0,0,1,14.945-4.6A28.391,28.391,0,0,1,211.826,143.692Z" transform="translate(-148.415 -101.269)" fill="#007cff"/>
      <ellipse id="Ellipse_15" data-name="Ellipse 15" cx="7.496" cy="7.898" rx="7.496" ry="7.898" transform="matrix(0.698, -0.716, 0.716, 0.698, 36.603, 28.13)" fill="#007cff"/>
      <g id="Group_358" data-name="Group 358" transform="translate(20.529 63.853)">
        <path id="Path_366" data-name="Path 366" d="M220.288,204.2H165.07a1.9,1.9,0,0,1-1.876-1.789l-.415-8.112a1.683,1.683,0,0,1,1.695-1.789h55.218a1.9,1.9,0,0,1,1.876,1.789l.415,8.112A1.686,1.686,0,0,1,220.288,204.2Z" transform="translate(-162.776 -182.757)" fill="#fff"/>
        <path id="Path_367" data-name="Path 367" d="M211.055,183.249H187.991a1.9,1.9,0,0,1-1.876-1.789l-.087-1.722a1.683,1.683,0,0,1,1.695-1.789h23.064a1.9,1.9,0,0,1,1.876,1.789l.087,1.722A1.683,1.683,0,0,1,211.055,183.249Z" transform="translate(-170.451 -177.95)" opacity="0.3"/>
        <path id="Path_368" data-name="Path 368" d="M217.49,263.048H182.951a3.234,3.234,0,0,1-3.2-3.041l-.208-3.986a2.858,2.858,0,0,1,2.881-3.041h34.539a3.234,3.234,0,0,1,3.2,3.041l.208,3.986A2.854,2.854,0,0,1,217.49,263.048Z" transform="translate(-168.311 -202.719)" opacity="0.3"/>
        <path id="Path_369" data-name="Path 369" d="M221.8,233.389H166.58A1.9,1.9,0,0,1,164.7,231.6l-.415-8.112a1.683,1.683,0,0,1,1.695-1.789H221.2a1.9,1.9,0,0,1,1.876,1.789l.415,8.112A1.683,1.683,0,0,1,221.8,233.389Z" transform="translate(-163.275 -192.393)" fill="#fff"/>
        <path id="Path_370" data-name="Path 370" d="M174.731,200.256a1.86,1.86,0,0,1-1.876,1.976,2.1,2.1,0,0,1-2.077-1.976,1.86,1.86,0,0,1,1.876-1.976A2.105,2.105,0,0,1,174.731,200.256Z" transform="translate(-165.417 -184.661)" fill="#1a2e35"/>
        <path id="Path_371" data-name="Path 371" d="M183.8,200.256a1.86,1.86,0,0,1-1.876,1.976,2.1,2.1,0,0,1-2.077-1.976,1.86,1.86,0,0,1,1.876-1.976A2.11,2.11,0,0,1,183.8,200.256Z" transform="translate(-168.411 -184.661)" fill="#1a2e35"/>
        <path id="Path_372" data-name="Path 372" d="M192.861,200.256a1.86,1.86,0,0,1-1.876,1.976,2.1,2.1,0,0,1-2.077-1.976,1.86,1.86,0,0,1,1.876-1.976A2.105,2.105,0,0,1,192.861,200.256Z" transform="translate(-171.402 -184.661)" fill="#1a2e35"/>
        <path id="Path_373" data-name="Path 373" d="M201.931,200.256a1.86,1.86,0,0,1-1.876,1.976,2.1,2.1,0,0,1-2.077-1.976,1.86,1.86,0,0,1,1.876-1.976A2.105,2.105,0,0,1,201.931,200.256Z" transform="translate(-174.396 -184.661)" fill="#1a2e35"/>
        <path id="Path_374" data-name="Path 374" d="M176.241,229.456a1.86,1.86,0,0,1-1.876,1.976,2.1,2.1,0,0,1-2.077-1.976,1.86,1.86,0,0,1,1.876-1.976A2.11,2.11,0,0,1,176.241,229.456Z" transform="translate(-165.916 -194.301)" fill="#1a2e35"/>
        <path id="Path_375" data-name="Path 375" d="M185.3,229.456a1.86,1.86,0,0,1-1.876,1.976,2.1,2.1,0,0,1-2.077-1.976,1.86,1.86,0,0,1,1.876-1.976A2.1,2.1,0,0,1,185.3,229.456Z" transform="translate(-168.906 -194.301)" fill="#1a2e35"/>
        <path id="Path_376" data-name="Path 376" d="M194.371,229.456a1.86,1.86,0,0,1-1.876,1.976,2.1,2.1,0,0,1-2.077-1.976,1.86,1.86,0,0,1,1.876-1.976A2.1,2.1,0,0,1,194.371,229.456Z" transform="translate(-171.901 -194.301)" fill="#1a2e35"/>
        <path id="Path_377" data-name="Path 377" d="M203.441,229.456a1.86,1.86,0,0,1-1.876,1.976,2.1,2.1,0,0,1-2.077-1.976,1.86,1.86,0,0,1,1.876-1.976A2.105,2.105,0,0,1,203.441,229.456Z" transform="translate(-174.895 -194.301)" fill="#1a2e35"/>
        <path id="Path_378" data-name="Path 378" d="M212.5,229.456a1.86,1.86,0,0,1-1.876,1.976,2.1,2.1,0,0,1-2.077-1.976,1.86,1.86,0,0,1,1.876-1.976A2.1,2.1,0,0,1,212.5,229.456Z" transform="translate(-177.886 -194.301)" fill="#1a2e35"/>
        <path id="Path_379" data-name="Path 379" d="M221.571,229.456a1.86,1.86,0,0,1-1.876,1.976,2.1,2.1,0,0,1-2.077-1.976,1.86,1.86,0,0,1,1.876-1.976A2.105,2.105,0,0,1,221.571,229.456Z" transform="translate(-180.88 -194.301)" fill="#1a2e35"/>
      </g>
    </g>
    <g id="Group_366" data-name="Group 366" transform="translate(170.189 53.974)">
      <g id="Group_365" data-name="Group 365">
        <path id="Path_380" data-name="Path 380" d="M319.144,130.23c.147.214.221.335.315.489l.261.435c.167.288.315.569.462.857.288.569.563,1.145.8,1.722a31.555,31.555,0,0,1,1.253,3.524,37.486,37.486,0,0,1,1.373,7.248l.047.456c.007.067.013.167.02.275l.013.308a7.794,7.794,0,0,1-.067,1.2,9.2,9.2,0,0,1-.576,2.15,14.829,14.829,0,0,1-2,3.457,24.655,24.655,0,0,1-5.379,5.091l-1.594-1.862a33.545,33.545,0,0,0,3.838-5.312,12.309,12.309,0,0,0,1.172-2.726,5.357,5.357,0,0,0,.188-1.239,2.783,2.783,0,0,0-.02-.536l-.02-.121a1.3,1.3,0,0,0-.027-.161l-.074-.409a43.85,43.85,0,0,0-1.574-6.357c-.335-1.032-.744-2.03-1.159-3.008-.208-.489-.435-.971-.67-1.434l-.362-.677-.181-.322-.147-.255Z" transform="translate(-262.553 -88.63)" fill="#913c39"/>
        <path id="Path_381" data-name="Path 381" d="M313.59,169.788l2.09,4.421,1.661-3.738s-1.474-3.236-3.463-2.941Z" transform="translate(-262.391 -100.937)" fill="#903c38"/>
        <path id="Path_382" data-name="Path 382" d="M318.211,175.889l1.661-2.726-1.5-1.233-1.661,3.738Z" transform="translate(-263.421 -102.396)" fill="#903c38"/>
        <path id="Path_383" data-name="Path 383" d="M304.361,329.454a5.906,5.906,0,0,0,1.279-.174.114.114,0,0,0,.087-.094.115.115,0,0,0-.047-.114c-.167-.107-1.635-1.058-2.2-.8a.39.39,0,0,0-.228.322.664.664,0,0,0,.188.61A1.362,1.362,0,0,0,304.361,329.454Zm.951-.335c-.844.167-1.474.141-1.722-.087a.437.437,0,0,1-.121-.409.183.183,0,0,1,.094-.147C303.865,328.342,304.716,328.758,305.312,329.119Z" transform="translate(-258.977 -153.992)" fill="#007cff"/>
        <path id="Path_384" data-name="Path 384" d="M306.142,328.732a.2.2,0,0,0,.06-.013.125.125,0,0,0,.06-.1c0-.06-.007-1.454-.536-1.916a.589.589,0,0,0-.482-.154.406.406,0,0,0-.388.322c-.107.543.77,1.588,1.233,1.849A.127.127,0,0,0,306.142,328.732Zm-.824-1.963a.383.383,0,0,1,.255.1,2.622,2.622,0,0,1,.449,1.527c-.462-.368-1.012-1.152-.945-1.487.013-.054.04-.121.188-.134A.131.131,0,0,1,305.318,326.769Z" transform="translate(-259.505 -153.437)" fill="#007cff"/>
        <path id="Path_385" data-name="Path 385" d="M295.3,326.441a.111.111,0,0,0-.08-.188c-.241-.013-2.318-.1-2.787.409a.117.117,0,0,0-.027.034.356.356,0,0,0-.047.355.648.648,0,0,0,.422.422c.67.208,1.856-.543,2.505-1.012C295.284,326.447,295.291,326.447,295.3,326.441Zm-2.693.368a4.494,4.494,0,0,1,2.258-.342c-.9.61-1.641.9-2.023.784a.414.414,0,0,1-.275-.281.147.147,0,0,1,.02-.147C292.591,326.823,292.6,326.816,292.6,326.809Z" transform="translate(-255.373 -153.336)" fill="#007cff"/>
        <path id="Path_386" data-name="Path 386" d="M295.6,325.772c.007-.007.013-.013.013-.02a.115.115,0,0,0,0-.114c-.027-.047-.677-1.186-1.44-1.393a.831.831,0,0,0-.657.087c-.275.161-.288.348-.255.476.147.536,1.621,1,2.258,1A.182.182,0,0,0,295.6,325.772Zm-2.077-1.159a.847.847,0,0,1,.107-.087.607.607,0,0,1,.482-.06,2.637,2.637,0,0,1,1.186,1.1c-.683-.08-1.728-.5-1.822-.824A.146.146,0,0,1,293.525,324.613Z" transform="translate(-255.677 -152.667)" fill="#007cff"/>
        <path id="Path_387" data-name="Path 387" d="M301.555,104.96c-.563,2.874-1.829,9.137.181,11.06,0,0-.784,2.914-6.123,2.914-5.868,0-2.807-2.914-2.807-2.914,3.2-.764,3.122-3.142,2.566-5.372Z" transform="translate(-255.267 -80.288)" fill="#903c38"/>
        <path id="Path_388" data-name="Path 388" d="M290.8,94.047a.189.189,0,0,0,.1-.027.225.225,0,0,0,.1-.308,2.3,2.3,0,0,0-1.661-1.273.229.229,0,0,0-.054.456h0a1.826,1.826,0,0,1,1.306,1.018A.239.239,0,0,0,290.8,94.047Z" transform="translate(-254.302 -76.154)" fill="#1a2e35"/>
        <path id="Path_389" data-name="Path 389" d="M288.208,98.59a10.451,10.451,0,0,1-1.688,2.3,1.666,1.666,0,0,0,1.346.429Z" transform="translate(-253.455 -78.185)" fill="#740606"/>
        <path id="Path_390" data-name="Path 390" d="M289.224,97.286c-.047.389-.295.677-.543.643s-.422-.368-.375-.757.295-.677.543-.643S289.271,96.9,289.224,97.286Z" transform="translate(-254.042 -77.503)" fill="#1a2e35"/>
        <path id="Path_391" data-name="Path 391" d="M288.848,96.392l-.9-.382S288.339,96.794,288.848,96.392Z" transform="translate(-253.927 -77.333)" fill="#1a2e35"/>
        <path id="Path_392" data-name="Path 392" d="M300.636,319.555l-4.716,1.1-2.86-10.845,4.716-1.1Z" transform="translate(-255.614 -147.549)" fill="#903c38"/>
        <path id="Path_393" data-name="Path 393" d="M312.793,324.107H307.95l.382-11.207h4.843Z" transform="translate(-260.529 -148.933)" fill="#903c38"/>
        <path id="Path_394" data-name="Path 394" d="M303.946,328.8h5.439a.385.385,0,0,1,.389.328l.623,4.3a.779.779,0,0,1-.777.864c-1.9-.033-2.813-.141-5.2-.141-1.474,0-3.624.154-5.654.154-1.99,0-2.144-2.01-1.293-2.19a9.512,9.512,0,0,0,5.674-3.014A1.213,1.213,0,0,1,303.946,328.8Z" transform="translate(-256.907 -154.181)" fill="#1a2e35"/>
        <path id="Path_395" data-name="Path 395" d="M293.984,324.323l4.944-2.271a.382.382,0,0,1,.489.141l2.365,3.651a.771.771,0,0,1-.348,1.105c-1.735.764-2.613,1.045-4.783,2.043-1.34.616-4.039,2.023-5.882,2.874-1.809.831-2.787-.931-2.09-1.447a13.071,13.071,0,0,0,4.7-5.48A1.255,1.255,0,0,1,293.984,324.323Z" transform="translate(-254.093 -151.942)" fill="#1a2e35"/>
        <g id="Group_360" data-name="Group 360" transform="translate(37.446 161.161)">
          <path id="Path_396" data-name="Path 396" d="M293.06,309.815l1.534,5.808,4.656-1.32-1.474-5.593Z" transform="translate(-293.06 -308.71)" opacity="0.2"/>
          <path id="Path_397" data-name="Path 397" d="M313.268,312.9h-4.843l-.194,5.781h4.843Z" transform="translate(-298.068 -310.093)" opacity="0.2"/>
        </g>
        <path id="Path_398" data-name="Path 398" d="M316.322,123.065c2.01.442,4.16,7.677,4.16,7.677l-5.687,6.049s-4.716-6.793-3.758-9.291C312.042,124.893,313.944,122.549,316.322,123.065Z" transform="translate(-261.506 -86.241)" fill="#1a2e35"/>
        <path id="Path_399" data-name="Path 399" d="M313.135,129.689c-1.018-.931-1.708-.65-2.17.087-.462,2.15,2.278,6.652,3.383,8.36C314.856,136.1,315.439,131.806,313.135,129.689Z" transform="translate(-261.507 -88.257)" opacity="0.4"/>
        <path id="Path_400" data-name="Path 400" d="M280.7,122.619s-2.3.811,2.311,29.22h19.661c-.328-8.005-.342-12.935,3.483-29.361a57.671,57.671,0,0,0-8.347-1.1,62,62,0,0,0-8.93,0C285.044,121.728,280.7,122.619,280.7,122.619Z" transform="translate(-251.342 -85.654)" fill="#1a2e35"/>
        <path id="Path_401" data-name="Path 401" d="M280.72,137.969c.127,1.38.295,2.934.516,4.7,1.608-1.454,2.927-5.573,2.445-7.985A14.156,14.156,0,0,0,280.72,137.969Z" transform="translate(-251.54 -90.099)" opacity="0.4"/>
        <path id="Path_402" data-name="Path 402" d="M271.071,132.249c-1.072,2.7-2.251,5.272-3.577,7.838a48.53,48.53,0,0,1-4.615,7.509l-.368.456-.188.228c-.06.074-.114.141-.214.248a7.306,7.306,0,0,1-1.139,1.018,9.266,9.266,0,0,1-2.418,1.206,17.464,17.464,0,0,1-4.649.817,34.694,34.694,0,0,1-8.762-.777l.322-2.432c1.326.007,2.72-.02,4.066-.107a32.935,32.935,0,0,0,3.966-.442,15.521,15.521,0,0,0,3.55-.991,5.577,5.577,0,0,0,1.279-.777,2.8,2.8,0,0,0,.4-.415,1.936,1.936,0,0,0,.121-.161l.134-.188.268-.382a58.1,58.1,0,0,0,3.865-7c1.172-2.458,2.3-5,3.37-7.5Z" transform="translate(-239.794 -88.686)" fill="#913c39"/>
        <path id="Path_403" data-name="Path 403" d="M278.336,123.229c-2.4.59-5.366,7.195-5.366,7.195l5,7.335s6.652-8.374,5.861-10.932C283,124.166,281.256,122.518,278.336,123.229Z" transform="translate(-248.982 -86.264)" fill="#1a2e35"/>
        <path id="Path_404" data-name="Path 404" d="M245.439,156.8l-4.167-1.923-.422,4.14s3.483,1.025,5.2-.027Z" transform="translate(-238.378 -96.767)" fill="#903c38"/>
        <path id="Path_405" data-name="Path 405" d="M237.555,154.25l-.4,3.155,2.472,1.407.422-4.14Z" transform="translate(-237.16 -96.559)" fill="#903c38"/>
        <path id="Path_406" data-name="Path 406" d="M302.394,94.218c-.884,4.723-1.152,6.739-3.859,8.889-4.073,3.229-9.68,1.112-10.229-3.778-.5-4.4,1.032-11.388,5.922-12.708A6.555,6.555,0,0,1,302.394,94.218Z" transform="translate(-254.015 -74.154)" fill="#903c38"/>
        <path id="Path_407" data-name="Path 407" d="M292.607,93.834c-.268,2.412-.375,8.668,4.917,8.863,6.484.241,8.427-5.3,7.844-7.516,3.37-2.746,3.859-7.462.067-11.08S293.3,82.507,290.966,86.03C288.078,90.391,292.607,93.834,292.607,93.834Z" transform="translate(-254.605 -72.773)" fill="#1a2e35"/>
        <path id="Path_408" data-name="Path 408" d="M303.526,85.024c-.315-2.539-.067-4.294,2.3-4.294s5.627.864,6.819,3.3,1.286,6.237-2.036,5.855S303.9,88.065,303.526,85.024Z" transform="translate(-259.033 -72.289)" fill="#007cff"/>
        <path id="Path_409" data-name="Path 409" d="M309.044,80.255c-.569-3.028,2.13-11.555,8.722-12.111,3.048-.255,4.461,3.028,2.867,3.57,2.88-.034,4.736,3.785,2.043,4.361,2.13,1.36,1.6,4.16-1.434,5.533C319,82.613,309.827,84.448,309.044,80.255Z" transform="translate(-260.866 -68.129)" fill="#1a2e35"/>
        <path id="Path_410" data-name="Path 410" d="M316.107,88a10.866,10.866,0,0,1-5.707-1.233,2.837,2.837,0,0,1-1.36-2.2.143.143,0,0,1,.134-.154.139.139,0,0,1,.154.134,2.558,2.558,0,0,0,1.233,1.983c2.613,1.748,8.662,1.186,10.557.569a3.993,3.993,0,0,0,2.954-2.76A2.382,2.382,0,0,0,323.107,82a.143.143,0,1,1,.181-.221A2.7,2.7,0,0,1,324.36,84.4a4.281,4.281,0,0,1-3.148,2.981A19.12,19.12,0,0,1,316.107,88Z" transform="translate(-260.889 -72.626)" fill="#1a2e35"/>
        <path id="Path_411" data-name="Path 411" d="M291.365,98.245a3.56,3.56,0,0,0-.616,2.613c.194,1.212,1.373,1.293,2.231.516.77-.7,1.6-2.17.965-3.175A1.52,1.52,0,0,0,291.365,98.245Z" transform="translate(-254.836 -77.826)" fill="#903c38"/>
        <path id="Path_412" data-name="Path 412" d="M292.19,166.927s2.807,33.233,5.728,51.956c2.358,15.126,4.214,50.482,4.214,50.482h6.605s2.351-34.3,1.152-49.263c-3.021-37.855,3.718-40.943-3.222-53.182H292.19Z" transform="translate(-255.326 -100.742)" fill="#007cff"/>
        <path id="Path_413" data-name="Path 413" d="M301.517,185.68a32.1,32.1,0,0,0-6.237,9.412c.77,7.469,1.681,15.756,2.653,23.017A63.76,63.76,0,0,0,301.517,185.68Z" transform="translate(-256.347 -106.935)" opacity="0.4"/>
        <path id="Path_414" data-name="Path 414" d="M281.811,166.62s-6.1,36.294-7.061,52.653c2.391,15.126,12.185,47.1,12.185,47.1l6-2.177s-3.323-34.867-6.953-44.406c8.132-27.378,14.108-34.3,12.373-52.954C294.21,166.828,281.811,166.62,281.811,166.62Z" transform="translate(-249.569 -100.643)" fill="#007cff"/>
        <path id="Path_415" data-name="Path 415" d="M291.232,315.229l8.119-2.2-.462-3.236-8.688,2.351Z" transform="translate(-254.67 -147.906)" fill="#1a2e35"/>
        <path id="Path_416" data-name="Path 416" d="M305.647,318.449h8.414l.435-2.947-8.9-.3Z" transform="translate(-259.753 -149.692)" fill="#1a2e35"/>
        <g id="Group_361" data-name="Group 361" transform="translate(31.062 64.879)">
          <path id="Path_417" data-name="Path 417" d="M304.095,165.134l.884,1.762c.067.134-.094.275-.322.275H284.039c-.174,0-.322-.087-.335-.2l-.174-1.762c-.013-.121.141-.228.335-.228h19.909A.383.383,0,0,1,304.095,165.134Z" transform="translate(-283.529 -164.98)" fill="#007cff"/>
          <path id="Path_418" data-name="Path 418" d="M304.095,165.134l.884,1.762c.067.134-.094.275-.322.275H284.039c-.174,0-.322-.087-.335-.2l-.174-1.762c-.013-.121.141-.228.335-.228h19.909A.383.383,0,0,1,304.095,165.134Z" transform="translate(-283.529 -164.98)" opacity="0.5"/>
        </g>
        <path id="Path_419" data-name="Path 419" d="M310.015,167.3h.536c.107,0,.188-.054.181-.121l-.248-2.284c-.007-.067-.1-.121-.208-.121h-.536c-.107,0-.188.054-.181.121l.248,2.284C309.814,167.235,309.908,167.3,310.015,167.3Z" transform="translate(-261.06 -100.032)" fill="#007cff"/>
        <g id="Group_364" data-name="Group 364" transform="translate(32.939 35.763)">
          <path id="Path_420" data-name="Path 420" d="M295.186,136.169a.293.293,0,0,1-.281-.214c-1.889-6.967-5.808-12.694-7.677-13.578a.638.638,0,0,0-.489-.08.289.289,0,1,1-.234-.529,1.135,1.135,0,0,1,.971.087c2,.945,5.949,6.605,7.925,13.739,1.42-.02,3.6-.194,4.133-.241.663-.784,5.506-6.846,3.691-13.471a.289.289,0,0,1,.556-.154c2.016,7.375-3.832,14.027-3.892,14.094a.282.282,0,0,1-.188.094C299.674,135.921,296.794,136.169,295.186,136.169Z" transform="translate(-286.331 -121.515)" fill="#007cff"/>
          <g id="Group_363" data-name="Group 363" transform="translate(6.169 5.809)">
            <g id="Group_362" data-name="Group 362">
              <path id="Path_421" data-name="Path 421" d="M307.8,143.118c-3.148-5.908-4.441-6.317-5-8.219a9.84,9.84,0,0,1,1.8-2.887c-.389-.107-1.206-.268-1.715-.368.06-.261.121-.516.174-.757a5.4,5.4,0,0,0-1.762.08l-.02-.583a7.293,7.293,0,0,0-2.237-.141c.067.268.127.549.194.831-.563.107-1.46.288-1.882.409A8.251,8.251,0,0,1,299.1,134.7c-1.695,2.914-8.3,21.684,2.438,23.091S310.954,149.026,307.8,143.118Z" transform="translate(-295.541 -130.188)" fill="#007cff"/>
              <path id="Path_422" data-name="Path 422" d="M307.8,143.118c-3.148-5.908-4.441-6.317-5-8.219a9.84,9.84,0,0,1,1.8-2.887c-.389-.107-1.206-.268-1.715-.368.06-.261.121-.516.174-.757a5.4,5.4,0,0,0-1.762.08l-.02-.583a7.293,7.293,0,0,0-2.237-.141c.067.268.127.549.194.831-.563.107-1.46.288-1.882.409A8.251,8.251,0,0,1,299.1,134.7c-1.695,2.914-8.3,21.684,2.438,23.091S310.954,149.026,307.8,143.118Z" transform="translate(-295.541 -130.188)" fill="#fff" opacity="0.4"/>
            </g>
            <path id="Path_423" data-name="Path 423" d="M300.227,136.024a3.7,3.7,0,0,0-.087.9c-.013.221.563.362,1.219.422s3.336.167,3.249-.134.134-.71.147-.965-1.072-.268-1.976-.228S300.408,135.7,300.227,136.024Z" transform="translate(-297.059 -132.07)" fill="#007cff"/>
          </g>
        </g>
        <path id="Path_424" data-name="Path 424" d="M290.715,167.3h.536c.107,0,.188-.054.181-.121l-.248-2.284c-.007-.067-.1-.121-.208-.121h-.536c-.107,0-.188.054-.181.121l.248,2.284C290.514,167.235,290.608,167.3,290.715,167.3Z" transform="translate(-254.689 -100.032)" fill="#007cff"/>
      </g>
    </g>
  </g>
</svg>
