<svg id="sms" xmlns="http://www.w3.org/2000/svg" width="23.185" height="21.252" viewBox="0 0 23.185 21.252">
  <path id="Shape" d="M11.592,0C5.47,0,0,4.082,0,9.667A8.518,8.518,0,0,0,1.977,15.1C2.03,16.868.989,19.4.052,21.252A27.826,27.826,0,0,0,7.759,18.8c8.922,2.171,15.426-3.289,15.426-9.136C23.185,4.052,17.677,0,11.592,0Z" fill="#36c"/>
  <path id="Path" d="M7.179,12.289a2.641,2.641,0,0,1-1.681.478,3.612,3.612,0,0,1-1.633-.355l.265-1.046a3.189,3.189,0,0,0,1.45.362,1.175,1.175,0,0,0,.663-.161.523.523,0,0,0,.022-.862,2.586,2.586,0,0,0-.743-.345Q3.933,9.831,3.934,8.7a1.481,1.481,0,0,1,.583-1.2,2.416,2.416,0,0,1,1.559-.471,3.556,3.556,0,0,1,1.483.288L7.27,8.332a2.837,2.837,0,0,0-1.211-.27,1.08,1.08,0,0,0-.606.148.46.46,0,0,0-.034.76,3.328,3.328,0,0,0,.879.4,2.673,2.673,0,0,1,1.127.674,1.448,1.448,0,0,1,.356,1A1.515,1.515,0,0,1,7.179,12.289Z" transform="translate(-0.131 -0.239)" fill="#fff" fill-rule="evenodd"/>
  <path id="Path-2" data-name="Path" d="M13.757,12.68q-.132-3.305-.131-4.484H13.6q-.2.885-1.351,4.393h-1c-.46-1.612-1.138-4.393-1.138-4.393H10.1L9.9,12.68H8.713l.354-5.555H10.8l.98,3.832,1.186-3.832h1.749l.3,5.555Z" transform="translate(-0.296 -0.242)" fill="#fff" fill-rule="evenodd"/>
  <path id="Path-3" data-name="Path" d="M19.381,12.311a2.673,2.673,0,0,1-1.7.485,3.647,3.647,0,0,1-1.668-.368l.28-1.108a3.158,3.158,0,0,0,1.47.377,1.132,1.132,0,0,0,.644-.156.491.491,0,0,0,.021-.812,2.66,2.66,0,0,0-.731-.341c-1.069-.355-1.613-.922-1.613-1.686a1.51,1.51,0,0,1,.6-1.224A2.448,2.448,0,0,1,18.256,7a3.629,3.629,0,0,1,1.5.29l.022.012L19.47,8.375a2.808,2.808,0,0,0-1.23-.285,1.051,1.051,0,0,0-.588.143.43.43,0,0,0-.031.713,3.4,3.4,0,0,0,.868.4,2.7,2.7,0,0,1,1.141.682,1.488,1.488,0,0,1,.365,1.019,1.554,1.554,0,0,1-.614,1.264Z" transform="translate(-0.544 -0.238)" fill="#fff" fill-rule="evenodd"/>
</svg>
