<?xml version="1.0" encoding="UTF-8"?>
<svg width="13px" height="11px" viewBox="0 0 13 11" version="1.1" xmlns="http://www.w3.org/2000/svg" xmlns:xlink="http://www.w3.org/1999/xlink">
    <!-- Generator: Sketch 52.6 (67491) - http://www.bohemiancoding.com/sketch -->
    <title>sort-amount-down-alt-solid</title>
    <desc>Created with Sketch.</desc>
    <g id="Page-1" stroke="none" stroke-width="1" fill="none" fill-rule="evenodd">
        <g id="sort-amount-down-alt-solid" fill="#3366CC">
            <path d="M8.5,3 L0.5,3 C0.223857625,3 0,2.77614237 0,2.5 C0,2.22385763 0.223857625,2 0.5,2 L8.5,2 C8.77614237,2 9,2.22385763 9,2.5 C9,2.77614237 8.77614237,3 8.5,3 Z" id="Path"></path>
            <path d="M7.5,6 L1.5,6 C1.22385763,6 1,5.77614237 1,5.5 C1,5.22385763 1.22385763,5 1.5,5 L7.5,5 C7.77614237,5 8,5.22385763 8,5.5 C8,5.77614237 7.77614237,6 7.5,6 Z" id="Path"></path>
            <path d="M6.5,9 L2.5,9 C2.22385763,9 2,8.77614237 2,8.5 C2,8.22385763 2.22385763,8 2.5,8 L6.5,8 C6.77614237,8 7,8.22385763 7,8.5 C7,8.77614237 6.77614237,9 6.5,9 Z" id="Path"></path>
            <path d="M12.85,8.58810968 C12.7592667,8.50630923 12.6325859,8.45990685 12.5,8.45990685 C12.3674141,8.45990685 12.2407333,8.50630923 12.15,8.58810968 L11,9.55268555 L11,0.42305959 C11,0.18941023 10.7761424,3.55271368e-15 10.5,3.55271368e-15 C10.2238576,3.55271368e-15 10,0.18941023 10,0.42305959 L10,9.55268555 L8.85,8.58810968 C8.72495704,8.48230844 8.54270296,8.44098835 8.37189111,8.47971429 C8.20107925,8.51844024 8.06766001,8.63132882 8.02189111,8.77585601 C7.97612221,8.92038319 8.02495704,9.07459187 8.15,9.18039311 L10.15,10.8726315 C10.2421636,10.9522209 10.3683103,10.9970714 10.5,10.9970714 C10.6316897,10.9970714 10.7578364,10.9522209 10.85,10.8726315 L12.85,9.18039311 C12.9466772,9.1036219 13.0015186,8.99643488 13.0015186,8.8842514 C13.0015186,8.77206792 12.9466772,8.6648809 12.85,8.58810968 Z" id="Path"></path>
        </g>
    </g>
</svg>