<svg xmlns="http://www.w3.org/2000/svg" width="25.348" height="22.18" viewBox="0 0 25.348 22.18">
  <path id="sort-amount-down-alt-solid" d="M11.881,35.169H15.05a.792.792,0,0,0,.792-.792V32.792A.792.792,0,0,0,15.05,32H11.881a.792.792,0,0,0-.792.792v1.584A.792.792,0,0,0,11.881,35.169Zm0,6.337h6.337a.792.792,0,0,0,.792-.792V39.129a.792.792,0,0,0-.792-.792H11.881a.792.792,0,0,0-.792.792v1.584A.792.792,0,0,0,11.881,41.506Zm12.674,9.506H11.881a.792.792,0,0,0-.792.792v1.584a.792.792,0,0,0,.792.792H24.555a.792.792,0,0,0,.792-.792V51.8A.792.792,0,0,0,24.555,51.011ZM11.881,47.843h9.506a.792.792,0,0,0,.792-.792V45.466a.792.792,0,0,0-.792-.792H11.881a.792.792,0,0,0-.792.792V47.05A.792.792,0,0,0,11.881,47.843Zm-3.169,0H6.336V32.792A.792.792,0,0,0,5.544,32H3.96a.792.792,0,0,0-.792.792V47.843H.791a.792.792,0,0,0-.559,1.352l3.961,4.753a.792.792,0,0,0,1.12,0l3.961-4.753A.793.793,0,0,0,8.713,47.843Z" transform="translate(0.001 -32)" fill="#333"/>
</svg>
