<svg xmlns="http://www.w3.org/2000/svg" width="15" height="15" viewBox="0 0 15 15">
  <path id="star_1_" data-name="star (1)" d="M3.031,16.316a.259.259,0,0,1-.158-.054.288.288,0,0,1-.107-.276L3.6,10.91.081,7.315a.292.292,0,0,1-.068-.289A.273.273,0,0,1,.23,6.834l4.857-.741L7.26,1.474A.267.267,0,0,1,7.5,1.317h0a.267.267,0,0,1,.241.157L9.913,6.093l4.857.741a.273.273,0,0,1,.217.192.291.291,0,0,1-.068.289L11.4,10.91l.83,5.077a.289.289,0,0,1-.107.276.256.256,0,0,1-.283.021L7.5,13.887l-4.345,2.4A.26.26,0,0,1,3.031,16.316ZM.846,7.31l3.226,3.3a.291.291,0,0,1,.077.249l-.762,4.66,3.988-2.2a.256.256,0,0,1,.25,0l3.988,2.2-.761-4.66a.291.291,0,0,1,.077-.249l3.226-3.3L9.7,6.63a.27.27,0,0,1-.2-.154L7.5,2.236,5.506,6.476a.27.27,0,0,1-.2.154Z" transform="translate(0 -1.317)"/>
</svg>
