<svg width="48" height="48" xmlns="http://www.w3.org/2000/svg">

 <g>
  <title>background</title>
  <rect fill="none" id="canvas_background" height="402" width="582" y="-1" x="-1"/>
 </g>
 <g>
  <title fill="#77829a">Layer 1</title>
  <path fill="#77829a" id="svg_2" d="m24,45.3l-0.7,-0.7c0,0 -17.7,-17.7 -17.9,-17.9c-4.7,-5.5 -4.4,-13.7 0.6,-18.7c2.6,-2.6 6,-4 9.7,-4c3,0 5.9,1 8.3,2.8c5.4,-4.1 13,-3.7 18,1.2l0,0c2.6,2.6 4,6 4,9.6c0,3.4 -1.2,6.5 -3.3,9l0,0c-0.4,0.4 -2.7,2.7 -18,18l-0.7,0.7zm-8.3,-39.3c-3.2,0 -6.1,1.2 -8.3,3.4c-4.3,4.3 -4.5,11.3 -0.5,15.9c0.1,0.2 13.8,13.9 17.1,17.2c6.8,-6.8 16.4,-16.4 17.1,-17.2l0,-0.1c1.9,-2.1 2.9,-4.8 2.9,-7.6c0,-3.1 -1.2,-6 -3.4,-8.2c-4.4,-4.3 -11.3,-4.6 -15.9,-0.6l-0.7,0.6l-0.7,-0.6c-2.1,-1.8 -4.8,-2.8 -7.6,-2.8z"/>
 </g>
</svg>