<svg width="32" height="32" xmlns="http://www.w3.org/2000/svg">
 <title/>

 <g>
  <title>background</title>
  <rect fill="none" id="canvas_background" height="402" width="582" y="-1" x="-1"/>
 </g>
 <g>
  <title>Layer 1</title>
  <path fill="#77829a" id="svg_1" d="m16,29.41l-11.66,-11.64a8.13,8.13 0 0 1 0,-11.41a8,8 0 0 1 11.33,0l0.33,0.34l0.33,-0.34a8,8 0 0 1 11.33,0a8.14,8.14 0 0 1 0,11.41l-11.66,11.64zm-6,-23.41a5.94,5.94 0 0 0 -4.25,1.77a6.13,6.13 0 0 0 0,8.59l10.25,10.23l10.25,-10.23a6.13,6.13 0 0 0 0,-8.59a6,6 0 0 0 -8.49,0l-1.76,1.74l-1.75,-1.73a6,6 0 0 0 -4.25,-1.78z"/>
 </g>
</svg>