<svg id="tenant" xmlns="http://www.w3.org/2000/svg" width="18.964" height="18.964" viewBox="0 0 18.964 18.964">
  <path id="Path_486" data-name="Path 486" d="M17.5,12.139,14.376,11.1v-.634a3.375,3.375,0,0,0,1.4-1.917,1.526,1.526,0,0,0,1.349-1.511V3.708a1.918,1.918,0,0,0-1.338-1.83A4.291,4.291,0,0,0,7.953,4.291V7.035A1.526,1.526,0,0,0,9.3,8.546a3.372,3.372,0,0,0,1.4,1.917V11.1L7.582,12.138a2.129,2.129,0,0,0-1.087.821,3.672,3.672,0,1,0-.377,5.061v.944H18.964V14.169A2.137,2.137,0,0,0,17.5,12.139ZM15.893,7.9c.006-.084.013-.168.013-.254V6.174A.912.912,0,0,1,15.893,7.9ZM12.244.612A3.671,3.671,0,0,1,15.3,2.25l.106.159.115.029a1.307,1.307,0,0,1,.992,1.27V5.82a1.512,1.512,0,0,0-.66-.288.915.915,0,0,0-.869-.638h-.612a1.531,1.531,0,0,1-1.529-1.529h-.612a1.531,1.531,0,0,1-1.529,1.529h-.612a.915.915,0,0,0-.869.638,1.52,1.52,0,0,0-.66.288V4.29A3.683,3.683,0,0,1,12.244.612ZM8.564,7.035a.916.916,0,0,1,.612-.861V7.647c0,.086.006.17.013.254A.916.916,0,0,1,8.564,7.035Zm1.223.612V5.812a.306.306,0,0,1,.306-.306h.612a2.142,2.142,0,0,0,1.835-1.039,2.142,2.142,0,0,0,1.835,1.039h.612a.306.306,0,0,1,.306.306V7.647a2.753,2.753,0,0,1-5.506,0Zm2.753,3.365a3.341,3.341,0,0,0,1.223-.234v.5a1.261,1.261,0,0,1-2.447,0v-.5A3.341,3.341,0,0,0,12.541,11.011ZM3.67,18.352a3.059,3.059,0,1,1,2.94-3.893l.063.223h8.008v1.223H13.458v1.223h-.612V15.905H11.011v1.223H10.4V15.905H6.674l-.063.223A3.068,3.068,0,0,1,3.67,18.352Zm14.682,0H16.517V15.294h-.612v3.059H6.729V17.314a3.63,3.63,0,0,0,.4-.8H9.788v1.223h1.835V16.517h.612v1.223H14.07V16.517h1.223V14.07H7.129a3.664,3.664,0,0,0-.251-.554,1.52,1.52,0,0,1,.9-.8L10.819,11.7a1.87,1.87,0,0,0,3.445,0l3.044,1.014a1.528,1.528,0,0,1,1.045,1.451Zm0,0" fill="#fff"/>
  <path id="Path_487" data-name="Path 487" d="M280.612,160.306a.306.306,0,1,1-.306-.306A.306.306,0,0,1,280.612,160.306Zm0,0" transform="translate(-269.294 -153.883)" fill="#fff"/>
  <path id="Path_488" data-name="Path 488" d="M360.612,160.306a.306.306,0,1,1-.306-.306A.306.306,0,0,1,360.612,160.306Zm0,0" transform="translate(-346.236 -153.883)" fill="#fff"/>
  <path id="Path_489" data-name="Path 489" d="M298.447,216h-.612a.612.612,0,1,1-1.223,0H296a1.223,1.223,0,1,0,2.447,0Zm0,0" transform="translate(-284.683 -207.741)" fill="#fff"/>
  <path id="Path_490" data-name="Path 490" d="M33.529,360a1.529,1.529,0,1,0,1.529,1.529A1.531,1.531,0,0,0,33.529,360Zm0,2.447a.918.918,0,1,1,.918-.918A.919.919,0,0,1,33.529,362.447Zm0,0" transform="translate(-30.777 -346.236)" fill="#fff"/>
  <path id="Path_491" data-name="Path 491" d="M7.341,88.848,3.67,86.512,0,88.848V93.6H7.341ZM5.985,88.71H1.356L3.67,87.237Zm-1.7,4.282H3.059V91.157H4.282Zm.612,0V90.545H2.447v2.447H.612v-3.67H6.729v3.67Zm0,0" transform="translate(0 -83.204)" fill="#fff"/>
</svg>
