<?xml version="1.0" encoding="UTF-8"?>
<svg width="336px" height="448px" viewBox="0 0 336 448" version="1.1" xmlns="http://www.w3.org/2000/svg" xmlns:xlink="http://www.w3.org/1999/xlink">
    <!-- Generator: Sketch 51.3 (57544) - http://www.bohemiancoding.com/sketch -->
    <title>term</title>
    <desc>Created with Sketch.</desc>
    <defs></defs>
    <g id="Page-1" stroke="none" stroke-width="1" fill="none" fill-rule="evenodd">
        <g id="term" fill="#FFFFFF" fill-rule="nonzero">
            <path d="M144,176 C144,162.398438 133.601562,152 120,152 C106.398438,152 96,162.398438 96,176 L96,200 L144,200 L144,176 Z" id="Shape"></path>
            <path d="M168,288 L192,288 L192,216 L160,216 L160,232 L144,232 L144,216 L96,216 L96,232 L80,232 L80,216 L48,216 L48,408 L145.601562,408 C144.800781,405.601562 144,402.398438 144,400 L144,312 C144,298.398438 154.398438,288 168,288 Z" id="Shape"></path>
            <path d="M264,56 L294.398438,56 L256,12.800781 L256,48 C256,52.800781 259.199219,56 264,56 Z" id="Shape"></path>
            <path d="M328,304 L168,304 C163.199219,304 160,307.199219 160,312 L160,320 L336,320 L336,312 C336,307.199219 332.800781,304 328,304 Z" id="Shape"></path>
            <path d="M160,400 C160,404.800781 163.199219,408 168,408 L328,408 C332.800781,408 336,404.800781 336,400 L336,336 L160,336 L160,400 Z M176,352 L216,352 L216,368 L176,368 L176,352 Z M176,376 L200,376 L200,392 L176,392 L176,376 Z" id="Shape"></path>
            <path d="M32,200 L80,200 L80,176 C80,153.601562 97.601562,136 120,136 C142.398438,136 160,153.601562 160,176 L160,200 L208,200 L208,288 L304,288 L304,72 L264,72 C250.398438,72 240,61.601562 240,48 L240,0 L8,0 C3.199219,0 0,3.199219 0,8 L0,440 C0,444.800781 3.199219,448 8,448 L296,448 C300.800781,448 304,444.800781 304,440 L304,424 L32,424 L32,200 Z M272,240 L224,240 L224,224 L272,224 L272,240 Z M272,200 L224,200 L224,184 L272,184 L272,200 Z M272,160 L184,160 L184,144 L272,144 L272,160 Z M96,24 L184,24 L184,40 L96,40 L96,24 Z M32,64 L200,64 L200,80 L32,80 L32,64 Z M32,104 L272,104 L272,120 L32,120 L32,104 Z M32,144 L64,144 L64,160 L32,160 L32,144 Z" id="Shape"></path>
        </g>
    </g>
</svg>