<?xml version="1.0"?>
<svg xmlns="http://www.w3.org/2000/svg" xmlns:xlink="http://www.w3.org/1999/xlink" xmlns:svgjs="http://svgjs.com/svgjs" version="1.1" width="512" height="512" x="0" y="0" viewBox="0 0 512 512" style="enable-background:new 0 0 512 512" xml:space="preserve" class=""><g>
<g xmlns="http://www.w3.org/2000/svg">
	<g>
		<g>
			<path d="M171.277,75.338l-31.719,31.72L127.29,94.79c-3.295-3.297-8.638-3.295-11.933-0.001c-3.295,3.295-3.295,8.638,0,11.933     l18.234,18.235c1.582,1.583,3.729,2.472,5.966,2.472c2.238,0,4.384-0.889,5.966-2.471l37.685-37.687     c3.295-3.295,3.295-8.637,0-11.933C179.915,72.044,174.572,72.044,171.277,75.338z" fill="#ffffff" data-original="#000000" style="" class=""/>
			<path d="M150.408,33.208c-36.291,0-65.816,29.525-65.816,65.816c0,36.291,29.525,65.816,65.816,65.816     s65.816-29.525,65.816-65.816S186.699,33.208,150.408,33.208z M150.408,147.963c-26.985,0-48.939-21.954-48.939-48.939     c0-26.985,21.954-48.939,48.939-48.939c26.985,0,48.939,21.954,48.939,48.939C199.348,126.009,177.394,147.963,150.408,147.963z" fill="#ffffff" data-original="#000000" style="" class=""/>
			<path d="M150.408,347.162c-36.291,0-65.816,29.525-65.816,65.816c0,36.291,29.525,65.816,65.816,65.816     s65.816-29.525,65.816-65.816C216.224,376.686,186.699,347.162,150.408,347.162z M150.408,461.917     c-26.985,0-48.939-21.954-48.939-48.939c0-26.985,21.954-48.939,48.939-48.939c26.985,0,48.939,21.954,48.939,48.939     C199.348,439.963,177.394,461.917,150.408,461.917z" fill="#ffffff" data-original="#000000" style="" class=""/>
			<path d="M150.408,190.184c-36.291,0-65.816,29.525-65.816,65.816s29.525,65.816,65.816,65.816s65.816-29.525,65.816-65.816     S186.699,190.184,150.408,190.184z M150.408,304.939c-26.985,0-48.939-21.954-48.939-48.939s21.954-48.939,48.939-48.939     c26.985,0,48.939,21.954,48.939,48.939S177.394,304.939,150.408,304.939z" fill="#ffffff" data-original="#000000" style="" class=""/>
			<path d="M410.137,228.435H239.123c-4.66,0-8.438,3.777-8.438,8.438c0,4.661,3.778,8.438,8.438,8.438h171.014     c4.66,0,8.438-3.777,8.438-8.438C418.575,232.213,414.797,228.435,410.137,228.435z" fill="#ffffff" data-original="#000000" style="" class=""/>
			<path d="M359.508,423.665H239.123c-4.66,0-8.438,3.778-8.438,8.438c0,4.661,3.778,8.438,8.438,8.438h120.385     c4.66,0,8.438-3.777,8.438-8.438C367.946,427.443,364.168,423.665,359.508,423.665z" fill="#ffffff" data-original="#000000" style="" class=""/>
			<path d="M410.137,71.459H239.123c-4.66,0-8.438,3.777-8.438,8.438c0,4.66,3.778,8.438,8.438,8.438h171.014     c4.66,0,8.438-3.778,8.438-8.438C418.575,75.236,414.797,71.459,410.137,71.459z" fill="#ffffff" data-original="#000000" style="" class=""/>
			<path d="M440.565,0H71.435C57.476,0,46.12,11.357,46.12,25.315v461.371C46.12,500.643,57.476,512,71.435,512h369.13     c13.959,0,25.315-11.357,25.315-25.315V25.315C465.88,11.357,454.523,0,440.565,0z M449.003,486.685     c0,4.653-3.786,8.438-8.438,8.438H71.435c-4.652,0-8.438-3.785-8.438-8.438V25.315c0-4.653,3.786-8.438,8.438-8.438h369.13     c4.652,0,8.438,3.785,8.438,8.438V486.685z" fill="#ffffff" data-original="#000000" style="" class=""/>
			<path d="M239.123,126.589h120.385c4.66,0,8.438-3.778,8.438-8.438c0-4.661-3.778-8.438-8.438-8.438H239.123     c-4.66,0-8.438,3.777-8.438,8.438C230.685,122.811,234.463,126.589,239.123,126.589z" fill="#ffffff" data-original="#000000" style="" class=""/>
			<path d="M239.123,283.565h120.385c4.66,0,8.438-3.777,8.438-8.438c0-4.661-3.778-8.438-8.438-8.438H239.123     c-4.66,0-8.438,3.777-8.438,8.438C230.685,279.788,234.463,283.565,239.123,283.565z" fill="#ffffff" data-original="#000000" style="" class=""/>
			<path d="M410.137,385.411H239.123c-4.66,0-8.438,3.778-8.438,8.438c0,4.661,3.778,8.438,8.438,8.438h171.014     c4.66,0,8.438-3.777,8.438-8.438C418.575,389.189,414.797,385.411,410.137,385.411z" fill="#ffffff" data-original="#000000" style="" class=""/>
		</g>
	</g>
</g>
<g xmlns="http://www.w3.org/2000/svg">
</g>
<g xmlns="http://www.w3.org/2000/svg">
</g>
<g xmlns="http://www.w3.org/2000/svg">
</g>
<g xmlns="http://www.w3.org/2000/svg">
</g>
<g xmlns="http://www.w3.org/2000/svg">
</g>
<g xmlns="http://www.w3.org/2000/svg">
</g>
<g xmlns="http://www.w3.org/2000/svg">
</g>
<g xmlns="http://www.w3.org/2000/svg">
</g>
<g xmlns="http://www.w3.org/2000/svg">
</g>
<g xmlns="http://www.w3.org/2000/svg">
</g>
<g xmlns="http://www.w3.org/2000/svg">
</g>
<g xmlns="http://www.w3.org/2000/svg">
</g>
<g xmlns="http://www.w3.org/2000/svg">
</g>
<g xmlns="http://www.w3.org/2000/svg">
</g>
<g xmlns="http://www.w3.org/2000/svg">
</g>
</g></svg>
