<svg id="triangular-ruler-for-school" xmlns="http://www.w3.org/2000/svg" width="15.512" height="15.512" viewBox="0 0 15.512 15.512">
  <g id="Group_6" data-name="Group 6">
    <path id="Path_24" data-name="Path 24" d="M0,0V15.512H15.512ZM13.389,14.339V15h-.407v-.659h-.128V15h-.407v-.659h-.128V15h-.4V13.974h-.128V15h-.407v-.659h-.128V15h-.4v-.659h-.128V15h-.407v-.659h-.128V15h-.4V13.974H9.648V15H9.241v-.659H9.113V15h-.4v-.659H8.58V15H8.173v-.659H8.044V15h-.4V13.974H7.511V15H7.1v-.659H6.976V15H6.569v-.659H6.443V15H6.036v-.659H5.907V15H5.5V13.974H5.372V15h-.4v-.659H4.839V15H4.432v-.659H4.3V15H3.9v-.659H3.771V15H3.364V13.974H3.235V15h-.4v-.659H2.7V15H2.3v-.659H2.167V15h-.4v-.659H1.634V15H1.227v-.585h.311v-.128H1.227v-.311H1.1v.311H.514v-.407h.659v-.128H.514v-.4h.659v-.128H.514v-.407h.659v-.128H.514v-.4H1.538v-.128H.514V11.74h.659v-.128H.514v-.4h.659v-.128H.514v-.407h.659v-.128H.514v-.4H1.538v-.128H.514V9.6h.659V9.476H.514V9.069h.659V8.943H.514V8.536h.659V8.407H.514V8H1.538V7.872H.514v-.4h.659V7.339H.514V6.932h.659V6.8H.514V6.4h.659V6.271H.514V5.863H1.538V5.735H.514v-.4h.659V5.2H.514V4.795h.659V4.666H.514v-.4h.659V4.134H.514V3.727H1.538V3.6H.514v-.4h.659V3.066H.514V2.658h.659V2.53H.514V2.123h.659V2H.514V1.59H.864L13.921,14.647V15h-.407v-.659Zm.661.437.225.222H14.05ZM.736,1.462H.514V1.237ZM.514,14.413H1.1V15H.514Z" fill="#333"/>
    <path id="Path_25" data-name="Path 25" d="M8.271,26.709h6.756L8.271,19.954Zm.511-5.516L13.787,26.2H8.782Z" transform="translate(-5.705 -13.764)" fill="#333"/>
  </g>
</svg>
