<svg id="Group_436" data-name="Group 436" xmlns="http://www.w3.org/2000/svg" width="25.009" height="25.009" viewBox="0 0 25.009 25.009">
  <g id="Group_429" data-name="Group 429" transform="translate(8.336)">
    <path id="Path_492" data-name="Path 492" d="M24.336,14.588a.514.514,0,0,1-.2-.04.521.521,0,0,1-.321-.481V10.42H22.252a.521.521,0,1,1,0-1.042h2.084a.521.521,0,0,1,.521.521v2.91l3.279-3.279a.519.519,0,0,1,.368-.153H31.63V1.042H17.042V4.689a.521.521,0,1,1-1.042,0V.521A.521.521,0,0,1,16.521,0h15.63a.521.521,0,0,1,.521.521V9.9a.521.521,0,0,1-.521.521H28.72L24.7,14.436A.521.521,0,0,1,24.336,14.588Z" transform="translate(-16)" fill="#fff"/>
  </g>
  <g id="Group_430" data-name="Group 430" transform="translate(0 16.761)">
    <path id="Path_493" data-name="Path 493" d="M16.672,40.418H0V38.345a2.994,2.994,0,0,1,1.985-2.814l3.774-1.348v-1.87H6.8v2.605L2.334,36.512a1.951,1.951,0,0,0-1.292,1.833v1.031H15.63V38.345a1.952,1.952,0,0,0-1.292-1.834L9.872,34.916V32.17h1.042v2.012l3.775,1.348a3,3,0,0,1,1.983,2.814Z" transform="translate(0 -32.17)" fill="#fff"/>
  </g>
  <g id="Group_431" data-name="Group 431" transform="translate(3.599 7.102)">
    <path id="Path_494" data-name="Path 494" d="M11.542,24.545c-2.555,0-4.634-2.448-4.634-5.458s2.079-5.457,4.634-5.457,4.634,2.448,4.634,5.457S14.1,24.545,11.542,24.545Zm0-9.872c-1.981,0-3.592,1.98-3.592,4.415S9.562,23.5,11.542,23.5s3.592-1.981,3.592-4.416S13.523,14.674,11.542,14.674Z" transform="translate(-6.908 -13.631)" fill="#fff"/>
  </g>
  <g id="Group_432" data-name="Group 432" transform="translate(3.931 9.474)">
    <path id="Path_495" data-name="Path 495" d="M14.855,21.45a2.885,2.885,0,0,1-2.416-1.29,4.678,4.678,0,0,1-3.059,1.218,3.81,3.81,0,0,1-1.834-.443l.483-.923a2.767,2.767,0,0,0,1.351.324,3.33,3.33,0,0,0,2.636-1.308l.441-.845.473.828c.683,1.2,1.368,1.556,2.521,1.335a1.669,1.669,0,0,1,.323-.023.85.85,0,0,0,.108,0l.126,1.034a1.772,1.772,0,0,1-.244.011.5.5,0,0,0-.117,0A4.21,4.21,0,0,1,14.855,21.45Z" transform="translate(-7.545 -18.183)" fill="#fff"/>
  </g>
  <g id="Group_433" data-name="Group 433" transform="translate(18.756 5.21)">
    <path id="Path_496" data-name="Path 496" d="M36.521,10a.521.521,0,1,0,.521.521A.521.521,0,0,0,36.521,10Z" transform="translate(-36 -10)" fill="#fff"/>
  </g>
  <g id="Group_434" data-name="Group 434" transform="translate(16.151 5.21)">
    <path id="Path_497" data-name="Path 497" d="M31.521,10a.521.521,0,1,0,.521.521A.521.521,0,0,0,31.521,10Z" transform="translate(-31 -10)" fill="#fff"/>
  </g>
  <g id="Group_435" data-name="Group 435" transform="translate(13.546 5.21)">
    <path id="Path_498" data-name="Path 498" d="M26.521,10a.521.521,0,1,0,.521.521A.521.521,0,0,0,26.521,10Z" transform="translate(-26 -10)" fill="#fff"/>
  </g>
</svg>
