<?xml version="1.0" encoding="UTF-8"?>
<svg width="24px" height="22px" viewBox="0 0 24 22" version="1.1" xmlns="http://www.w3.org/2000/svg" xmlns:xlink="http://www.w3.org/1999/xlink">
    <!-- Generator: Sketch 48.2 (47327) - http://www.bohemiancoding.com/sketch -->
    <title>sms</title>
    <desc>Created with Sketch.</desc>
    <defs></defs>
    <g id="Page-1" stroke="none" stroke-width="1" fill="none" fill-rule="evenodd">
        <g id="sms">
            <path d="M12,0 C5.662,0 0,4.226 0,10.007 C0,12.057 0.739,14.07 2.047,15.632 C2.102,17.462 1.024,20.088 0.054,22 C2.656,21.53 6.355,20.492 8.032,19.464 C17.268,21.711 24,16.059 24,10.007 C24,4.195 18.299,-1.77635684e-15 12,0 Z" id="Shape" fill="#FFFFFF" fill-rule="nonzero"></path>
            <path d="M7.296,12.474 C6.88,12.804 6.3,12.969 5.556,12.969 C4.919,12.969 4.355,12.846 3.866,12.602 L4.14,11.519 C4.634,11.768 5.133,11.894 5.641,11.894 C5.934,11.894 6.162,11.838 6.327,11.727 C6.642,11.513 6.661,11.081 6.35,10.835 C6.201,10.718 5.946,10.599 5.581,10.478 C4.484,10.112 3.936,9.541 3.936,8.762 C3.936,8.259 4.138,7.845 4.54,7.519 C4.944,7.194 5.483,7.031 6.154,7.031 C6.74,7.031 7.25,7.13 7.689,7.329 L7.39,8.378 C6.989,8.191 6.57,8.098 6.136,8.098 C5.869,8.098 5.66,8.15 5.509,8.251 C5.21,8.455 5.216,8.821 5.474,9.038 C5.6,9.145 5.902,9.284 6.384,9.454 C6.916,9.642 7.304,9.874 7.551,10.152 C7.797,10.429 7.92,10.773 7.92,11.186 C7.92,11.714 7.712,12.144 7.296,12.474 Z" id="Path" fill="#000000"></path>
            <path d="M13.934,12.875 C13.843,10.594 13.798,9.046 13.798,8.233 L13.772,8.233 C13.634,8.844 13.167,10.361 12.373,12.78 L11.342,12.78 C10.866,11.111 10.164,8.233 10.164,8.233 L10.146,8.233 L9.942,12.875 L8.713,12.875 L9.079,7.125 L10.871,7.125 L11.885,11.092 L13.113,7.125 L14.924,7.125 L15.233,12.875 L13.934,12.875 Z" id="Path" fill="#000000"></path>
            <path d="M19.499,12.498 C19.08,12.832 18.488,13 17.739,13 C17.133,13 16.56,12.893 16.012,12.619 L16.302,11.472 C16.782,11.718 17.275,11.862 17.824,11.862 C18.11,11.862 18.334,11.808 18.491,11.7 C18.793,11.496 18.804,11.09 18.513,10.859 C18.368,10.745 18.113,10.628 17.756,10.506 C16.649,10.139 16.086,9.552 16.086,8.761 C16.086,8.251 16.294,7.823 16.704,7.494 C17.111,7.166 17.66,7 18.335,7 C18.922,7 19.444,7.101 19.885,7.3 L19.908,7.312 L19.592,8.423 C19.188,8.233 18.782,8.128 18.318,8.128 C18.06,8.128 17.855,8.178 17.709,8.276 C17.428,8.468 17.434,8.809 17.677,9.014 C17.8,9.117 18.102,9.256 18.576,9.424 C19.112,9.612 19.508,9.85 19.757,10.13 C20.007,10.413 20.135,10.766 20.135,11.185 C20.134,11.722 19.92,12.164 19.499,12.498 Z" id="Path" fill="#000000"></path>
        </g>
    </g>
</svg>