<?xml version="1.0" encoding="utf-8"?>
<!-- Generator: Adobe Illustrator 22.1.0, SVG Export Plug-In . SVG Version: 6.00 Build 0)  -->
<svg version="1.1" id="Layer_1" xmlns="http://www.w3.org/2000/svg" xmlns:xlink="http://www.w3.org/1999/xlink" x="0px" y="0px"
	 viewBox="0 0 24 24" style="enable-background:new 0 0 24 24;" xml:space="preserve">
<style type="text/css">
	.st0{fill:#FFFFFF;}
</style>
<g>
	<path class="st0" d="M21,0H8L0,8v15c0,0.6,0.4,1,1,1h20c0.6,0,1-0.4,1-1V1C22,0.4,21.6,0,21,0z M8,2.5V8H2.5L8,2.5z M20,22H2V9h6
		c0.6,0,1-0.4,1-1V2h11V22z"/>
	<polygon class="st0" points="6,15 10,15 10,19 12,19 12,15 16,15 16,13 12,13 12,9 10,9 10,13 6,13 	"/>
</g>
</svg>
