<?xml version="1.0" encoding="utf-8"?>
<!-- Generator: Adobe Illustrator 22.1.0, SVG Export Plug-In . SVG Version: 6.00 Build 0)  -->
<svg version="1.1" id="Livello_1" xmlns="http://www.w3.org/2000/svg" xmlns:xlink="http://www.w3.org/1999/xlink" x="0px" y="0px"
	 viewBox="0 0 141.7 141.7" style="enable-background:new 0 0 141.7 141.7;" xml:space="preserve">
<style type="text/css">
	.st0{fill:#FFFFFF;}
</style>
<g id="Livello_114">
	<path class="st0" d="M135.1,115.1c0-3.5-2.9-6.4-6.4-6.4c-8.8,0-16-7.2-16-16V54.4c0-20-14.2-36.7-33.1-40.7
		c0.6-1.2,0.9-2.6,0.9-4.1c0-5.3-4.3-9.6-9.6-9.6c-5.3,0-9.6,4.3-9.6,9.6c0,1.5,0.3,2.9,0.9,4.1c-18.9,4-33.1,20.7-33.1,40.7v38.4
		c0,8.8-7.2,16-16,16c-3.5,0-6.4,2.9-6.4,6.4c0,3.5,2.9,6.4,6.4,6.4h16h29c0,9.7,5.7,17.6,12.8,17.6s12.8-7.9,12.8-17.6h29h16l0,0
		C132.2,121.5,135.1,118.7,135.1,115.1"/>
</g>
<g id="Livello_1_1_">
</g>
</svg>
