<?xml version="1.0" encoding="UTF-8"?>
<svg width="384px" height="384px" viewBox="0 0 384 384" version="1.1" xmlns="http://www.w3.org/2000/svg" xmlns:xlink="http://www.w3.org/1999/xlink">
    <!-- Generator: Sketch 52.6 (67491) - http://www.bohemiancoding.com/sketch -->
    <title>blue-grid</title>
    <desc>Created with Sketch.</desc>
    <g id="Page-1" stroke="none" stroke-width="1" fill="none" fill-rule="evenodd">
        <g id="blue-grid" fill="#FFFFFF" fill-rule="nonzero">
            <path d="M352,202.666667 C369.04193,202.666667 383.945678,216.540411 384,234.666667 L384,352 C384,369.04193 370.298731,384 352,384 L234.666667,384 C217.624737,384 202.720989,370.115997 202.666667,352 L202.666667,234.666667 C202.666667,217.624737 216.407639,202.666667 234.666667,202.666667 L352,202.666667 Z M149.333333,202.666667 C166.375263,202.666667 181.279011,216.540411 181.333333,234.666667 L181.333333,352 C181.333333,369.04193 167.632064,384 149.333333,384 L32,384 C14.9580706,384 0.0543220267,370.115997 0,352 L0,234.666667 C0,217.624737 13.7409728,202.666667 32,202.666667 L149.333333,202.666667 Z M352,224 L234.666667,224 C229.196418,224 224,228.441516 224,234.666667 L224,352 C224,357.470249 228.296039,362.666667 234.666667,362.666667 L352,362.666667 C357.470249,362.666667 362.666667,358.370738 362.666667,352 L362.666667,234.666667 C362.666667,229.196418 358.471737,224 352,224 Z M149.333333,224 L32,224 C26.529751,224 21.3333333,228.441516 21.3333333,234.666667 L21.3333333,352 C21.3333333,357.470249 25.6293731,362.666667 32,362.666667 L149.333333,362.666667 C154.803582,362.666667 160,358.370738 160,352 L160,234.666667 C160,229.196418 155.80507,224 149.333333,224 Z M352,0 C369.04193,0 383.945678,13.8737441 384,32 L384,149.333333 C384,166.375263 370.298731,181.333333 352,181.333333 L234.666667,181.333333 C217.624737,181.333333 202.720989,167.44933 202.666667,149.333333 L202.666667,32 C202.666667,14.9580706 216.407639,0 234.666667,0 L352,0 Z M149.333333,0 C166.375263,0 181.279011,13.8737441 181.333333,32 L181.333333,149.333333 C181.333333,166.375263 167.632064,181.333333 149.333333,181.333333 L32,181.333333 C14.9580706,181.333333 0.0543220267,167.44933 0,149.333333 L0,32 C0,14.9580706 13.7409728,0 32,0 L149.333333,0 Z M352,21.3333333 L234.666667,21.3333333 C229.196418,21.3333333 224,25.7748494 224,32 L224,149.333333 C224,154.803582 228.296039,160 234.666667,160 L352,160 C357.470249,160 362.666667,155.704071 362.666667,149.333333 L362.666667,32 C362.666667,26.529751 358.471737,21.3333333 352,21.3333333 Z M149.333333,21.3333333 L32,21.3333333 C26.529751,21.3333333 21.3333333,25.7748494 21.3333333,32 L21.3333333,149.333333 C21.3333333,154.803582 25.6293731,160 32,160 L149.333333,160 C154.803582,160 160,155.704071 160,149.333333 L160,32 C160,26.529751 155.80507,21.3333333 149.333333,21.3333333 Z" id="Shape"></path>
        </g>
    </g>
</svg>