<?xml version="1.0" encoding="UTF-8"?>
<svg width="538px" height="612px" viewBox="0 0 538 612" version="1.1" xmlns="http://www.w3.org/2000/svg" xmlns:xlink="http://www.w3.org/1999/xlink">
    <!-- Generator: Sketch 48.2 (47327) - http://www.bohemiancoding.com/sketch -->
    <title>upload-user@2x</title>
    <desc>Created with Sketch.</desc>
    <defs></defs>
    <g id="Page-1" stroke="none" stroke-width="1" fill="none" fill-rule="evenodd">
        <g id="upload-user" fill="#FFFFFF" fill-rule="nonzero">
            <path d="M233.853,310.198 C320.03,310.193 351.037,223.907 359.154,153.029 C369.154,65.715 327.864,0 233.853,0 C139.856,0 98.545,65.71 108.552,153.029 C116.677,223.907 147.675,310.204 233.853,310.198 Z" id="Shape"></path>
            <path d="M422.287,346.115 C425.06,346.115 427.815,346.198 430.551,346.35 C426.45,340.5 421.703,335.34 416.148,331.192 C399.589,318.833 378.143,314.778 359.184,307.328 C349.957,303.703 341.691,300.102 333.931,296.002 C307.747,324.717 273.603,339.738 233.841,339.742 C194.092,339.742 159.951,324.721 133.769,296.002 C126.009,300.103 117.743,303.703 108.516,307.328 C89.557,314.779 68.112,318.833 51.552,331.192 C22.914,352.567 15.513,400.652 9.698,433.452 C4.899,460.528 1.675,488.159 0.733,515.661 C0.004,536.964 10.523,539.951 28.344,546.382 C50.659,554.43 73.702,560.405 96.896,565.303 C141.693,574.763 187.869,582.032 233.846,582.357 C256.123,582.198 278.447,580.401 300.638,577.524 C284.207,553.717 274.57,524.879 274.57,493.829 C274.575,412.378 340.839,346.115 422.287,346.115 Z" id="Shape"></path>
            <path d="M419.128,375.658 C353.866,375.658 300.956,428.567 300.956,493.829 C300.956,559.091 353.865,612 419.128,612 C484.39,612 537.3,559.091 537.3,493.829 C537.299,428.567 484.39,375.658 419.128,375.658 Z M458.148441,524.578278 C453.593044,524.179022 449.631625,521.972037 446.906848,518.724774 C444.183357,515.479044 442.696508,511.193037 443.095887,506.636231 L444.162675,494.44279 L384.758993,544.288398 C377.75275,550.167333 367.308435,549.252864 361.430143,542.247388 C355.55185,535.241911 356.465676,524.796831 363.471153,518.918538 L422.877899,469.070359 L410.674596,468.002708 C401.565211,467.204321 394.824051,459.17363 395.622685,450.061428 C396.419787,440.950511 404.451763,434.210883 413.56268,435.007985 L465.588426,439.563197 C474.697811,440.361584 481.438971,448.392275 480.641869,457.503192 L476.089844,509.524958 C475.291334,518.635752 467.259358,525.37538 458.148441,524.578278 Z" id="Shape"></path>
        </g>
    </g>
</svg>