<?xml version="1.0" encoding="UTF-8"?>
<svg width="496px" height="496px" viewBox="0 0 496 496" version="1.1" xmlns="http://www.w3.org/2000/svg" xmlns:xlink="http://www.w3.org/1999/xlink">
    <!-- Generator: Sketch 52.6 (67491) - http://www.bohemiancoding.com/sketch -->
    <title>blue-search</title>
    <desc>Created with Sketch.</desc>
    <g id="Page-1" stroke="none" stroke-width="1" fill="none" fill-rule="evenodd">
        <g id="blue-search" transform="translate(-1.000000, 0.000000)" fill="#FFFFFF">
            <g id="Group" transform="translate(248.500000, 248.000000) scale(-1, 1) translate(-248.500000, -248.000000) ">
                <g transform="translate(89.000000, 0.000000)" fill-rule="nonzero" id="Shape">
                    <path d="M203.8,407.2 C91.8,407.2 0.6,316 0.6,204 C-0.2,91.2 91,0 203.8,0 C315.8,0 407,91.2 407,203.2 C407,316 315.8,407.2 203.8,407.2 Z M203.8,32 C109.4,32 32.6,108.8 32.6,203.2 C32.6,297.6 109.4,374.4 203.8,374.4 C298.2,374.4 375,298.4 375,203.2 C375,108 298.2,32 203.8,32 Z"></path>
                </g>
                <g transform="translate(0.000000, 320.000000)" id="Path">
                    <path d="M16,176 C12,176 8,174.4 4.8,171.2 C-1.6,164.8 -1.6,155.2 4.8,148.8 L148.8,4.8 C155.2,-1.6 164.8,-1.6 171.2,4.8 C177.6,11.2 177.6,20.8 171.2,27.2 L27.2,171.2 C24,174.4 20,176 16,176 Z"></path>
                </g>
            </g>
        </g>
    </g>
</svg>