<svg xmlns="http://www.w3.org/2000/svg" width="15.02" height="15.021" viewBox="0 0 15.02 15.021">
  <g id="Group_139" data-name="Group 139" transform="translate(-4.215 -4.215)">
    <path id="Path_68" data-name="Path 68" d="M123.268,108.8a.93.93,0,0,0-1.32,0l-5.915,5.915-5.915-5.915a.933.933,0,0,0-1.32,1.32l5.915,5.915-5.915,5.915a.936.936,0,0,0,.656,1.6.91.91,0,0,0,.656-.276l5.915-5.915,5.915,5.915a.939.939,0,0,0,.656.276.9.9,0,0,0,.656-.276.93.93,0,0,0,0-1.32l-5.9-5.915,5.915-5.915A.93.93,0,0,0,123.268,108.8Z" transform="translate(-104.308 -104.308)" fill="#fff"/>
  </g>
</svg>
